<ttFont>
    <TTGlyph name="A" xMin="12" yMin="-9" xMax="815" yMax="698">
      <contour>
        <pt x="468" y="698" on="1"/>
        <pt x="692" y="698" on="1"/>
        <pt x="667" y="673" on="0"/>
        <pt x="543" y="647" on="0"/>
        <pt x="387" y="632" on="0"/>
        <pt x="363" y="627" on="1"/>
        <pt x="256" y="602" on="0"/>
        <pt x="256" y="499" on="1"/>
        <pt x="225" y="531" on="0"/>
        <pt x="225" y="568" on="1"/>
        <pt x="225" y="698" on="0"/>
      </contour>
      <contour>
        <pt x="743" y="698" on="1"/>
        <pt x="815" y="698" on="1"/>
        <pt x="769" y="654" on="0"/>
        <pt x="674" y="261" on="0"/>
        <pt x="674" y="154" on="1"/>
        <pt x="674" y="78" on="0"/>
        <pt x="702" y="49" on="1"/>
        <pt x="714" y="36" on="0"/>
        <pt x="750" y="36" on="0"/>
        <pt x="770" y="49" on="1"/>
        <pt x="776" y="40" on="1"/>
        <pt x="762" y="20" on="0"/>
        <pt x="690" y="-9" on="0"/>
        <pt x="655" y="-9" on="1"/>
        <pt x="603" y="-9" on="0"/>
        <pt x="565" y="65" on="0"/>
        <pt x="562" y="127" on="1"/>
        <pt x="562" y="178" on="0"/>
        <pt x="575" y="259" on="1"/>
        <pt x="346" y="259" on="1"/>
        <pt x="197" y="101" on="0"/>
        <pt x="112" y="0" on="1"/>
        <pt x="12" y="0" on="1"/>
        <pt x="106" y="86" on="0"/>
        <pt x="304" y="282" on="1"/>
        <pt x="559" y="536" on="0"/>
        <pt x="639" y="634" on="1"/>
        <pt x="659" y="658" on="0"/>
        <pt x="679" y="677" on="0"/>
        <pt x="720" y="698" on="0"/>
      </contour>
      <contour>
        <pt x="640" y="557" on="1"/>
        <pt x="526" y="450" on="0"/>
        <pt x="390" y="309" on="1"/>
        <pt x="582" y="309" on="1"/>
        <pt x="600" y="408" on="0"/>
      </contour>
    </TTGlyph>
    <TTGlyph name="AE" xMin="-48" yMin="0" xMax="1031" yMax="703">
      <contour>
        <pt x="884" y="698" on="1"/>
        <pt x="993" y="703" on="1"/>
        <pt x="1024" y="703" on="0"/>
        <pt x="1031" y="678" on="0"/>
        <pt x="1031" y="672" on="1"/>
        <pt x="1031" y="637" on="0"/>
        <pt x="982" y="530" on="0"/>
        <pt x="961" y="530" on="0"/>
        <pt x="961" y="538" on="1"/>
        <pt x="969" y="598" on="1"/>
        <pt x="969" y="629" on="0"/>
        <pt x="919" y="665" on="0"/>
        <pt x="849" y="665" on="0"/>
        <pt x="815" y="655" on="0"/>
        <pt x="805" y="639" on="1"/>
        <pt x="732" y="530" on="0"/>
        <pt x="672" y="391" on="1"/>
        <pt x="933" y="391" on="1"/>
        <pt x="934" y="390" on="1"/>
        <pt x="934" y="383" on="0"/>
        <pt x="906" y="342" on="0"/>
        <pt x="897" y="342" on="1"/>
        <pt x="650" y="342" on="1"/>
        <pt x="623" y="276" on="0"/>
        <pt x="571" y="112" on="0"/>
        <pt x="571" y="59" on="0"/>
        <pt x="603" y="34" on="0"/>
        <pt x="641" y="34" on="1"/>
        <pt x="933" y="34" on="0"/>
        <pt x="987" y="148" on="1"/>
        <pt x="988" y="151" on="0"/>
        <pt x="1000" y="151" on="0"/>
        <pt x="1000" y="139" on="0"/>
        <pt x="998" y="129" on="1"/>
        <pt x="970" y="42" on="0"/>
        <pt x="915" y="19" on="1"/>
        <pt x="886" y="7" on="0"/>
        <pt x="835" y="0" on="0"/>
        <pt x="795" y="0" on="1"/>
        <pt x="493" y="0" on="1"/>
        <pt x="462" y="0" on="0"/>
        <pt x="462" y="48" on="1"/>
        <pt x="462" y="115" on="0"/>
        <pt x="518" y="259" on="1"/>
        <pt x="286" y="259" on="1"/>
        <pt x="137" y="101" on="0"/>
        <pt x="52" y="0" on="1"/>
        <pt x="-48" y="0" on="1"/>
        <pt x="46" y="86" on="0"/>
        <pt x="244" y="282" on="1"/>
        <pt x="499" y="536" on="0"/>
        <pt x="579" y="634" on="1"/>
        <pt x="599" y="658" on="0"/>
        <pt x="619" y="677" on="0"/>
        <pt x="660" y="698" on="0"/>
        <pt x="683" y="698" on="1"/>
      </contour>
      <contour>
        <pt x="704" y="668" on="1"/>
        <pt x="667" y="645" on="0"/>
        <pt x="550" y="540" on="0"/>
        <pt x="509" y="498" on="1"/>
        <pt x="386" y="372" on="0"/>
        <pt x="330" y="309" on="1"/>
        <pt x="537" y="309" on="1"/>
        <pt x="572" y="391" on="1"/>
        <pt x="663" y="610" on="0"/>
        <pt x="705" y="660" on="1"/>
        <pt x="705" y="661" on="0"/>
        <pt x="704" y="666" on="0"/>
      </contour>
      <contour>
        <pt x="408" y="698" on="1"/>
        <pt x="632" y="698" on="1"/>
        <pt x="607" y="673" on="0"/>
        <pt x="483" y="647" on="0"/>
        <pt x="327" y="632" on="0"/>
        <pt x="303" y="627" on="1"/>
        <pt x="196" y="602" on="0"/>
        <pt x="196" y="499" on="1"/>
        <pt x="165" y="531" on="0"/>
        <pt x="165" y="568" on="1"/>
        <pt x="165" y="698" on="0"/>
      </contour>
    </TTGlyph>
    <TTGlyph name="Aacute" xMin="-48" yMin="-9" xMax="882" yMax="841">
      <contour>
        <pt x="408" y="698" on="1"/>
        <pt x="632" y="698" on="1"/>
        <pt x="607" y="673" on="0"/>
        <pt x="483" y="647" on="0"/>
        <pt x="327" y="632" on="0"/>
        <pt x="303" y="627" on="1"/>
        <pt x="196" y="602" on="0"/>
        <pt x="196" y="499" on="1"/>
        <pt x="165" y="531" on="0"/>
        <pt x="165" y="568" on="1"/>
        <pt x="165" y="698" on="0"/>
      </contour>
      <contour>
        <pt x="683" y="698" on="1"/>
        <pt x="755" y="698" on="1"/>
        <pt x="709" y="654" on="0"/>
        <pt x="614" y="261" on="0"/>
        <pt x="614" y="154" on="1"/>
        <pt x="614" y="78" on="0"/>
        <pt x="642" y="49" on="1"/>
        <pt x="654" y="36" on="0"/>
        <pt x="690" y="36" on="0"/>
        <pt x="710" y="49" on="1"/>
        <pt x="716" y="40" on="1"/>
        <pt x="702" y="20" on="0"/>
        <pt x="630" y="-9" on="0"/>
        <pt x="595" y="-9" on="1"/>
        <pt x="543" y="-9" on="0"/>
        <pt x="505" y="65" on="0"/>
        <pt x="502" y="127" on="1"/>
        <pt x="502" y="178" on="0"/>
        <pt x="515" y="259" on="1"/>
        <pt x="286" y="259" on="1"/>
        <pt x="137" y="101" on="0"/>
        <pt x="52" y="0" on="1"/>
        <pt x="-48" y="0" on="1"/>
        <pt x="46" y="86" on="0"/>
        <pt x="244" y="282" on="1"/>
        <pt x="499" y="536" on="0"/>
        <pt x="579" y="634" on="1"/>
        <pt x="599" y="658" on="0"/>
        <pt x="619" y="677" on="0"/>
        <pt x="660" y="698" on="0"/>
      </contour>
      <contour>
        <pt x="580" y="557" on="1"/>
        <pt x="466" y="450" on="0"/>
        <pt x="330" y="309" on="1"/>
        <pt x="522" y="309" on="1"/>
        <pt x="540" y="408" on="0"/>
      </contour>
      <contour>
        <pt x="880" y="810" on="1"/>
        <pt x="840" y="793" on="0"/>
        <pt x="708" y="726" on="0"/>
        <pt x="702" y="726" on="0"/>
        <pt x="683" y="736" on="0"/>
        <pt x="683" y="738" on="1"/>
        <pt x="692" y="743" on="0"/>
        <pt x="805" y="826" on="0"/>
        <pt x="823" y="839" on="1"/>
        <pt x="827" y="841" on="0"/>
        <pt x="843" y="841" on="0"/>
        <pt x="882" y="819" on="0"/>
        <pt x="882" y="813" on="1"/>
        <pt x="882" y="811" on="0"/>
      </contour>
    </TTGlyph>
    <TTGlyph name="Acircumflex" xMin="-48" yMin="-9" xMax="876" yMax="893">
      <contour>
        <pt x="408" y="698" on="1"/>
        <pt x="632" y="698" on="1"/>
        <pt x="607" y="673" on="0"/>
        <pt x="483" y="647" on="0"/>
        <pt x="327" y="632" on="0"/>
        <pt x="303" y="627" on="1"/>
        <pt x="196" y="602" on="0"/>
        <pt x="196" y="499" on="1"/>
        <pt x="165" y="531" on="0"/>
        <pt x="165" y="568" on="1"/>
        <pt x="165" y="698" on="0"/>
      </contour>
      <contour>
        <pt x="683" y="698" on="1"/>
        <pt x="755" y="698" on="1"/>
        <pt x="709" y="654" on="0"/>
        <pt x="614" y="261" on="0"/>
        <pt x="614" y="154" on="1"/>
        <pt x="614" y="78" on="0"/>
        <pt x="642" y="49" on="1"/>
        <pt x="654" y="36" on="0"/>
        <pt x="690" y="36" on="0"/>
        <pt x="710" y="49" on="1"/>
        <pt x="716" y="40" on="1"/>
        <pt x="702" y="20" on="0"/>
        <pt x="630" y="-9" on="0"/>
        <pt x="595" y="-9" on="1"/>
        <pt x="543" y="-9" on="0"/>
        <pt x="505" y="65" on="0"/>
        <pt x="502" y="127" on="1"/>
        <pt x="502" y="178" on="0"/>
        <pt x="515" y="259" on="1"/>
        <pt x="286" y="259" on="1"/>
        <pt x="137" y="101" on="0"/>
        <pt x="52" y="0" on="1"/>
        <pt x="-48" y="0" on="1"/>
        <pt x="46" y="86" on="0"/>
        <pt x="244" y="282" on="1"/>
        <pt x="499" y="536" on="0"/>
        <pt x="579" y="634" on="1"/>
        <pt x="599" y="658" on="0"/>
        <pt x="619" y="677" on="0"/>
        <pt x="660" y="698" on="0"/>
      </contour>
      <contour>
        <pt x="580" y="557" on="1"/>
        <pt x="466" y="450" on="0"/>
        <pt x="330" y="309" on="1"/>
        <pt x="522" y="309" on="1"/>
        <pt x="540" y="408" on="0"/>
      </contour>
      <contour>
        <pt x="876" y="766" on="1"/>
        <pt x="876" y="765" on="1"/>
        <pt x="876" y="762" on="0"/>
        <pt x="847" y="746" on="0"/>
        <pt x="839" y="746" on="1"/>
        <pt x="825" y="746" on="0"/>
        <pt x="776" y="818" on="0"/>
        <pt x="764" y="845" on="1"/>
        <pt x="731" y="813" on="0"/>
        <pt x="650" y="750" on="0"/>
        <pt x="618" y="750" on="0"/>
        <pt x="618" y="753" on="1"/>
        <pt x="618" y="754" on="1"/>
        <pt x="714" y="832" on="0"/>
        <pt x="764" y="884" on="1"/>
        <pt x="772" y="893" on="0"/>
        <pt x="789" y="893" on="0"/>
        <pt x="820" y="848" on="0"/>
        <pt x="864" y="781" on="0"/>
      </contour>
    </TTGlyph>
    <TTGlyph name="Adieresis" xMin="-48" yMin="-9" xMax="911" yMax="863">
      <contour>
        <pt x="408" y="698" on="1"/>
        <pt x="632" y="698" on="1"/>
        <pt x="607" y="673" on="0"/>
        <pt x="483" y="647" on="0"/>
        <pt x="327" y="632" on="0"/>
        <pt x="303" y="627" on="1"/>
        <pt x="196" y="602" on="0"/>
        <pt x="196" y="499" on="1"/>
        <pt x="165" y="531" on="0"/>
        <pt x="165" y="568" on="1"/>
        <pt x="165" y="698" on="0"/>
      </contour>
      <contour>
        <pt x="683" y="698" on="1"/>
        <pt x="755" y="698" on="1"/>
        <pt x="709" y="654" on="0"/>
        <pt x="614" y="261" on="0"/>
        <pt x="614" y="154" on="1"/>
        <pt x="614" y="78" on="0"/>
        <pt x="642" y="49" on="1"/>
        <pt x="654" y="36" on="0"/>
        <pt x="690" y="36" on="0"/>
        <pt x="710" y="49" on="1"/>
        <pt x="716" y="40" on="1"/>
        <pt x="702" y="20" on="0"/>
        <pt x="630" y="-9" on="0"/>
        <pt x="595" y="-9" on="1"/>
        <pt x="543" y="-9" on="0"/>
        <pt x="505" y="65" on="0"/>
        <pt x="502" y="127" on="1"/>
        <pt x="502" y="178" on="0"/>
        <pt x="515" y="259" on="1"/>
        <pt x="286" y="259" on="1"/>
        <pt x="137" y="101" on="0"/>
        <pt x="52" y="0" on="1"/>
        <pt x="-48" y="0" on="1"/>
        <pt x="46" y="86" on="0"/>
        <pt x="244" y="282" on="1"/>
        <pt x="499" y="536" on="0"/>
        <pt x="579" y="634" on="1"/>
        <pt x="599" y="658" on="0"/>
        <pt x="619" y="677" on="0"/>
        <pt x="660" y="698" on="0"/>
      </contour>
      <contour>
        <pt x="580" y="557" on="1"/>
        <pt x="466" y="450" on="0"/>
        <pt x="330" y="309" on="1"/>
        <pt x="522" y="309" on="1"/>
        <pt x="540" y="408" on="0"/>
      </contour>
      <contour>
        <pt x="905" y="809" on="1"/>
        <pt x="885" y="804" on="0"/>
        <pt x="842" y="759" on="0"/>
        <pt x="831" y="759" on="1"/>
        <pt x="810" y="759" on="0"/>
        <pt x="810" y="793" on="0"/>
        <pt x="859" y="863" on="0"/>
        <pt x="880" y="863" on="1"/>
        <pt x="891" y="863" on="0"/>
        <pt x="911" y="833" on="0"/>
        <pt x="911" y="810" on="0"/>
      </contour>
      <contour>
        <pt x="718" y="809" on="1"/>
        <pt x="698" y="804" on="0"/>
        <pt x="655" y="759" on="0"/>
        <pt x="644" y="759" on="1"/>
        <pt x="623" y="759" on="0"/>
        <pt x="623" y="793" on="0"/>
        <pt x="672" y="863" on="0"/>
        <pt x="693" y="863" on="1"/>
        <pt x="704" y="863" on="0"/>
        <pt x="724" y="833" on="0"/>
        <pt x="724" y="810" on="0"/>
      </contour>
    </TTGlyph>
    <TTGlyph name="Agrave" xMin="-48" yMin="-9" xMax="798" yMax="846">
      <contour>
        <pt x="408" y="698" on="1"/>
        <pt x="632" y="698" on="1"/>
        <pt x="607" y="673" on="0"/>
        <pt x="483" y="647" on="0"/>
        <pt x="327" y="632" on="0"/>
        <pt x="303" y="627" on="1"/>
        <pt x="196" y="602" on="0"/>
        <pt x="196" y="499" on="1"/>
        <pt x="165" y="531" on="0"/>
        <pt x="165" y="568" on="1"/>
        <pt x="165" y="698" on="0"/>
      </contour>
      <contour>
        <pt x="683" y="698" on="1"/>
        <pt x="755" y="698" on="1"/>
        <pt x="709" y="654" on="0"/>
        <pt x="614" y="261" on="0"/>
        <pt x="614" y="154" on="1"/>
        <pt x="614" y="78" on="0"/>
        <pt x="642" y="49" on="1"/>
        <pt x="654" y="36" on="0"/>
        <pt x="690" y="36" on="0"/>
        <pt x="710" y="49" on="1"/>
        <pt x="716" y="40" on="1"/>
        <pt x="702" y="20" on="0"/>
        <pt x="630" y="-9" on="0"/>
        <pt x="595" y="-9" on="1"/>
        <pt x="543" y="-9" on="0"/>
        <pt x="505" y="65" on="0"/>
        <pt x="502" y="127" on="1"/>
        <pt x="502" y="178" on="0"/>
        <pt x="515" y="259" on="1"/>
        <pt x="286" y="259" on="1"/>
        <pt x="137" y="101" on="0"/>
        <pt x="52" y="0" on="1"/>
        <pt x="-48" y="0" on="1"/>
        <pt x="46" y="86" on="0"/>
        <pt x="244" y="282" on="1"/>
        <pt x="499" y="536" on="0"/>
        <pt x="579" y="634" on="1"/>
        <pt x="599" y="658" on="0"/>
        <pt x="619" y="677" on="0"/>
        <pt x="660" y="698" on="0"/>
      </contour>
      <contour>
        <pt x="580" y="557" on="1"/>
        <pt x="466" y="450" on="0"/>
        <pt x="330" y="309" on="1"/>
        <pt x="522" y="309" on="1"/>
        <pt x="540" y="408" on="0"/>
      </contour>
      <contour>
        <pt x="674" y="780" on="1"/>
        <pt x="631" y="802" on="0"/>
        <pt x="598" y="816" on="0"/>
        <pt x="598" y="818" on="1"/>
        <pt x="598" y="824" on="0"/>
        <pt x="638" y="846" on="0"/>
        <pt x="654" y="846" on="0"/>
        <pt x="658" y="844" on="1"/>
        <pt x="676" y="831" on="0"/>
        <pt x="710" y="806" on="1"/>
        <pt x="768" y="763" on="1"/>
        <pt x="791" y="746" on="0"/>
        <pt x="798" y="743" on="1"/>
        <pt x="798" y="740" on="0"/>
        <pt x="778" y="731" on="0"/>
        <pt x="773" y="731" on="0"/>
        <pt x="745" y="745" on="1"/>
      </contour>
    </TTGlyph>
    <TTGlyph name="Aring" xMin="-48" yMin="-9" xMax="755" yMax="698">
      <contour>
        <pt x="408" y="698" on="1"/>
        <pt x="632" y="698" on="1"/>
        <pt x="607" y="673" on="0"/>
        <pt x="483" y="647" on="0"/>
        <pt x="327" y="632" on="0"/>
        <pt x="303" y="627" on="1"/>
        <pt x="196" y="602" on="0"/>
        <pt x="196" y="499" on="1"/>
        <pt x="165" y="531" on="0"/>
        <pt x="165" y="568" on="1"/>
        <pt x="165" y="698" on="0"/>
      </contour>
      <contour>
        <pt x="683" y="698" on="1"/>
        <pt x="755" y="698" on="1"/>
        <pt x="709" y="654" on="0"/>
        <pt x="614" y="261" on="0"/>
        <pt x="614" y="154" on="1"/>
        <pt x="614" y="78" on="0"/>
        <pt x="642" y="49" on="1"/>
        <pt x="654" y="36" on="0"/>
        <pt x="690" y="36" on="0"/>
        <pt x="710" y="49" on="1"/>
        <pt x="716" y="40" on="1"/>
        <pt x="702" y="20" on="0"/>
        <pt x="630" y="-9" on="0"/>
        <pt x="595" y="-9" on="1"/>
        <pt x="543" y="-9" on="0"/>
        <pt x="505" y="65" on="0"/>
        <pt x="502" y="127" on="1"/>
        <pt x="502" y="178" on="0"/>
        <pt x="515" y="259" on="1"/>
        <pt x="286" y="259" on="1"/>
        <pt x="137" y="101" on="0"/>
        <pt x="52" y="0" on="1"/>
        <pt x="-48" y="0" on="1"/>
        <pt x="46" y="86" on="0"/>
        <pt x="244" y="282" on="1"/>
        <pt x="499" y="536" on="0"/>
        <pt x="579" y="634" on="1"/>
        <pt x="599" y="658" on="0"/>
        <pt x="619" y="677" on="0"/>
        <pt x="660" y="698" on="0"/>
      </contour>
      <contour>
        <pt x="580" y="557" on="1"/>
        <pt x="466" y="450" on="0"/>
        <pt x="330" y="309" on="1"/>
        <pt x="522" y="309" on="1"/>
        <pt x="540" y="408" on="0"/>
      </contour>
    </TTGlyph>
    <TTGlyph name="Atilde" xMin="-48" yMin="-9" xMax="942" yMax="898">
      <contour>
        <pt x="408" y="698" on="1"/>
        <pt x="632" y="698" on="1"/>
        <pt x="607" y="673" on="0"/>
        <pt x="483" y="647" on="0"/>
        <pt x="327" y="632" on="0"/>
        <pt x="303" y="627" on="1"/>
        <pt x="196" y="602" on="0"/>
        <pt x="196" y="499" on="1"/>
        <pt x="165" y="531" on="0"/>
        <pt x="165" y="568" on="1"/>
        <pt x="165" y="698" on="0"/>
      </contour>
      <contour>
        <pt x="683" y="698" on="1"/>
        <pt x="755" y="698" on="1"/>
        <pt x="709" y="654" on="0"/>
        <pt x="614" y="261" on="0"/>
        <pt x="614" y="154" on="1"/>
        <pt x="614" y="78" on="0"/>
        <pt x="642" y="49" on="1"/>
        <pt x="654" y="36" on="0"/>
        <pt x="690" y="36" on="0"/>
        <pt x="710" y="49" on="1"/>
        <pt x="716" y="40" on="1"/>
        <pt x="702" y="20" on="0"/>
        <pt x="630" y="-9" on="0"/>
        <pt x="595" y="-9" on="1"/>
        <pt x="543" y="-9" on="0"/>
        <pt x="505" y="65" on="0"/>
        <pt x="502" y="127" on="1"/>
        <pt x="502" y="178" on="0"/>
        <pt x="515" y="259" on="1"/>
        <pt x="286" y="259" on="1"/>
        <pt x="137" y="101" on="0"/>
        <pt x="52" y="0" on="1"/>
        <pt x="-48" y="0" on="1"/>
        <pt x="46" y="86" on="0"/>
        <pt x="244" y="282" on="1"/>
        <pt x="499" y="536" on="0"/>
        <pt x="579" y="634" on="1"/>
        <pt x="599" y="658" on="0"/>
        <pt x="619" y="677" on="0"/>
        <pt x="660" y="698" on="0"/>
      </contour>
      <contour>
        <pt x="580" y="557" on="1"/>
        <pt x="466" y="450" on="0"/>
        <pt x="330" y="309" on="1"/>
        <pt x="522" y="309" on="1"/>
        <pt x="540" y="408" on="0"/>
      </contour>
      <contour>
        <pt x="940" y="883" on="1"/>
        <pt x="898" y="811" on="0"/>
        <pt x="860" y="811" on="1"/>
        <pt x="837" y="811" on="0"/>
        <pt x="753" y="847" on="0"/>
        <pt x="704" y="847" on="0"/>
        <pt x="668" y="817" on="0"/>
        <pt x="667" y="817" on="1"/>
        <pt x="656" y="817" on="0"/>
        <pt x="656" y="836" on="0"/>
        <pt x="708" y="894" on="0"/>
        <pt x="757" y="894" on="0"/>
        <pt x="849" y="857" on="0"/>
        <pt x="890" y="857" on="0"/>
        <pt x="913" y="878" on="0"/>
        <pt x="927" y="898" on="0"/>
        <pt x="933" y="898" on="1"/>
        <pt x="942" y="898" on="0"/>
        <pt x="942" y="890" on="1"/>
        <pt x="942" y="887" on="0"/>
      </contour>
    </TTGlyph>
    <TTGlyph name="B" xMin="-30" yMin="-17" xMax="614" yMax="698">
      <contour>
        <pt x="614" y="548" on="1"/>
        <pt x="603" y="441" on="0"/>
        <pt x="480" y="388" on="1"/>
        <pt x="451" y="376" on="0"/>
        <pt x="421" y="370" on="1"/>
        <pt x="577" y="341" on="0"/>
        <pt x="577" y="222" on="1"/>
        <pt x="577" y="121" on="0"/>
        <pt x="362" y="-17" on="0"/>
        <pt x="203" y="-17" on="1"/>
        <pt x="125" y="-17" on="0"/>
        <pt x="21" y="32" on="0"/>
        <pt x="21" y="89" on="1"/>
        <pt x="21" y="159" on="0"/>
        <pt x="169" y="507" on="0"/>
        <pt x="232" y="630" on="1"/>
        <pt x="242" y="650" on="0"/>
        <pt x="247" y="658" on="1"/>
        <pt x="211" y="653" on="1"/>
        <pt x="133" y="642" on="0"/>
        <pt x="2" y="590" on="0"/>
        <pt x="-21" y="551" on="1"/>
        <pt x="-22" y="548" on="0"/>
        <pt x="-30" y="548" on="0"/>
        <pt x="-30" y="559" on="0"/>
        <pt x="-29" y="561" on="1"/>
        <pt x="9" y="665" on="0"/>
        <pt x="110" y="688" on="1"/>
        <pt x="156" y="698" on="0"/>
        <pt x="233" y="698" on="1"/>
        <pt x="430" y="698" on="1"/>
        <pt x="521" y="698" on="0"/>
        <pt x="614" y="620" on="0"/>
        <pt x="614" y="561" on="1"/>
      </contour>
      <contour>
        <pt x="510" y="574" on="1"/>
        <pt x="501" y="662" on="0"/>
        <pt x="371" y="668" on="1"/>
        <pt x="324" y="607" on="0"/>
        <pt x="170" y="271" on="0"/>
        <pt x="128" y="122" on="0"/>
        <pt x="128" y="45" on="0"/>
        <pt x="172" y="22" on="0"/>
        <pt x="223" y="22" on="1"/>
        <pt x="318" y="22" on="0"/>
        <pt x="460" y="125" on="0"/>
        <pt x="460" y="227" on="1"/>
        <pt x="460" y="277" on="0"/>
        <pt x="411" y="349" on="0"/>
        <pt x="364" y="355" on="1"/>
        <pt x="302" y="338" on="0"/>
        <pt x="244" y="338" on="1"/>
        <pt x="227" y="338" on="0"/>
        <pt x="227" y="345" on="1"/>
        <pt x="227" y="368" on="0"/>
        <pt x="289" y="385" on="0"/>
        <pt x="345" y="385" on="0"/>
        <pt x="372" y="381" on="1"/>
        <pt x="437" y="401" on="0"/>
        <pt x="510" y="505" on="0"/>
        <pt x="510" y="561" on="1"/>
      </contour>
    </TTGlyph>
    <TTGlyph name="C" xMin="53" yMin="-30" xMax="724" yMax="708">
      <contour>
        <pt x="716" y="556" on="1"/>
        <pt x="700" y="515" on="0"/>
        <pt x="613" y="459" on="0"/>
        <pt x="566" y="459" on="1"/>
        <pt x="544" y="459" on="0"/>
        <pt x="516" y="478" on="0"/>
        <pt x="516" y="508" on="0"/>
        <pt x="528" y="525" on="1"/>
        <pt x="539" y="521" on="0"/>
        <pt x="553" y="521" on="1"/>
        <pt x="592" y="521" on="0"/>
        <pt x="658" y="575" on="0"/>
        <pt x="658" y="613" on="1"/>
        <pt x="658" y="671" on="0"/>
        <pt x="581" y="671" on="1"/>
        <pt x="479" y="671" on="0"/>
        <pt x="285" y="531" on="0"/>
        <pt x="166" y="308" on="0"/>
        <pt x="166" y="193" on="1"/>
        <pt x="166" y="15" on="0"/>
        <pt x="328" y="15" on="1"/>
        <pt x="429" y="15" on="0"/>
        <pt x="655" y="171" on="0"/>
        <pt x="692" y="262" on="1"/>
        <pt x="711" y="249" on="0"/>
        <pt x="711" y="227" on="1"/>
        <pt x="711" y="182" on="0"/>
        <pt x="583" y="49" on="0"/>
        <pt x="389" y="-30" on="0"/>
        <pt x="288" y="-30" on="1"/>
        <pt x="53" y="-30" on="0"/>
        <pt x="53" y="189" on="1"/>
        <pt x="53" y="272" on="0"/>
        <pt x="127" y="453" on="0"/>
        <pt x="253" y="608" on="0"/>
        <pt x="442" y="708" on="0"/>
        <pt x="626" y="708" on="0"/>
        <pt x="724" y="645" on="0"/>
        <pt x="724" y="596" on="1"/>
        <pt x="724" y="578" on="0"/>
      </contour>
    </TTGlyph>
    <TTGlyph name="Ccedilla" xMin="3" yMin="-300" xMax="674" yMax="708">
      <contour>
        <pt x="666" y="556" on="1"/>
        <pt x="650" y="515" on="0"/>
        <pt x="563" y="459" on="0"/>
        <pt x="516" y="459" on="1"/>
        <pt x="494" y="459" on="0"/>
        <pt x="466" y="478" on="0"/>
        <pt x="466" y="508" on="0"/>
        <pt x="478" y="525" on="1"/>
        <pt x="489" y="521" on="0"/>
        <pt x="503" y="521" on="1"/>
        <pt x="542" y="521" on="0"/>
        <pt x="608" y="575" on="0"/>
        <pt x="608" y="613" on="1"/>
        <pt x="608" y="671" on="0"/>
        <pt x="531" y="671" on="1"/>
        <pt x="429" y="671" on="0"/>
        <pt x="235" y="531" on="0"/>
        <pt x="116" y="308" on="0"/>
        <pt x="116" y="193" on="1"/>
        <pt x="116" y="15" on="0"/>
        <pt x="278" y="15" on="1"/>
        <pt x="379" y="15" on="0"/>
        <pt x="605" y="171" on="0"/>
        <pt x="642" y="262" on="1"/>
        <pt x="661" y="249" on="0"/>
        <pt x="661" y="227" on="1"/>
        <pt x="661" y="182" on="0"/>
        <pt x="533" y="49" on="0"/>
        <pt x="339" y="-30" on="0"/>
        <pt x="238" y="-30" on="1"/>
        <pt x="3" y="-30" on="0"/>
        <pt x="3" y="189" on="1"/>
        <pt x="3" y="272" on="0"/>
        <pt x="77" y="453" on="0"/>
        <pt x="203" y="608" on="0"/>
        <pt x="392" y="708" on="0"/>
        <pt x="576" y="708" on="0"/>
        <pt x="674" y="645" on="0"/>
        <pt x="674" y="596" on="1"/>
        <pt x="674" y="578" on="0"/>
      </contour>
      <contour>
        <pt x="213" y="-90" on="1"/>
        <pt x="212" y="-94" on="0"/>
        <pt x="195" y="-92" on="0"/>
        <pt x="189" y="-92" on="1"/>
        <pt x="154" y="-92" on="0"/>
        <pt x="90" y="-184" on="0"/>
        <pt x="90" y="-276" on="0"/>
        <pt x="130" y="-276" on="1"/>
        <pt x="167" y="-276" on="0"/>
        <pt x="203" y="-238" on="1"/>
        <pt x="205" y="-236" on="0"/>
        <pt x="210" y="-236" on="0"/>
        <pt x="210" y="-243" on="1"/>
        <pt x="210" y="-267" on="0"/>
        <pt x="147" y="-300" on="0"/>
        <pt x="74" y="-300" on="0"/>
        <pt x="38" y="-259" on="0"/>
        <pt x="38" y="-226" on="1"/>
        <pt x="38" y="-161" on="0"/>
        <pt x="123" y="-74" on="0"/>
        <pt x="186" y="-74" on="1"/>
        <pt x="190" y="-74" on="1"/>
        <pt x="210" y="-28" on="1"/>
        <pt x="211" y="-24" on="0"/>
        <pt x="232" y="-24" on="0"/>
        <pt x="232" y="-27" on="1"/>
      </contour>
    </TTGlyph>
    <TTGlyph name="D" xMin="-20" yMin="-20" xMax="728" yMax="698">
      <contour>
        <pt x="723" y="358" on="1"/>
        <pt x="704" y="240" on="0"/>
        <pt x="564" y="66" on="0"/>
        <pt x="364" y="-20" on="0"/>
        <pt x="247" y="-20" on="1"/>
        <pt x="30" y="-20" on="0"/>
        <pt x="30" y="91" on="1"/>
        <pt x="30" y="211" on="0"/>
        <pt x="242" y="630" on="1"/>
        <pt x="252" y="650" on="0"/>
        <pt x="257" y="658" on="1"/>
        <pt x="178" y="652" on="0"/>
        <pt x="14" y="594" on="0"/>
        <pt x="-11" y="551" on="1"/>
        <pt x="-12" y="548" on="0"/>
        <pt x="-20" y="548" on="0"/>
        <pt x="-20" y="559" on="0"/>
        <pt x="-19" y="561" on="1"/>
        <pt x="19" y="665" on="0"/>
        <pt x="120" y="688" on="1"/>
        <pt x="166" y="698" on="0"/>
        <pt x="243" y="698" on="1"/>
        <pt x="448" y="698" on="1"/>
        <pt x="590" y="698" on="0"/>
        <pt x="728" y="544" on="0"/>
        <pt x="728" y="425" on="1"/>
        <pt x="728" y="396" on="0"/>
      </contour>
      <contour>
        <pt x="618" y="350" on="1"/>
        <pt x="629" y="396" on="0"/>
        <pt x="629" y="438" on="1"/>
        <pt x="629" y="535" on="0"/>
        <pt x="572" y="599" on="1"/>
        <pt x="540" y="634" on="0"/>
        <pt x="429" y="667" on="0"/>
        <pt x="381" y="667" on="1"/>
        <pt x="333" y="604" on="0"/>
        <pt x="200" y="315" on="0"/>
        <pt x="159" y="187" on="1"/>
        <pt x="138" y="124" on="0"/>
        <pt x="138" y="47" on="0"/>
        <pt x="178" y="23" on="0"/>
        <pt x="229" y="23" on="1"/>
        <pt x="368" y="23" on="0"/>
        <pt x="586" y="210" on="0"/>
      </contour>
    </TTGlyph>
    <TTGlyph name="E" xMin="-20" yMin="0" xMax="588" yMax="703">
      <contour>
        <pt x="441" y="698" on="1"/>
        <pt x="550" y="703" on="1"/>
        <pt x="581" y="703" on="0"/>
        <pt x="588" y="678" on="0"/>
        <pt x="588" y="672" on="1"/>
        <pt x="588" y="637" on="0"/>
        <pt x="539" y="530" on="0"/>
        <pt x="518" y="530" on="0"/>
        <pt x="518" y="538" on="1"/>
        <pt x="526" y="598" on="1"/>
        <pt x="526" y="629" on="0"/>
        <pt x="476" y="665" on="0"/>
        <pt x="406" y="665" on="0"/>
        <pt x="372" y="655" on="0"/>
        <pt x="362" y="639" on="1"/>
        <pt x="289" y="530" on="0"/>
        <pt x="229" y="391" on="1"/>
        <pt x="490" y="391" on="1"/>
        <pt x="491" y="390" on="1"/>
        <pt x="491" y="383" on="0"/>
        <pt x="463" y="342" on="0"/>
        <pt x="454" y="342" on="1"/>
        <pt x="207" y="342" on="1"/>
        <pt x="180" y="276" on="0"/>
        <pt x="128" y="112" on="0"/>
        <pt x="128" y="59" on="0"/>
        <pt x="160" y="34" on="0"/>
        <pt x="198" y="34" on="1"/>
        <pt x="490" y="34" on="0"/>
        <pt x="544" y="148" on="1"/>
        <pt x="546" y="151" on="0"/>
        <pt x="557" y="151" on="0"/>
        <pt x="557" y="139" on="0"/>
        <pt x="555" y="129" on="1"/>
        <pt x="527" y="42" on="0"/>
        <pt x="472" y="19" on="1"/>
        <pt x="443" y="7" on="0"/>
        <pt x="392" y="0" on="0"/>
        <pt x="352" y="0" on="1"/>
        <pt x="50" y="0" on="1"/>
        <pt x="19" y="0" on="0"/>
        <pt x="19" y="47" on="1"/>
        <pt x="19" y="128" on="0"/>
        <pt x="108" y="342" on="1"/>
        <pt x="53" y="342" on="1"/>
        <pt x="45" y="342" on="0"/>
        <pt x="45" y="347" on="1"/>
        <pt x="45" y="357" on="0"/>
        <pt x="83" y="391" on="0"/>
        <pt x="95" y="391" on="1"/>
        <pt x="129" y="391" on="1"/>
        <pt x="221" y="612" on="0"/>
        <pt x="262" y="660" on="1"/>
        <pt x="168" y="648" on="0"/>
        <pt x="13" y="592" on="0"/>
        <pt x="-11" y="551" on="1"/>
        <pt x="-12" y="548" on="0"/>
        <pt x="-20" y="548" on="0"/>
        <pt x="-20" y="559" on="0"/>
        <pt x="-19" y="561" on="1"/>
        <pt x="19" y="665" on="0"/>
        <pt x="120" y="688" on="1"/>
        <pt x="166" y="698" on="0"/>
        <pt x="243" y="698" on="1"/>
      </contour>
    </TTGlyph>
    <TTGlyph name="Eacute" xMin="10" yMin="0" xMax="618" yMax="841">
      <contour>
        <pt x="471" y="698" on="1"/>
        <pt x="580" y="703" on="1"/>
        <pt x="611" y="703" on="0"/>
        <pt x="618" y="678" on="0"/>
        <pt x="618" y="672" on="1"/>
        <pt x="618" y="637" on="0"/>
        <pt x="569" y="530" on="0"/>
        <pt x="548" y="530" on="0"/>
        <pt x="548" y="538" on="1"/>
        <pt x="556" y="598" on="1"/>
        <pt x="556" y="629" on="0"/>
        <pt x="506" y="665" on="0"/>
        <pt x="436" y="665" on="0"/>
        <pt x="402" y="655" on="0"/>
        <pt x="392" y="639" on="1"/>
        <pt x="319" y="530" on="0"/>
        <pt x="259" y="391" on="1"/>
        <pt x="520" y="391" on="1"/>
        <pt x="521" y="390" on="1"/>
        <pt x="521" y="383" on="0"/>
        <pt x="493" y="342" on="0"/>
        <pt x="484" y="342" on="1"/>
        <pt x="237" y="342" on="1"/>
        <pt x="210" y="276" on="0"/>
        <pt x="158" y="112" on="0"/>
        <pt x="158" y="59" on="0"/>
        <pt x="190" y="34" on="0"/>
        <pt x="228" y="34" on="1"/>
        <pt x="520" y="34" on="0"/>
        <pt x="574" y="148" on="1"/>
        <pt x="576" y="151" on="0"/>
        <pt x="587" y="151" on="0"/>
        <pt x="587" y="139" on="0"/>
        <pt x="585" y="129" on="1"/>
        <pt x="557" y="42" on="0"/>
        <pt x="502" y="19" on="1"/>
        <pt x="473" y="7" on="0"/>
        <pt x="422" y="0" on="0"/>
        <pt x="382" y="0" on="1"/>
        <pt x="80" y="0" on="1"/>
        <pt x="49" y="0" on="0"/>
        <pt x="49" y="47" on="1"/>
        <pt x="49" y="128" on="0"/>
        <pt x="138" y="342" on="1"/>
        <pt x="83" y="342" on="1"/>
        <pt x="75" y="342" on="0"/>
        <pt x="75" y="347" on="1"/>
        <pt x="75" y="357" on="0"/>
        <pt x="113" y="391" on="0"/>
        <pt x="125" y="391" on="1"/>
        <pt x="159" y="391" on="1"/>
        <pt x="251" y="612" on="0"/>
        <pt x="292" y="660" on="1"/>
        <pt x="198" y="648" on="0"/>
        <pt x="43" y="592" on="0"/>
        <pt x="19" y="551" on="1"/>
        <pt x="18" y="548" on="0"/>
        <pt x="10" y="548" on="0"/>
        <pt x="10" y="559" on="0"/>
        <pt x="11" y="561" on="1"/>
        <pt x="49" y="665" on="0"/>
        <pt x="150" y="688" on="1"/>
        <pt x="196" y="698" on="0"/>
        <pt x="273" y="698" on="1"/>
      </contour>
      <contour>
        <pt x="562" y="810" on="1"/>
        <pt x="522" y="793" on="0"/>
        <pt x="390" y="726" on="0"/>
        <pt x="384" y="726" on="0"/>
        <pt x="365" y="736" on="0"/>
        <pt x="365" y="738" on="1"/>
        <pt x="374" y="743" on="0"/>
        <pt x="487" y="826" on="0"/>
        <pt x="505" y="839" on="1"/>
        <pt x="509" y="841" on="0"/>
        <pt x="525" y="841" on="0"/>
        <pt x="564" y="819" on="0"/>
        <pt x="564" y="813" on="1"/>
        <pt x="564" y="811" on="0"/>
      </contour>
    </TTGlyph>
    <TTGlyph name="Ecircumflex" xMin="10" yMin="0" xMax="618" yMax="885">
      <contour>
        <pt x="471" y="698" on="1"/>
        <pt x="580" y="703" on="1"/>
        <pt x="611" y="703" on="0"/>
        <pt x="618" y="678" on="0"/>
        <pt x="618" y="672" on="1"/>
        <pt x="618" y="637" on="0"/>
        <pt x="569" y="530" on="0"/>
        <pt x="548" y="530" on="0"/>
        <pt x="548" y="538" on="1"/>
        <pt x="556" y="598" on="1"/>
        <pt x="556" y="629" on="0"/>
        <pt x="506" y="665" on="0"/>
        <pt x="436" y="665" on="0"/>
        <pt x="402" y="655" on="0"/>
        <pt x="392" y="639" on="1"/>
        <pt x="319" y="530" on="0"/>
        <pt x="259" y="391" on="1"/>
        <pt x="520" y="391" on="1"/>
        <pt x="521" y="390" on="1"/>
        <pt x="521" y="383" on="0"/>
        <pt x="493" y="342" on="0"/>
        <pt x="484" y="342" on="1"/>
        <pt x="237" y="342" on="1"/>
        <pt x="210" y="276" on="0"/>
        <pt x="158" y="112" on="0"/>
        <pt x="158" y="59" on="0"/>
        <pt x="190" y="34" on="0"/>
        <pt x="228" y="34" on="1"/>
        <pt x="520" y="34" on="0"/>
        <pt x="574" y="148" on="1"/>
        <pt x="576" y="151" on="0"/>
        <pt x="587" y="151" on="0"/>
        <pt x="587" y="139" on="0"/>
        <pt x="585" y="129" on="1"/>
        <pt x="557" y="42" on="0"/>
        <pt x="502" y="19" on="1"/>
        <pt x="473" y="7" on="0"/>
        <pt x="422" y="0" on="0"/>
        <pt x="382" y="0" on="1"/>
        <pt x="80" y="0" on="1"/>
        <pt x="49" y="0" on="0"/>
        <pt x="49" y="47" on="1"/>
        <pt x="49" y="128" on="0"/>
        <pt x="138" y="342" on="1"/>
        <pt x="83" y="342" on="1"/>
        <pt x="75" y="342" on="0"/>
        <pt x="75" y="347" on="1"/>
        <pt x="75" y="357" on="0"/>
        <pt x="113" y="391" on="0"/>
        <pt x="125" y="391" on="1"/>
        <pt x="159" y="391" on="1"/>
        <pt x="251" y="612" on="0"/>
        <pt x="292" y="660" on="1"/>
        <pt x="198" y="648" on="0"/>
        <pt x="43" y="592" on="0"/>
        <pt x="19" y="551" on="1"/>
        <pt x="18" y="548" on="0"/>
        <pt x="10" y="548" on="0"/>
        <pt x="10" y="559" on="0"/>
        <pt x="11" y="561" on="1"/>
        <pt x="49" y="665" on="0"/>
        <pt x="150" y="688" on="1"/>
        <pt x="196" y="698" on="0"/>
        <pt x="273" y="698" on="1"/>
      </contour>
      <contour>
        <pt x="583" y="758" on="1"/>
        <pt x="583" y="757" on="1"/>
        <pt x="583" y="754" on="0"/>
        <pt x="554" y="738" on="0"/>
        <pt x="546" y="738" on="1"/>
        <pt x="532" y="738" on="0"/>
        <pt x="483" y="810" on="0"/>
        <pt x="471" y="837" on="1"/>
        <pt x="438" y="805" on="0"/>
        <pt x="357" y="742" on="0"/>
        <pt x="325" y="742" on="0"/>
        <pt x="325" y="745" on="1"/>
        <pt x="325" y="746" on="1"/>
        <pt x="421" y="824" on="0"/>
        <pt x="471" y="876" on="1"/>
        <pt x="479" y="885" on="0"/>
        <pt x="496" y="885" on="0"/>
        <pt x="527" y="840" on="0"/>
        <pt x="571" y="773" on="0"/>
      </contour>
    </TTGlyph>
    <TTGlyph name="Edieresis" xMin="10" yMin="0" xMax="618" yMax="863">
      <contour>
        <pt x="471" y="698" on="1"/>
        <pt x="580" y="703" on="1"/>
        <pt x="611" y="703" on="0"/>
        <pt x="618" y="678" on="0"/>
        <pt x="618" y="672" on="1"/>
        <pt x="618" y="637" on="0"/>
        <pt x="569" y="530" on="0"/>
        <pt x="548" y="530" on="0"/>
        <pt x="548" y="538" on="1"/>
        <pt x="556" y="598" on="1"/>
        <pt x="556" y="629" on="0"/>
        <pt x="506" y="665" on="0"/>
        <pt x="436" y="665" on="0"/>
        <pt x="402" y="655" on="0"/>
        <pt x="392" y="639" on="1"/>
        <pt x="319" y="530" on="0"/>
        <pt x="259" y="391" on="1"/>
        <pt x="520" y="391" on="1"/>
        <pt x="521" y="390" on="1"/>
        <pt x="521" y="383" on="0"/>
        <pt x="493" y="342" on="0"/>
        <pt x="484" y="342" on="1"/>
        <pt x="237" y="342" on="1"/>
        <pt x="210" y="276" on="0"/>
        <pt x="158" y="112" on="0"/>
        <pt x="158" y="59" on="0"/>
        <pt x="190" y="34" on="0"/>
        <pt x="228" y="34" on="1"/>
        <pt x="520" y="34" on="0"/>
        <pt x="574" y="148" on="1"/>
        <pt x="576" y="151" on="0"/>
        <pt x="587" y="151" on="0"/>
        <pt x="587" y="139" on="0"/>
        <pt x="585" y="129" on="1"/>
        <pt x="557" y="42" on="0"/>
        <pt x="502" y="19" on="1"/>
        <pt x="473" y="7" on="0"/>
        <pt x="422" y="0" on="0"/>
        <pt x="382" y="0" on="1"/>
        <pt x="80" y="0" on="1"/>
        <pt x="49" y="0" on="0"/>
        <pt x="49" y="47" on="1"/>
        <pt x="49" y="128" on="0"/>
        <pt x="138" y="342" on="1"/>
        <pt x="83" y="342" on="1"/>
        <pt x="75" y="342" on="0"/>
        <pt x="75" y="347" on="1"/>
        <pt x="75" y="357" on="0"/>
        <pt x="113" y="391" on="0"/>
        <pt x="125" y="391" on="1"/>
        <pt x="159" y="391" on="1"/>
        <pt x="251" y="612" on="0"/>
        <pt x="292" y="660" on="1"/>
        <pt x="198" y="648" on="0"/>
        <pt x="43" y="592" on="0"/>
        <pt x="19" y="551" on="1"/>
        <pt x="18" y="548" on="0"/>
        <pt x="10" y="548" on="0"/>
        <pt x="10" y="559" on="0"/>
        <pt x="11" y="561" on="1"/>
        <pt x="49" y="665" on="0"/>
        <pt x="150" y="688" on="1"/>
        <pt x="196" y="698" on="0"/>
        <pt x="273" y="698" on="1"/>
      </contour>
      <contour>
        <pt x="600" y="809" on="1"/>
        <pt x="580" y="804" on="0"/>
        <pt x="537" y="759" on="0"/>
        <pt x="526" y="759" on="1"/>
        <pt x="505" y="759" on="0"/>
        <pt x="505" y="793" on="0"/>
        <pt x="554" y="863" on="0"/>
        <pt x="575" y="863" on="1"/>
        <pt x="586" y="863" on="0"/>
        <pt x="606" y="833" on="0"/>
        <pt x="606" y="810" on="0"/>
      </contour>
      <contour>
        <pt x="413" y="809" on="1"/>
        <pt x="393" y="804" on="0"/>
        <pt x="350" y="759" on="0"/>
        <pt x="339" y="759" on="1"/>
        <pt x="318" y="759" on="0"/>
        <pt x="318" y="793" on="0"/>
        <pt x="367" y="863" on="0"/>
        <pt x="388" y="863" on="1"/>
        <pt x="399" y="863" on="0"/>
        <pt x="419" y="833" on="0"/>
        <pt x="419" y="810" on="0"/>
      </contour>
    </TTGlyph>
    <TTGlyph name="Egrave" xMin="10" yMin="0" xMax="618" yMax="846">
      <contour>
        <pt x="471" y="698" on="1"/>
        <pt x="580" y="703" on="1"/>
        <pt x="611" y="703" on="0"/>
        <pt x="618" y="678" on="0"/>
        <pt x="618" y="672" on="1"/>
        <pt x="618" y="637" on="0"/>
        <pt x="569" y="530" on="0"/>
        <pt x="548" y="530" on="0"/>
        <pt x="548" y="538" on="1"/>
        <pt x="556" y="598" on="1"/>
        <pt x="556" y="629" on="0"/>
        <pt x="506" y="665" on="0"/>
        <pt x="436" y="665" on="0"/>
        <pt x="402" y="655" on="0"/>
        <pt x="392" y="639" on="1"/>
        <pt x="319" y="530" on="0"/>
        <pt x="259" y="391" on="1"/>
        <pt x="520" y="391" on="1"/>
        <pt x="521" y="390" on="1"/>
        <pt x="521" y="383" on="0"/>
        <pt x="493" y="342" on="0"/>
        <pt x="484" y="342" on="1"/>
        <pt x="237" y="342" on="1"/>
        <pt x="210" y="276" on="0"/>
        <pt x="158" y="112" on="0"/>
        <pt x="158" y="59" on="0"/>
        <pt x="190" y="34" on="0"/>
        <pt x="228" y="34" on="1"/>
        <pt x="520" y="34" on="0"/>
        <pt x="574" y="148" on="1"/>
        <pt x="576" y="151" on="0"/>
        <pt x="587" y="151" on="0"/>
        <pt x="587" y="139" on="0"/>
        <pt x="585" y="129" on="1"/>
        <pt x="557" y="42" on="0"/>
        <pt x="502" y="19" on="1"/>
        <pt x="473" y="7" on="0"/>
        <pt x="422" y="0" on="0"/>
        <pt x="382" y="0" on="1"/>
        <pt x="80" y="0" on="1"/>
        <pt x="49" y="0" on="0"/>
        <pt x="49" y="47" on="1"/>
        <pt x="49" y="128" on="0"/>
        <pt x="138" y="342" on="1"/>
        <pt x="83" y="342" on="1"/>
        <pt x="75" y="342" on="0"/>
        <pt x="75" y="347" on="1"/>
        <pt x="75" y="357" on="0"/>
        <pt x="113" y="391" on="0"/>
        <pt x="125" y="391" on="1"/>
        <pt x="159" y="391" on="1"/>
        <pt x="251" y="612" on="0"/>
        <pt x="292" y="660" on="1"/>
        <pt x="198" y="648" on="0"/>
        <pt x="43" y="592" on="0"/>
        <pt x="19" y="551" on="1"/>
        <pt x="18" y="548" on="0"/>
        <pt x="10" y="548" on="0"/>
        <pt x="10" y="559" on="0"/>
        <pt x="11" y="561" on="1"/>
        <pt x="49" y="665" on="0"/>
        <pt x="150" y="688" on="1"/>
        <pt x="196" y="698" on="0"/>
        <pt x="273" y="698" on="1"/>
      </contour>
      <contour>
        <pt x="389" y="780" on="1"/>
        <pt x="346" y="802" on="0"/>
        <pt x="313" y="816" on="0"/>
        <pt x="313" y="818" on="1"/>
        <pt x="313" y="824" on="0"/>
        <pt x="353" y="846" on="0"/>
        <pt x="369" y="846" on="0"/>
        <pt x="373" y="844" on="1"/>
        <pt x="391" y="831" on="0"/>
        <pt x="426" y="806" on="1"/>
        <pt x="483" y="763" on="1"/>
        <pt x="506" y="746" on="0"/>
        <pt x="513" y="743" on="1"/>
        <pt x="513" y="740" on="0"/>
        <pt x="493" y="731" on="0"/>
        <pt x="488" y="731" on="0"/>
        <pt x="460" y="745" on="1"/>
      </contour>
    </TTGlyph>
    <TTGlyph name="Eth" xMin="0" yMin="-20" xMax="748" yMax="698">
      <contour>
        <pt x="743" y="358" on="1"/>
        <pt x="724" y="240" on="0"/>
        <pt x="584" y="66" on="0"/>
        <pt x="384" y="-20" on="0"/>
        <pt x="267" y="-20" on="1"/>
        <pt x="50" y="-20" on="0"/>
        <pt x="50" y="91" on="1"/>
        <pt x="50" y="136" on="0"/>
        <pt x="73" y="205" on="0"/>
        <pt x="77" y="216" on="1"/>
        <pt x="92" y="261" on="0"/>
        <pt x="107" y="290" on="1"/>
        <pt x="8" y="290" on="1"/>
        <pt x="7" y="290" on="0"/>
        <pt x="7" y="301" on="0"/>
        <pt x="35" y="345" on="0"/>
        <pt x="44" y="345" on="1"/>
        <pt x="129" y="345" on="1"/>
        <pt x="187" y="483" on="0"/>
        <pt x="274" y="654" on="0"/>
        <pt x="277" y="658" on="1"/>
        <pt x="198" y="652" on="0"/>
        <pt x="34" y="594" on="0"/>
        <pt x="9" y="551" on="1"/>
        <pt x="8" y="548" on="0"/>
        <pt x="0" y="548" on="0"/>
        <pt x="0" y="559" on="0"/>
        <pt x="1" y="561" on="1"/>
        <pt x="39" y="665" on="0"/>
        <pt x="140" y="688" on="1"/>
        <pt x="186" y="698" on="0"/>
        <pt x="263" y="698" on="1"/>
        <pt x="468" y="698" on="1"/>
        <pt x="610" y="698" on="0"/>
        <pt x="748" y="544" on="0"/>
        <pt x="748" y="425" on="1"/>
        <pt x="748" y="396" on="0"/>
      </contour>
      <contour>
        <pt x="638" y="350" on="1"/>
        <pt x="649" y="396" on="0"/>
        <pt x="649" y="438" on="1"/>
        <pt x="649" y="535" on="0"/>
        <pt x="592" y="599" on="1"/>
        <pt x="560" y="634" on="0"/>
        <pt x="449" y="667" on="0"/>
        <pt x="401" y="667" on="1"/>
        <pt x="328" y="570" on="0"/>
        <pt x="236" y="345" on="1"/>
        <pt x="353" y="345" on="1"/>
        <pt x="354" y="345" on="0"/>
        <pt x="354" y="334" on="0"/>
        <pt x="326" y="290" on="0"/>
        <pt x="317" y="290" on="1"/>
        <pt x="215" y="290" on="1"/>
        <pt x="213" y="284" on="0"/>
        <pt x="198" y="248" on="0"/>
        <pt x="192" y="232" on="0"/>
        <pt x="180" y="198" on="0"/>
        <pt x="174" y="179" on="0"/>
        <pt x="165" y="148" on="0"/>
        <pt x="163" y="136" on="1"/>
        <pt x="158" y="108" on="0"/>
        <pt x="158" y="47" on="0"/>
        <pt x="198" y="23" on="0"/>
        <pt x="249" y="23" on="1"/>
        <pt x="388" y="23" on="0"/>
        <pt x="606" y="210" on="0"/>
      </contour>
    </TTGlyph>
    <TTGlyph name="Euro" xMin="16" yMin="-15" xMax="664" yMax="609">
      <contour>
        <pt x="597" y="609" on="0"/>
        <pt x="664" y="559" on="0"/>
        <pt x="664" y="485" on="0"/>
        <pt x="614" y="432" on="0"/>
        <pt x="583" y="432" on="1"/>
        <pt x="537" y="432" on="0"/>
        <pt x="537" y="467" on="1"/>
        <pt x="537" y="470" on="0"/>
        <pt x="539" y="480" on="1"/>
        <pt x="560" y="480" on="0"/>
        <pt x="591" y="512" on="0"/>
        <pt x="591" y="552" on="0"/>
        <pt x="549" y="575" on="0"/>
        <pt x="523" y="575" on="1"/>
        <pt x="445" y="575" on="0"/>
        <pt x="306" y="457" on="0"/>
        <pt x="265" y="378" on="1"/>
        <pt x="490" y="378" on="1"/>
        <pt x="492" y="378" on="0"/>
        <pt x="492" y="368" on="0"/>
        <pt x="473" y="342" on="0"/>
        <pt x="464" y="342" on="1"/>
        <pt x="248" y="342" on="1"/>
        <pt x="239" y="321" on="1"/>
        <pt x="229" y="298" on="0"/>
        <pt x="222" y="267" on="1"/>
        <pt x="435" y="267" on="1"/>
        <pt x="437" y="267" on="0"/>
        <pt x="437" y="257" on="0"/>
        <pt x="418" y="231" on="0"/>
        <pt x="409" y="231" on="1"/>
        <pt x="214" y="231" on="1"/>
        <pt x="210" y="208" on="0"/>
        <pt x="210" y="181" on="1"/>
        <pt x="210" y="117" on="0"/>
        <pt x="272" y="39" on="0"/>
        <pt x="397" y="39" on="0"/>
        <pt x="556" y="112" on="0"/>
        <pt x="596" y="160" on="1"/>
        <pt x="602" y="166" on="0"/>
        <pt x="606" y="166" on="0"/>
        <pt x="606" y="160" on="1"/>
        <pt x="606" y="133" on="0"/>
        <pt x="593" y="118" on="1"/>
        <pt x="539" y="50" on="0"/>
        <pt x="370" y="-15" on="0"/>
        <pt x="183" y="-15" on="0"/>
        <pt x="85" y="80" on="0"/>
        <pt x="85" y="162" on="1"/>
        <pt x="85" y="193" on="0"/>
        <pt x="93" y="231" on="1"/>
        <pt x="22" y="231" on="1"/>
        <pt x="16" y="231" on="0"/>
        <pt x="16" y="246" on="0"/>
        <pt x="27" y="267" on="0"/>
        <pt x="31" y="267" on="1"/>
        <pt x="103" y="267" on="1"/>
        <pt x="111" y="297" on="0"/>
        <pt x="133" y="342" on="1"/>
        <pt x="77" y="342" on="1"/>
        <pt x="71" y="342" on="0"/>
        <pt x="71" y="357" on="0"/>
        <pt x="82" y="378" on="0"/>
        <pt x="86" y="378" on="1"/>
        <pt x="153" y="378" on="1"/>
        <pt x="162" y="391" on="1"/>
        <pt x="227" y="485" on="0"/>
        <pt x="418" y="609" on="0"/>
        <pt x="521" y="609" on="1"/>
      </contour>
    </TTGlyph>
    <TTGlyph name="F" xMin="10" yMin="0" xMax="618" yMax="703">
      <contour>
        <pt x="471" y="698" on="1"/>
        <pt x="580" y="703" on="1"/>
        <pt x="611" y="703" on="0"/>
        <pt x="618" y="678" on="0"/>
        <pt x="618" y="672" on="1"/>
        <pt x="618" y="637" on="0"/>
        <pt x="569" y="530" on="0"/>
        <pt x="548" y="530" on="0"/>
        <pt x="548" y="538" on="1"/>
        <pt x="556" y="598" on="1"/>
        <pt x="556" y="628" on="0"/>
        <pt x="499" y="665" on="0"/>
        <pt x="429" y="665" on="0"/>
        <pt x="396" y="655" on="0"/>
        <pt x="385" y="639" on="1"/>
        <pt x="338" y="572" on="0"/>
        <pt x="261" y="391" on="1"/>
        <pt x="483" y="391" on="1"/>
        <pt x="484" y="390" on="1"/>
        <pt x="484" y="383" on="0"/>
        <pt x="456" y="342" on="0"/>
        <pt x="447" y="342" on="1"/>
        <pt x="240" y="342" on="1"/>
        <pt x="143" y="106" on="0"/>
        <pt x="143" y="22" on="1"/>
        <pt x="143" y="7" on="0"/>
        <pt x="147" y="0" on="1"/>
        <pt x="18" y="0" on="1"/>
        <pt x="45" y="114" on="0"/>
        <pt x="138" y="342" on="1"/>
        <pt x="83" y="342" on="1"/>
        <pt x="75" y="342" on="0"/>
        <pt x="75" y="347" on="1"/>
        <pt x="75" y="357" on="0"/>
        <pt x="113" y="391" on="0"/>
        <pt x="125" y="391" on="1"/>
        <pt x="159" y="391" on="1"/>
        <pt x="244" y="592" on="0"/>
        <pt x="290" y="660" on="1"/>
        <pt x="64" y="628" on="0"/>
        <pt x="19" y="551" on="1"/>
        <pt x="18" y="548" on="0"/>
        <pt x="10" y="548" on="0"/>
        <pt x="10" y="559" on="0"/>
        <pt x="11" y="561" on="1"/>
        <pt x="49" y="665" on="0"/>
        <pt x="150" y="688" on="1"/>
        <pt x="196" y="698" on="0"/>
        <pt x="273" y="698" on="1"/>
      </contour>
    </TTGlyph>
    <TTGlyph name="G" xMin="51" yMin="-38" xMax="792" yMax="708">
      <contour>
        <pt x="792" y="313" on="1"/>
        <pt x="785" y="277" on="0"/>
        <pt x="751" y="243" on="0"/>
        <pt x="722" y="238" on="1"/>
        <pt x="620" y="-38" on="0"/>
        <pt x="323" y="-38" on="1"/>
        <pt x="192" y="-38" on="0"/>
        <pt x="51" y="85" on="0"/>
        <pt x="51" y="196" on="1"/>
        <pt x="51" y="280" on="0"/>
        <pt x="129" y="461" on="0"/>
        <pt x="258" y="611" on="0"/>
        <pt x="446" y="708" on="0"/>
        <pt x="626" y="708" on="0"/>
        <pt x="724" y="645" on="0"/>
        <pt x="724" y="542" on="0"/>
        <pt x="626" y="459" on="0"/>
        <pt x="566" y="459" on="1"/>
        <pt x="544" y="459" on="0"/>
        <pt x="516" y="478" on="0"/>
        <pt x="516" y="508" on="0"/>
        <pt x="528" y="525" on="1"/>
        <pt x="539" y="521" on="0"/>
        <pt x="553" y="521" on="1"/>
        <pt x="592" y="521" on="0"/>
        <pt x="658" y="575" on="0"/>
        <pt x="658" y="613" on="1"/>
        <pt x="658" y="671" on="0"/>
        <pt x="507" y="671" on="0"/>
        <pt x="357" y="580" on="0"/>
        <pt x="245" y="439" on="0"/>
        <pt x="174" y="259" on="0"/>
        <pt x="174" y="87" on="0"/>
        <pt x="262" y="5" on="0"/>
        <pt x="335" y="5" on="1"/>
        <pt x="440" y="5" on="0"/>
        <pt x="626" y="134" on="0"/>
        <pt x="642" y="235" on="1"/>
        <pt x="463" y="235" on="0"/>
        <pt x="427" y="230" on="1"/>
        <pt x="432" y="239" on="0"/>
        <pt x="447" y="267" on="0"/>
        <pt x="486" y="313" on="0"/>
        <pt x="499" y="313" on="1"/>
      </contour>
    </TTGlyph>
    <TTGlyph name="H" xMin="44" yMin="-9" xMax="857" yMax="698">
      <contour>
        <pt x="793" y="698" on="1"/>
        <pt x="857" y="698" on="1"/>
        <pt x="807" y="659" on="0"/>
        <pt x="732" y="498" on="1"/>
        <pt x="597" y="211" on="0"/>
        <pt x="597" y="95" on="1"/>
        <pt x="597" y="36" on="0"/>
        <pt x="634" y="36" on="1"/>
        <pt x="650" y="36" on="0"/>
        <pt x="673" y="49" on="1"/>
        <pt x="674" y="49" on="1"/>
        <pt x="677" y="49" on="0"/>
        <pt x="677" y="43" on="1"/>
        <pt x="677" y="24" on="0"/>
        <pt x="576" y="-9" on="0"/>
        <pt x="545" y="-9" on="1"/>
        <pt x="484" y="-9" on="0"/>
        <pt x="484" y="56" on="1"/>
        <pt x="484" y="141" on="0"/>
        <pt x="565" y="342" on="1"/>
        <pt x="282" y="342" on="1"/>
        <pt x="249" y="265" on="0"/>
        <pt x="183" y="70" on="0"/>
        <pt x="183" y="22" on="1"/>
        <pt x="183" y="7" on="0"/>
        <pt x="187" y="0" on="1"/>
        <pt x="58" y="0" on="1"/>
        <pt x="86" y="121" on="0"/>
        <pt x="176" y="336" on="1"/>
        <pt x="296" y="622" on="0"/>
        <pt x="331" y="661" on="1"/>
        <pt x="246" y="659" on="0"/>
        <pt x="71" y="594" on="0"/>
        <pt x="57" y="549" on="1"/>
        <pt x="56" y="546" on="0"/>
        <pt x="53" y="546" on="1"/>
        <pt x="44" y="546" on="0"/>
        <pt x="44" y="559" on="1"/>
        <pt x="44" y="561" on="0"/>
        <pt x="46" y="569" on="1"/>
        <pt x="65" y="624" on="0"/>
        <pt x="137" y="684" on="0"/>
        <pt x="206" y="698" on="0"/>
        <pt x="257" y="698" on="1"/>
        <pt x="483" y="698" on="1"/>
        <pt x="415" y="646" on="0"/>
        <pt x="302" y="391" on="1"/>
        <pt x="585" y="391" on="1"/>
        <pt x="679" y="611" on="0"/>
        <pt x="718" y="668" on="1"/>
        <pt x="725" y="679" on="0"/>
        <pt x="763" y="698" on="0"/>
      </contour>
    </TTGlyph>
    <TTGlyph name="I" xMin="24" yMin="0" xMax="463" yMax="698">
      <contour>
        <pt x="237" y="698" on="1"/>
        <pt x="463" y="698" on="1"/>
        <pt x="394" y="645" on="0"/>
        <pt x="273" y="370" on="1"/>
        <pt x="242" y="300" on="0"/>
        <pt x="163" y="73" on="0"/>
        <pt x="163" y="21" on="1"/>
        <pt x="163" y="7" on="0"/>
        <pt x="167" y="0" on="1"/>
        <pt x="38" y="0" on="1"/>
        <pt x="66" y="121" on="0"/>
        <pt x="156" y="336" on="1"/>
        <pt x="276" y="622" on="0"/>
        <pt x="311" y="661" on="1"/>
        <pt x="226" y="659" on="0"/>
        <pt x="51" y="594" on="0"/>
        <pt x="37" y="549" on="1"/>
        <pt x="36" y="546" on="0"/>
        <pt x="33" y="546" on="1"/>
        <pt x="24" y="546" on="0"/>
        <pt x="24" y="559" on="1"/>
        <pt x="24" y="561" on="0"/>
        <pt x="26" y="569" on="1"/>
        <pt x="45" y="624" on="0"/>
        <pt x="117" y="684" on="0"/>
        <pt x="186" y="698" on="0"/>
      </contour>
    </TTGlyph>
    <TTGlyph name="IJ" xMin="4" yMin="-217" xMax="752" yMax="698">
      <contour>
        <pt x="98" y="-50" on="1"/>
        <pt x="97" y="-56" on="1"/>
        <pt x="97" y="-84" on="0"/>
        <pt x="126" y="-111" on="0"/>
        <pt x="147" y="-111" on="1"/>
        <pt x="198" y="-111" on="0"/>
        <pt x="301" y="14" on="0"/>
        <pt x="438" y="290" on="0"/>
        <pt x="492" y="424" on="0"/>
        <pt x="546" y="532" on="0"/>
        <pt x="624" y="640" on="0"/>
        <pt x="654" y="652" on="1"/>
        <pt x="585" y="637" on="0"/>
        <pt x="476" y="581" on="0"/>
        <pt x="465" y="549" on="1"/>
        <pt x="464" y="546" on="0"/>
        <pt x="461" y="546" on="1"/>
        <pt x="452" y="546" on="0"/>
        <pt x="452" y="559" on="1"/>
        <pt x="452" y="561" on="0"/>
        <pt x="454" y="569" on="1"/>
        <pt x="473" y="624" on="0"/>
        <pt x="545" y="684" on="0"/>
        <pt x="614" y="698" on="0"/>
        <pt x="665" y="698" on="1"/>
        <pt x="712" y="698" on="1"/>
        <pt x="752" y="697" on="1"/>
        <pt x="698" y="679" on="0"/>
        <pt x="612" y="550" on="0"/>
        <pt x="559" y="399" on="1"/>
        <pt x="527" y="291" on="0"/>
        <pt x="442" y="82" on="0"/>
        <pt x="399" y="-5" on="0"/>
        <pt x="334" y="-109" on="0"/>
        <pt x="273" y="-173" on="0"/>
        <pt x="195" y="-217" on="0"/>
        <pt x="109" y="-217" on="0"/>
        <pt x="52" y="-164" on="0"/>
        <pt x="52" y="-120" on="1"/>
        <pt x="52" y="-99" on="0"/>
        <pt x="74" y="-53" on="0"/>
      </contour>
      <contour>
        <pt x="217" y="698" on="1"/>
        <pt x="443" y="698" on="1"/>
        <pt x="374" y="645" on="0"/>
        <pt x="253" y="370" on="1"/>
        <pt x="222" y="300" on="0"/>
        <pt x="143" y="73" on="0"/>
        <pt x="143" y="21" on="1"/>
        <pt x="143" y="7" on="0"/>
        <pt x="147" y="0" on="1"/>
        <pt x="18" y="0" on="1"/>
        <pt x="46" y="121" on="0"/>
        <pt x="136" y="336" on="1"/>
        <pt x="256" y="622" on="0"/>
        <pt x="291" y="661" on="1"/>
        <pt x="206" y="659" on="0"/>
        <pt x="31" y="594" on="0"/>
        <pt x="17" y="549" on="1"/>
        <pt x="16" y="546" on="0"/>
        <pt x="13" y="546" on="1"/>
        <pt x="4" y="546" on="0"/>
        <pt x="4" y="559" on="1"/>
        <pt x="4" y="561" on="0"/>
        <pt x="6" y="569" on="1"/>
        <pt x="25" y="624" on="0"/>
        <pt x="97" y="684" on="0"/>
        <pt x="166" y="698" on="0"/>
      </contour>
    </TTGlyph>
    <TTGlyph name="Iacute" xMin="4" yMin="0" xMax="527" yMax="841">
      <contour>
        <pt x="217" y="698" on="1"/>
        <pt x="443" y="698" on="1"/>
        <pt x="374" y="645" on="0"/>
        <pt x="253" y="370" on="1"/>
        <pt x="222" y="300" on="0"/>
        <pt x="143" y="73" on="0"/>
        <pt x="143" y="21" on="1"/>
        <pt x="143" y="7" on="0"/>
        <pt x="147" y="0" on="1"/>
        <pt x="18" y="0" on="1"/>
        <pt x="46" y="121" on="0"/>
        <pt x="136" y="336" on="1"/>
        <pt x="256" y="622" on="0"/>
        <pt x="291" y="661" on="1"/>
        <pt x="206" y="659" on="0"/>
        <pt x="31" y="594" on="0"/>
        <pt x="17" y="549" on="1"/>
        <pt x="16" y="546" on="0"/>
        <pt x="13" y="546" on="1"/>
        <pt x="4" y="546" on="0"/>
        <pt x="4" y="559" on="1"/>
        <pt x="4" y="561" on="0"/>
        <pt x="6" y="569" on="1"/>
        <pt x="25" y="624" on="0"/>
        <pt x="97" y="684" on="0"/>
        <pt x="166" y="698" on="0"/>
      </contour>
      <contour>
        <pt x="525" y="810" on="1"/>
        <pt x="485" y="793" on="0"/>
        <pt x="353" y="726" on="0"/>
        <pt x="347" y="726" on="0"/>
        <pt x="328" y="736" on="0"/>
        <pt x="328" y="738" on="1"/>
        <pt x="337" y="743" on="0"/>
        <pt x="450" y="826" on="0"/>
        <pt x="468" y="839" on="1"/>
        <pt x="472" y="841" on="0"/>
        <pt x="488" y="841" on="0"/>
        <pt x="527" y="819" on="0"/>
        <pt x="527" y="813" on="1"/>
        <pt x="527" y="811" on="0"/>
      </contour>
    </TTGlyph>
    <TTGlyph name="Icircumflex" xMin="4" yMin="0" xMax="511" yMax="881">
      <contour>
        <pt x="217" y="698" on="1"/>
        <pt x="443" y="698" on="1"/>
        <pt x="374" y="645" on="0"/>
        <pt x="253" y="370" on="1"/>
        <pt x="222" y="300" on="0"/>
        <pt x="143" y="73" on="0"/>
        <pt x="143" y="21" on="1"/>
        <pt x="143" y="7" on="0"/>
        <pt x="147" y="0" on="1"/>
        <pt x="18" y="0" on="1"/>
        <pt x="46" y="121" on="0"/>
        <pt x="136" y="336" on="1"/>
        <pt x="256" y="622" on="0"/>
        <pt x="291" y="661" on="1"/>
        <pt x="206" y="659" on="0"/>
        <pt x="31" y="594" on="0"/>
        <pt x="17" y="549" on="1"/>
        <pt x="16" y="546" on="0"/>
        <pt x="13" y="546" on="1"/>
        <pt x="4" y="546" on="0"/>
        <pt x="4" y="559" on="1"/>
        <pt x="4" y="561" on="0"/>
        <pt x="6" y="569" on="1"/>
        <pt x="25" y="624" on="0"/>
        <pt x="97" y="684" on="0"/>
        <pt x="166" y="698" on="0"/>
      </contour>
      <contour>
        <pt x="511" y="754" on="1"/>
        <pt x="511" y="753" on="1"/>
        <pt x="511" y="750" on="0"/>
        <pt x="482" y="734" on="0"/>
        <pt x="474" y="734" on="1"/>
        <pt x="460" y="734" on="0"/>
        <pt x="411" y="806" on="0"/>
        <pt x="399" y="833" on="1"/>
        <pt x="366" y="801" on="0"/>
        <pt x="285" y="738" on="0"/>
        <pt x="253" y="738" on="0"/>
        <pt x="253" y="741" on="1"/>
        <pt x="253" y="742" on="1"/>
        <pt x="349" y="820" on="0"/>
        <pt x="399" y="872" on="1"/>
        <pt x="407" y="881" on="0"/>
        <pt x="424" y="881" on="0"/>
        <pt x="455" y="836" on="0"/>
        <pt x="499" y="769" on="0"/>
      </contour>
    </TTGlyph>
    <TTGlyph name="Idieresis" xMin="4" yMin="0" xMax="517" yMax="863">
      <contour>
        <pt x="217" y="698" on="1"/>
        <pt x="443" y="698" on="1"/>
        <pt x="374" y="645" on="0"/>
        <pt x="253" y="370" on="1"/>
        <pt x="222" y="300" on="0"/>
        <pt x="143" y="73" on="0"/>
        <pt x="143" y="21" on="1"/>
        <pt x="143" y="7" on="0"/>
        <pt x="147" y="0" on="1"/>
        <pt x="18" y="0" on="1"/>
        <pt x="46" y="121" on="0"/>
        <pt x="136" y="336" on="1"/>
        <pt x="256" y="622" on="0"/>
        <pt x="291" y="661" on="1"/>
        <pt x="206" y="659" on="0"/>
        <pt x="31" y="594" on="0"/>
        <pt x="17" y="549" on="1"/>
        <pt x="16" y="546" on="0"/>
        <pt x="13" y="546" on="1"/>
        <pt x="4" y="546" on="0"/>
        <pt x="4" y="559" on="1"/>
        <pt x="4" y="561" on="0"/>
        <pt x="6" y="569" on="1"/>
        <pt x="25" y="624" on="0"/>
        <pt x="97" y="684" on="0"/>
        <pt x="166" y="698" on="0"/>
      </contour>
      <contour>
        <pt x="511" y="809" on="1"/>
        <pt x="491" y="804" on="0"/>
        <pt x="448" y="759" on="0"/>
        <pt x="437" y="759" on="1"/>
        <pt x="416" y="759" on="0"/>
        <pt x="416" y="793" on="0"/>
        <pt x="465" y="863" on="0"/>
        <pt x="486" y="863" on="1"/>
        <pt x="497" y="863" on="0"/>
        <pt x="517" y="833" on="0"/>
        <pt x="517" y="810" on="0"/>
      </contour>
      <contour>
        <pt x="324" y="809" on="1"/>
        <pt x="304" y="804" on="0"/>
        <pt x="261" y="759" on="0"/>
        <pt x="250" y="759" on="1"/>
        <pt x="229" y="759" on="0"/>
        <pt x="229" y="793" on="0"/>
        <pt x="278" y="863" on="0"/>
        <pt x="299" y="863" on="1"/>
        <pt x="310" y="863" on="0"/>
        <pt x="330" y="833" on="0"/>
        <pt x="330" y="810" on="0"/>
      </contour>
    </TTGlyph>
    <TTGlyph name="Igrave" xMin="4" yMin="0" xMax="443" yMax="846">
      <contour>
        <pt x="217" y="698" on="1"/>
        <pt x="443" y="698" on="1"/>
        <pt x="374" y="645" on="0"/>
        <pt x="253" y="370" on="1"/>
        <pt x="222" y="300" on="0"/>
        <pt x="143" y="73" on="0"/>
        <pt x="143" y="21" on="1"/>
        <pt x="143" y="7" on="0"/>
        <pt x="147" y="0" on="1"/>
        <pt x="18" y="0" on="1"/>
        <pt x="46" y="121" on="0"/>
        <pt x="136" y="336" on="1"/>
        <pt x="256" y="622" on="0"/>
        <pt x="291" y="661" on="1"/>
        <pt x="206" y="659" on="0"/>
        <pt x="31" y="594" on="0"/>
        <pt x="17" y="549" on="1"/>
        <pt x="16" y="546" on="0"/>
        <pt x="13" y="546" on="1"/>
        <pt x="4" y="546" on="0"/>
        <pt x="4" y="559" on="1"/>
        <pt x="4" y="561" on="0"/>
        <pt x="6" y="569" on="1"/>
        <pt x="25" y="624" on="0"/>
        <pt x="97" y="684" on="0"/>
        <pt x="166" y="698" on="0"/>
      </contour>
      <contour>
        <pt x="311" y="780" on="1"/>
        <pt x="268" y="802" on="0"/>
        <pt x="235" y="816" on="0"/>
        <pt x="235" y="818" on="1"/>
        <pt x="235" y="824" on="0"/>
        <pt x="275" y="846" on="0"/>
        <pt x="291" y="846" on="0"/>
        <pt x="295" y="844" on="1"/>
        <pt x="313" y="831" on="0"/>
        <pt x="348" y="806" on="1"/>
        <pt x="405" y="763" on="1"/>
        <pt x="428" y="746" on="0"/>
        <pt x="435" y="743" on="1"/>
        <pt x="435" y="740" on="0"/>
        <pt x="415" y="731" on="0"/>
        <pt x="410" y="731" on="0"/>
        <pt x="382" y="745" on="1"/>
      </contour>
    </TTGlyph>
    <TTGlyph name="Itilde" xMin="4" yMin="0" xMax="524" yMax="843">
      <contour>
        <pt x="217" y="698" on="1"/>
        <pt x="443" y="698" on="1"/>
        <pt x="374" y="645" on="0"/>
        <pt x="253" y="370" on="1"/>
        <pt x="222" y="300" on="0"/>
        <pt x="143" y="73" on="0"/>
        <pt x="143" y="21" on="1"/>
        <pt x="143" y="7" on="0"/>
        <pt x="147" y="0" on="1"/>
        <pt x="18" y="0" on="1"/>
        <pt x="46" y="121" on="0"/>
        <pt x="136" y="336" on="1"/>
        <pt x="256" y="622" on="0"/>
        <pt x="291" y="661" on="1"/>
        <pt x="206" y="659" on="0"/>
        <pt x="31" y="594" on="0"/>
        <pt x="17" y="549" on="1"/>
        <pt x="16" y="546" on="0"/>
        <pt x="13" y="546" on="1"/>
        <pt x="4" y="546" on="0"/>
        <pt x="4" y="559" on="1"/>
        <pt x="4" y="561" on="0"/>
        <pt x="6" y="569" on="1"/>
        <pt x="25" y="624" on="0"/>
        <pt x="97" y="684" on="0"/>
        <pt x="166" y="698" on="0"/>
      </contour>
      <contour>
        <pt x="522" y="828" on="1"/>
        <pt x="480" y="756" on="0"/>
        <pt x="442" y="756" on="1"/>
        <pt x="419" y="756" on="0"/>
        <pt x="335" y="792" on="0"/>
        <pt x="286" y="792" on="0"/>
        <pt x="250" y="762" on="0"/>
        <pt x="249" y="762" on="1"/>
        <pt x="238" y="762" on="0"/>
        <pt x="238" y="781" on="0"/>
        <pt x="290" y="839" on="0"/>
        <pt x="339" y="839" on="0"/>
        <pt x="431" y="802" on="0"/>
        <pt x="472" y="802" on="0"/>
        <pt x="495" y="822" on="0"/>
        <pt x="509" y="843" on="0"/>
        <pt x="515" y="843" on="1"/>
        <pt x="524" y="843" on="0"/>
        <pt x="524" y="835" on="1"/>
        <pt x="524" y="832" on="0"/>
      </contour>
    </TTGlyph>
    <TTGlyph name="J" xMin="-85" yMin="-170" xMax="588" yMax="698">
      <contour>
        <pt x="-39" y="-3" on="1"/>
        <pt x="-40" y="-9" on="1"/>
        <pt x="-40" y="-37" on="0"/>
        <pt x="-11" y="-64" on="0"/>
        <pt x="10" y="-64" on="1"/>
        <pt x="131" y="-64" on="0"/>
        <pt x="304" y="364" on="1"/>
        <pt x="307" y="372" on="0"/>
        <pt x="328" y="424" on="0"/>
        <pt x="382" y="532" on="0"/>
        <pt x="461" y="641" on="0"/>
        <pt x="491" y="652" on="1"/>
        <pt x="462" y="660" on="0"/>
        <pt x="314" y="660" on="0"/>
        <pt x="131" y="596" on="0"/>
        <pt x="116" y="549" on="1"/>
        <pt x="114" y="546" on="0"/>
        <pt x="112" y="546" on="1"/>
        <pt x="103" y="546" on="0"/>
        <pt x="103" y="559" on="1"/>
        <pt x="103" y="561" on="0"/>
        <pt x="105" y="569" on="1"/>
        <pt x="124" y="624" on="0"/>
        <pt x="196" y="684" on="0"/>
        <pt x="265" y="698" on="0"/>
        <pt x="316" y="698" on="1"/>
        <pt x="363" y="698" on="1"/>
        <pt x="588" y="697" on="1"/>
        <pt x="529" y="652" on="0"/>
        <pt x="483" y="604" on="0"/>
        <pt x="433" y="505" on="0"/>
        <pt x="389" y="383" on="0"/>
        <pt x="359" y="289" on="0"/>
        <pt x="334" y="215" on="0"/>
        <pt x="291" y="105" on="0"/>
        <pt x="250" y="21" on="0"/>
        <pt x="192" y="-71" on="0"/>
        <pt x="162" y="-101" on="1"/>
        <pt x="95" y="-170" on="0"/>
        <pt x="19" y="-170" on="1"/>
        <pt x="-28" y="-170" on="0"/>
        <pt x="-85" y="-117" on="0"/>
        <pt x="-85" y="-73" on="1"/>
        <pt x="-85" y="-52" on="0"/>
        <pt x="-63" y="-6" on="0"/>
      </contour>
    </TTGlyph>
    <TTGlyph name="Jcircumflex" xMin="-85" yMin="-170" xMax="637" yMax="892">
      <contour>
        <pt x="-39" y="-3" on="1"/>
        <pt x="-40" y="-9" on="1"/>
        <pt x="-40" y="-37" on="0"/>
        <pt x="-11" y="-64" on="0"/>
        <pt x="10" y="-64" on="1"/>
        <pt x="131" y="-64" on="0"/>
        <pt x="304" y="364" on="1"/>
        <pt x="307" y="372" on="0"/>
        <pt x="328" y="424" on="0"/>
        <pt x="382" y="532" on="0"/>
        <pt x="461" y="641" on="0"/>
        <pt x="491" y="652" on="1"/>
        <pt x="462" y="660" on="0"/>
        <pt x="314" y="660" on="0"/>
        <pt x="131" y="596" on="0"/>
        <pt x="116" y="549" on="1"/>
        <pt x="114" y="546" on="0"/>
        <pt x="112" y="546" on="1"/>
        <pt x="103" y="546" on="0"/>
        <pt x="103" y="559" on="1"/>
        <pt x="103" y="561" on="0"/>
        <pt x="105" y="569" on="1"/>
        <pt x="124" y="624" on="0"/>
        <pt x="196" y="684" on="0"/>
        <pt x="265" y="698" on="0"/>
        <pt x="316" y="698" on="1"/>
        <pt x="363" y="698" on="1"/>
        <pt x="588" y="697" on="1"/>
        <pt x="529" y="652" on="0"/>
        <pt x="483" y="604" on="0"/>
        <pt x="433" y="505" on="0"/>
        <pt x="389" y="383" on="0"/>
        <pt x="359" y="289" on="0"/>
        <pt x="334" y="215" on="0"/>
        <pt x="291" y="105" on="0"/>
        <pt x="250" y="21" on="0"/>
        <pt x="192" y="-71" on="0"/>
        <pt x="162" y="-101" on="1"/>
        <pt x="95" y="-170" on="0"/>
        <pt x="19" y="-170" on="1"/>
        <pt x="-28" y="-170" on="0"/>
        <pt x="-85" y="-117" on="0"/>
        <pt x="-85" y="-73" on="1"/>
        <pt x="-85" y="-52" on="0"/>
        <pt x="-63" y="-6" on="0"/>
      </contour>
      <contour>
        <pt x="637" y="765" on="1"/>
        <pt x="637" y="764" on="1"/>
        <pt x="637" y="761" on="0"/>
        <pt x="608" y="745" on="0"/>
        <pt x="600" y="745" on="1"/>
        <pt x="586" y="745" on="0"/>
        <pt x="537" y="817" on="0"/>
        <pt x="525" y="844" on="1"/>
        <pt x="492" y="812" on="0"/>
        <pt x="411" y="749" on="0"/>
        <pt x="379" y="749" on="0"/>
        <pt x="379" y="752" on="1"/>
        <pt x="379" y="753" on="1"/>
        <pt x="475" y="831" on="0"/>
        <pt x="525" y="883" on="1"/>
        <pt x="533" y="892" on="0"/>
        <pt x="550" y="892" on="0"/>
        <pt x="581" y="847" on="0"/>
        <pt x="625" y="780" on="0"/>
      </contour>
    </TTGlyph>
    <TTGlyph name="K" xMin="39" yMin="-1" xMax="876" yMax="706">
      <contour>
        <pt x="871" y="687" on="1"/>
        <pt x="807" y="687" on="0"/>
        <pt x="514" y="503" on="0"/>
        <pt x="398" y="398" on="1"/>
        <pt x="431" y="288" on="0"/>
        <pt x="603" y="44" on="0"/>
        <pt x="667" y="2" on="1"/>
        <pt x="652" y="-1" on="0"/>
        <pt x="619" y="-1" on="1"/>
        <pt x="534" y="2" on="1"/>
        <pt x="506" y="2" on="0"/>
        <pt x="412" y="131" on="0"/>
        <pt x="339" y="289" on="0"/>
        <pt x="331" y="335" on="1"/>
        <pt x="274" y="278" on="0"/>
        <pt x="235" y="222" on="1"/>
        <pt x="219" y="199" on="0"/>
        <pt x="176" y="62" on="0"/>
        <pt x="176" y="7" on="0"/>
        <pt x="180" y="0" on="1"/>
        <pt x="51" y="0" on="1"/>
        <pt x="83" y="123" on="0"/>
        <pt x="244" y="546" on="0"/>
        <pt x="308" y="637" on="1"/>
        <pt x="308" y="638" on="0"/>
        <pt x="325" y="661" on="1"/>
        <pt x="240" y="659" on="0"/>
        <pt x="65" y="594" on="0"/>
        <pt x="51" y="549" on="1"/>
        <pt x="50" y="546" on="0"/>
        <pt x="47" y="546" on="1"/>
        <pt x="39" y="546" on="0"/>
        <pt x="39" y="559" on="1"/>
        <pt x="39" y="561" on="0"/>
        <pt x="55" y="611" on="0"/>
        <pt x="100" y="665" on="0"/>
        <pt x="130" y="678" on="1"/>
        <pt x="179" y="698" on="0"/>
        <pt x="252" y="698" on="1"/>
        <pt x="478" y="698" on="1"/>
        <pt x="428" y="660" on="0"/>
        <pt x="292" y="400" on="0"/>
        <pt x="249" y="292" on="1"/>
        <pt x="290" y="350" on="0"/>
        <pt x="427" y="491" on="0"/>
        <pt x="584" y="620" on="0"/>
        <pt x="751" y="706" on="0"/>
        <pt x="876" y="706" on="0"/>
        <pt x="876" y="692" on="1"/>
        <pt x="876" y="687" on="0"/>
      </contour>
    </TTGlyph>
    <TTGlyph name="L" xMin="-10" yMin="0" xMax="566" yMax="698">
      <contour>
        <pt x="564" y="129" on="1"/>
        <pt x="536" y="42" on="0"/>
        <pt x="482" y="19" on="1"/>
        <pt x="453" y="7" on="0"/>
        <pt x="402" y="0" on="0"/>
        <pt x="362" y="0" on="1"/>
        <pt x="59" y="0" on="1"/>
        <pt x="19" y="0" on="0"/>
        <pt x="19" y="56" on="1"/>
        <pt x="19" y="199" on="0"/>
        <pt x="258" y="630" on="1"/>
        <pt x="276" y="659" on="0"/>
        <pt x="277" y="661" on="1"/>
        <pt x="192" y="659" on="0"/>
        <pt x="17" y="594" on="0"/>
        <pt x="3" y="549" on="1"/>
        <pt x="2" y="546" on="0"/>
        <pt x="-1" y="546" on="1"/>
        <pt x="-10" y="546" on="0"/>
        <pt x="-10" y="559" on="1"/>
        <pt x="-10" y="561" on="0"/>
        <pt x="7" y="611" on="0"/>
        <pt x="53" y="665" on="0"/>
        <pt x="82" y="678" on="1"/>
        <pt x="131" y="698" on="0"/>
        <pt x="203" y="698" on="1"/>
        <pt x="430" y="698" on="1"/>
        <pt x="389" y="667" on="0"/>
        <pt x="260" y="435" on="0"/>
        <pt x="137" y="158" on="0"/>
        <pt x="137" y="99" on="1"/>
        <pt x="137" y="34" on="0"/>
        <pt x="208" y="34" on="1"/>
        <pt x="498" y="34" on="0"/>
        <pt x="554" y="148" on="1"/>
        <pt x="556" y="151" on="0"/>
        <pt x="559" y="151" on="1"/>
        <pt x="566" y="151" on="0"/>
        <pt x="566" y="141" on="1"/>
        <pt x="566" y="139" on="0"/>
      </contour>
    </TTGlyph>
    <TTGlyph name="Ldotaccent" xMin="-10" yMin="0" xMax="566" yMax="698">
      <contour>
        <pt x="564" y="129" on="1"/>
        <pt x="536" y="42" on="0"/>
        <pt x="482" y="19" on="1"/>
        <pt x="453" y="7" on="0"/>
        <pt x="402" y="0" on="0"/>
        <pt x="362" y="0" on="1"/>
        <pt x="59" y="0" on="1"/>
        <pt x="19" y="0" on="0"/>
        <pt x="19" y="56" on="1"/>
        <pt x="19" y="199" on="0"/>
        <pt x="258" y="630" on="1"/>
        <pt x="276" y="659" on="0"/>
        <pt x="277" y="661" on="1"/>
        <pt x="192" y="659" on="0"/>
        <pt x="17" y="594" on="0"/>
        <pt x="3" y="549" on="1"/>
        <pt x="2" y="546" on="0"/>
        <pt x="-1" y="546" on="1"/>
        <pt x="-10" y="546" on="0"/>
        <pt x="-10" y="559" on="1"/>
        <pt x="-10" y="561" on="0"/>
        <pt x="7" y="611" on="0"/>
        <pt x="53" y="665" on="0"/>
        <pt x="82" y="678" on="1"/>
        <pt x="131" y="698" on="0"/>
        <pt x="203" y="698" on="1"/>
        <pt x="430" y="698" on="1"/>
        <pt x="389" y="667" on="0"/>
        <pt x="260" y="435" on="0"/>
        <pt x="137" y="158" on="0"/>
        <pt x="137" y="99" on="1"/>
        <pt x="137" y="34" on="0"/>
        <pt x="208" y="34" on="1"/>
        <pt x="498" y="34" on="0"/>
        <pt x="554" y="148" on="1"/>
        <pt x="556" y="151" on="0"/>
        <pt x="559" y="151" on="1"/>
        <pt x="566" y="151" on="0"/>
        <pt x="566" y="141" on="1"/>
        <pt x="566" y="139" on="0"/>
      </contour>
      <contour>
        <pt x="450" y="323" on="1"/>
        <pt x="445" y="318" on="0"/>
        <pt x="432" y="302" on="1"/>
        <pt x="401" y="262" on="0"/>
        <pt x="396" y="262" on="1"/>
        <pt x="381" y="262" on="0"/>
        <pt x="341" y="293" on="0"/>
        <pt x="341" y="306" on="1"/>
        <pt x="341" y="328" on="0"/>
        <pt x="402" y="366" on="0"/>
        <pt x="436" y="366" on="1"/>
        <pt x="460" y="366" on="0"/>
        <pt x="460" y="344" on="1"/>
        <pt x="460" y="330" on="0"/>
      </contour>
    </TTGlyph>
    <TTGlyph name="Lslash" xMin="-16" yMin="0" xMax="586" yMax="698">
      <contour>
        <pt x="584" y="129" on="1"/>
        <pt x="556" y="42" on="0"/>
        <pt x="502" y="19" on="1"/>
        <pt x="473" y="7" on="0"/>
        <pt x="422" y="0" on="0"/>
        <pt x="382" y="0" on="1"/>
        <pt x="79" y="0" on="1"/>
        <pt x="39" y="0" on="0"/>
        <pt x="39" y="56" on="1"/>
        <pt x="39" y="199" on="0"/>
        <pt x="278" y="630" on="1"/>
        <pt x="296" y="659" on="0"/>
        <pt x="297" y="661" on="1"/>
        <pt x="212" y="659" on="0"/>
        <pt x="37" y="594" on="0"/>
        <pt x="23" y="549" on="1"/>
        <pt x="22" y="546" on="0"/>
        <pt x="19" y="546" on="1"/>
        <pt x="10" y="546" on="0"/>
        <pt x="10" y="559" on="1"/>
        <pt x="10" y="561" on="0"/>
        <pt x="27" y="611" on="0"/>
        <pt x="73" y="665" on="0"/>
        <pt x="102" y="678" on="1"/>
        <pt x="151" y="698" on="0"/>
        <pt x="223" y="698" on="1"/>
        <pt x="450" y="698" on="1"/>
        <pt x="409" y="667" on="0"/>
        <pt x="280" y="435" on="0"/>
        <pt x="157" y="158" on="0"/>
        <pt x="157" y="99" on="1"/>
        <pt x="157" y="34" on="0"/>
        <pt x="228" y="34" on="1"/>
        <pt x="518" y="34" on="0"/>
        <pt x="574" y="148" on="1"/>
        <pt x="576" y="151" on="0"/>
        <pt x="579" y="151" on="1"/>
        <pt x="586" y="151" on="0"/>
        <pt x="586" y="141" on="1"/>
        <pt x="586" y="139" on="0"/>
      </contour>
      <contour>
        <pt x="11" y="267" on="1"/>
        <pt x="323" y="267" on="1"/>
        <pt x="323" y="266" on="1"/>
        <pt x="323" y="261" on="0"/>
        <pt x="302" y="225" on="0"/>
        <pt x="297" y="225" on="1"/>
        <pt x="-15" y="225" on="1"/>
        <pt x="-16" y="225" on="0"/>
        <pt x="-16" y="231" on="0"/>
        <pt x="6" y="267" on="0"/>
      </contour>
    </TTGlyph>
    <TTGlyph name="M" xMin="38" yMin="-9" xMax="1028" yMax="698">
      <contour>
        <pt x="966" y="698" on="1"/>
        <pt x="1028" y="698" on="1"/>
        <pt x="983" y="663" on="0"/>
        <pt x="892" y="482" on="1"/>
        <pt x="757" y="210" on="0"/>
        <pt x="757" y="91" on="1"/>
        <pt x="757" y="36" on="0"/>
        <pt x="792" y="36" on="1"/>
        <pt x="808" y="36" on="0"/>
        <pt x="831" y="49" on="1"/>
        <pt x="832" y="49" on="1"/>
        <pt x="835" y="49" on="0"/>
        <pt x="835" y="44" on="1"/>
        <pt x="835" y="25" on="0"/>
        <pt x="734" y="-9" on="0"/>
        <pt x="702" y="-9" on="1"/>
        <pt x="635" y="-9" on="0"/>
        <pt x="635" y="64" on="1"/>
        <pt x="635" y="191" on="0"/>
        <pt x="839" y="577" on="1"/>
        <pt x="799" y="539" on="0"/>
        <pt x="785" y="523" on="1"/>
        <pt x="689" y="416" on="0"/>
        <pt x="499" y="169" on="1"/>
        <pt x="459" y="118" on="0"/>
        <pt x="429" y="92" on="0"/>
        <pt x="380" y="92" on="0"/>
        <pt x="348" y="107" on="1"/>
        <pt x="373" y="139" on="0"/>
        <pt x="373" y="464" on="0"/>
        <pt x="353" y="597" on="1"/>
        <pt x="317" y="530" on="0"/>
        <pt x="129" y="68" on="0"/>
        <pt x="129" y="9" on="1"/>
        <pt x="129" y="2" on="0"/>
        <pt x="130" y="0" on="1"/>
        <pt x="38" y="0" on="1"/>
        <pt x="95" y="146" on="0"/>
        <pt x="307" y="624" on="0"/>
        <pt x="330" y="669" on="1"/>
        <pt x="239" y="669" on="0"/>
        <pt x="66" y="597" on="0"/>
        <pt x="51" y="549" on="1"/>
        <pt x="50" y="546" on="0"/>
        <pt x="47" y="546" on="1"/>
        <pt x="39" y="546" on="0"/>
        <pt x="39" y="559" on="1"/>
        <pt x="39" y="561" on="0"/>
        <pt x="55" y="611" on="0"/>
        <pt x="100" y="665" on="0"/>
        <pt x="130" y="678" on="1"/>
        <pt x="179" y="698" on="0"/>
        <pt x="251" y="698" on="1"/>
        <pt x="378" y="698" on="1"/>
        <pt x="408" y="698" on="0"/>
        <pt x="443" y="678" on="0"/>
        <pt x="457" y="603" on="0"/>
        <pt x="470" y="332" on="0"/>
        <pt x="470" y="222" on="0"/>
        <pt x="468" y="202" on="1"/>
        <pt x="611" y="381" on="0"/>
        <pt x="838" y="651" on="1"/>
        <pt x="878" y="698" on="0"/>
      </contour>
    </TTGlyph>
    <TTGlyph name="N" xMin="38" yMin="0" xMax="858" yMax="703">
      <contour>
        <pt x="858" y="697" on="1"/>
        <pt x="818" y="671" on="0"/>
        <pt x="673" y="387" on="0"/>
        <pt x="560" y="78" on="0"/>
        <pt x="560" y="18" on="1"/>
        <pt x="560" y="5" on="0"/>
        <pt x="562" y="0" on="1"/>
        <pt x="499" y="0" on="1"/>
        <pt x="496" y="58" on="0"/>
        <pt x="461" y="145" on="0"/>
        <pt x="443" y="188" on="0"/>
        <pt x="399" y="288" on="0"/>
        <pt x="382" y="328" on="1"/>
        <pt x="330" y="449" on="0"/>
        <pt x="323" y="534" on="1"/>
        <pt x="257" y="387" on="0"/>
        <pt x="129" y="59" on="0"/>
        <pt x="129" y="9" on="1"/>
        <pt x="129" y="2" on="0"/>
        <pt x="130" y="0" on="1"/>
        <pt x="38" y="0" on="1"/>
        <pt x="95" y="146" on="0"/>
        <pt x="307" y="624" on="0"/>
        <pt x="330" y="669" on="1"/>
        <pt x="239" y="669" on="0"/>
        <pt x="66" y="597" on="0"/>
        <pt x="51" y="549" on="1"/>
        <pt x="50" y="546" on="0"/>
        <pt x="47" y="546" on="1"/>
        <pt x="39" y="546" on="0"/>
        <pt x="39" y="559" on="1"/>
        <pt x="39" y="561" on="0"/>
        <pt x="55" y="611" on="0"/>
        <pt x="100" y="665" on="0"/>
        <pt x="130" y="678" on="1"/>
        <pt x="179" y="698" on="0"/>
        <pt x="251" y="698" on="1"/>
        <pt x="420" y="698" on="1"/>
        <pt x="406" y="675" on="0"/>
        <pt x="406" y="642" on="1"/>
        <pt x="406" y="568" on="0"/>
        <pt x="463" y="434" on="1"/>
        <pt x="515" y="309" on="0"/>
        <pt x="534" y="240" on="0"/>
        <pt x="539" y="218" on="0"/>
        <pt x="541" y="188" on="0"/>
        <pt x="542" y="184" on="1"/>
        <pt x="555" y="216" on="0"/>
        <pt x="765" y="698" on="1"/>
        <pt x="767" y="703" on="0"/>
        <pt x="800" y="703" on="0"/>
        <pt x="854" y="697" on="0"/>
      </contour>
    </TTGlyph>
    <TTGlyph name="Nacute" xMin="38" yMin="0" xMax="858" yMax="841">
      <contour>
        <pt x="858" y="697" on="1"/>
        <pt x="818" y="671" on="0"/>
        <pt x="673" y="387" on="0"/>
        <pt x="560" y="78" on="0"/>
        <pt x="560" y="18" on="1"/>
        <pt x="560" y="5" on="0"/>
        <pt x="562" y="0" on="1"/>
        <pt x="499" y="0" on="1"/>
        <pt x="496" y="58" on="0"/>
        <pt x="461" y="145" on="0"/>
        <pt x="443" y="188" on="0"/>
        <pt x="399" y="288" on="0"/>
        <pt x="382" y="328" on="1"/>
        <pt x="330" y="449" on="0"/>
        <pt x="323" y="534" on="1"/>
        <pt x="257" y="387" on="0"/>
        <pt x="129" y="59" on="0"/>
        <pt x="129" y="9" on="1"/>
        <pt x="129" y="2" on="0"/>
        <pt x="130" y="0" on="1"/>
        <pt x="38" y="0" on="1"/>
        <pt x="95" y="146" on="0"/>
        <pt x="307" y="624" on="0"/>
        <pt x="330" y="669" on="1"/>
        <pt x="239" y="669" on="0"/>
        <pt x="66" y="597" on="0"/>
        <pt x="51" y="549" on="1"/>
        <pt x="50" y="546" on="0"/>
        <pt x="47" y="546" on="1"/>
        <pt x="39" y="546" on="0"/>
        <pt x="39" y="559" on="1"/>
        <pt x="39" y="561" on="0"/>
        <pt x="55" y="611" on="0"/>
        <pt x="100" y="665" on="0"/>
        <pt x="130" y="678" on="1"/>
        <pt x="179" y="698" on="0"/>
        <pt x="251" y="698" on="1"/>
        <pt x="420" y="698" on="1"/>
        <pt x="406" y="675" on="0"/>
        <pt x="406" y="642" on="1"/>
        <pt x="406" y="568" on="0"/>
        <pt x="463" y="434" on="1"/>
        <pt x="515" y="309" on="0"/>
        <pt x="534" y="240" on="0"/>
        <pt x="539" y="218" on="0"/>
        <pt x="541" y="188" on="0"/>
        <pt x="542" y="184" on="1"/>
        <pt x="555" y="216" on="0"/>
        <pt x="765" y="698" on="1"/>
        <pt x="767" y="703" on="0"/>
        <pt x="800" y="703" on="0"/>
        <pt x="854" y="697" on="0"/>
      </contour>
      <contour>
        <pt x="728" y="810" on="1"/>
        <pt x="688" y="793" on="0"/>
        <pt x="556" y="726" on="0"/>
        <pt x="550" y="726" on="0"/>
        <pt x="531" y="736" on="0"/>
        <pt x="531" y="738" on="1"/>
        <pt x="540" y="743" on="0"/>
        <pt x="653" y="826" on="0"/>
        <pt x="671" y="839" on="1"/>
        <pt x="675" y="841" on="0"/>
        <pt x="691" y="841" on="0"/>
        <pt x="730" y="819" on="0"/>
        <pt x="730" y="813" on="1"/>
        <pt x="730" y="811" on="0"/>
      </contour>
    </TTGlyph>
    <TTGlyph name="Ntilde" xMin="38" yMin="0" xMax="858" yMax="898">
      <contour>
        <pt x="858" y="697" on="1"/>
        <pt x="818" y="671" on="0"/>
        <pt x="673" y="387" on="0"/>
        <pt x="560" y="78" on="0"/>
        <pt x="560" y="18" on="1"/>
        <pt x="560" y="5" on="0"/>
        <pt x="562" y="0" on="1"/>
        <pt x="499" y="0" on="1"/>
        <pt x="496" y="58" on="0"/>
        <pt x="461" y="145" on="0"/>
        <pt x="443" y="188" on="0"/>
        <pt x="399" y="288" on="0"/>
        <pt x="382" y="328" on="1"/>
        <pt x="330" y="449" on="0"/>
        <pt x="323" y="534" on="1"/>
        <pt x="257" y="387" on="0"/>
        <pt x="129" y="59" on="0"/>
        <pt x="129" y="9" on="1"/>
        <pt x="129" y="2" on="0"/>
        <pt x="130" y="0" on="1"/>
        <pt x="38" y="0" on="1"/>
        <pt x="95" y="146" on="0"/>
        <pt x="307" y="624" on="0"/>
        <pt x="330" y="669" on="1"/>
        <pt x="239" y="669" on="0"/>
        <pt x="66" y="597" on="0"/>
        <pt x="51" y="549" on="1"/>
        <pt x="50" y="546" on="0"/>
        <pt x="47" y="546" on="1"/>
        <pt x="39" y="546" on="0"/>
        <pt x="39" y="559" on="1"/>
        <pt x="39" y="561" on="0"/>
        <pt x="55" y="611" on="0"/>
        <pt x="100" y="665" on="0"/>
        <pt x="130" y="678" on="1"/>
        <pt x="179" y="698" on="0"/>
        <pt x="251" y="698" on="1"/>
        <pt x="420" y="698" on="1"/>
        <pt x="406" y="675" on="0"/>
        <pt x="406" y="642" on="1"/>
        <pt x="406" y="568" on="0"/>
        <pt x="463" y="434" on="1"/>
        <pt x="515" y="309" on="0"/>
        <pt x="534" y="240" on="0"/>
        <pt x="539" y="218" on="0"/>
        <pt x="541" y="188" on="0"/>
        <pt x="542" y="184" on="1"/>
        <pt x="555" y="216" on="0"/>
        <pt x="765" y="698" on="1"/>
        <pt x="767" y="703" on="0"/>
        <pt x="800" y="703" on="0"/>
        <pt x="854" y="697" on="0"/>
      </contour>
      <contour>
        <pt x="756" y="883" on="1"/>
        <pt x="714" y="811" on="0"/>
        <pt x="676" y="811" on="1"/>
        <pt x="653" y="811" on="0"/>
        <pt x="569" y="847" on="0"/>
        <pt x="520" y="847" on="0"/>
        <pt x="484" y="817" on="0"/>
        <pt x="483" y="817" on="1"/>
        <pt x="472" y="817" on="0"/>
        <pt x="472" y="836" on="0"/>
        <pt x="524" y="894" on="0"/>
        <pt x="573" y="894" on="0"/>
        <pt x="665" y="857" on="0"/>
        <pt x="706" y="857" on="0"/>
        <pt x="729" y="878" on="0"/>
        <pt x="743" y="898" on="0"/>
        <pt x="749" y="898" on="1"/>
        <pt x="758" y="898" on="0"/>
        <pt x="758" y="890" on="1"/>
        <pt x="758" y="887" on="0"/>
      </contour>
    </TTGlyph>
    <TTGlyph name="O" xMin="63" yMin="-32" xMax="819" yMax="708">
      <contour>
        <pt x="778" y="303" on="1"/>
        <pt x="712" y="153" on="0"/>
        <pt x="467" y="-32" on="0"/>
        <pt x="311" y="-32" on="1"/>
        <pt x="63" y="-32" on="0"/>
        <pt x="63" y="187" on="1"/>
        <pt x="63" y="286" on="0"/>
        <pt x="146" y="477" on="0"/>
        <pt x="282" y="620" on="0"/>
        <pt x="468" y="708" on="0"/>
        <pt x="565" y="708" on="1"/>
        <pt x="692" y="708" on="0"/>
        <pt x="819" y="583" on="0"/>
        <pt x="819" y="396" on="0"/>
      </contour>
      <contour>
        <pt x="736" y="499" on="1"/>
        <pt x="736" y="662" on="0"/>
        <pt x="590" y="662" on="1"/>
        <pt x="484" y="662" on="0"/>
        <pt x="291" y="516" on="0"/>
        <pt x="180" y="296" on="0"/>
        <pt x="180" y="186" on="1"/>
        <pt x="180" y="107" on="0"/>
        <pt x="250" y="9" on="0"/>
        <pt x="403" y="9" on="0"/>
        <pt x="557" y="101" on="0"/>
        <pt x="667" y="244" on="0"/>
        <pt x="736" y="419" on="0"/>
      </contour>
    </TTGlyph>
    <TTGlyph name="OE" xMin="3" yMin="-32" xMax="1144" yMax="708">
      <contour>
        <pt x="997" y="698" on="1"/>
        <pt x="1106" y="703" on="1"/>
        <pt x="1137" y="703" on="0"/>
        <pt x="1144" y="678" on="0"/>
        <pt x="1144" y="672" on="1"/>
        <pt x="1144" y="637" on="0"/>
        <pt x="1095" y="530" on="0"/>
        <pt x="1074" y="530" on="0"/>
        <pt x="1074" y="538" on="1"/>
        <pt x="1082" y="598" on="1"/>
        <pt x="1082" y="629" on="0"/>
        <pt x="1032" y="665" on="0"/>
        <pt x="962" y="665" on="0"/>
        <pt x="928" y="655" on="0"/>
        <pt x="918" y="639" on="1"/>
        <pt x="845" y="530" on="0"/>
        <pt x="785" y="391" on="1"/>
        <pt x="1046" y="391" on="1"/>
        <pt x="1047" y="390" on="1"/>
        <pt x="1047" y="383" on="0"/>
        <pt x="1019" y="342" on="0"/>
        <pt x="1010" y="342" on="1"/>
        <pt x="763" y="342" on="1"/>
        <pt x="736" y="276" on="0"/>
        <pt x="684" y="112" on="0"/>
        <pt x="684" y="59" on="0"/>
        <pt x="716" y="34" on="0"/>
        <pt x="754" y="34" on="1"/>
        <pt x="1043" y="34" on="0"/>
        <pt x="1100" y="148" on="1"/>
        <pt x="1102" y="151" on="0"/>
        <pt x="1105" y="151" on="1"/>
        <pt x="1113" y="151" on="0"/>
        <pt x="1113" y="140" on="1"/>
        <pt x="1113" y="137" on="0"/>
        <pt x="1097" y="86" on="0"/>
        <pt x="1057" y="31" on="0"/>
        <pt x="999" y="7" on="0"/>
        <pt x="948" y="0" on="0"/>
        <pt x="908" y="0" on="1"/>
        <pt x="606" y="0" on="1"/>
        <pt x="575" y="0" on="0"/>
        <pt x="575" y="48" on="1"/>
        <pt x="575" y="66" on="0"/>
        <pt x="582" y="105" on="1"/>
        <pt x="440" y="-32" on="0"/>
        <pt x="251" y="-32" on="1"/>
        <pt x="3" y="-32" on="0"/>
        <pt x="3" y="187" on="1"/>
        <pt x="3" y="286" on="0"/>
        <pt x="86" y="477" on="0"/>
        <pt x="222" y="620" on="0"/>
        <pt x="408" y="708" on="0"/>
        <pt x="610" y="708" on="0"/>
        <pt x="733" y="622" on="0"/>
        <pt x="751" y="548" on="1"/>
        <pt x="781" y="615" on="0"/>
        <pt x="801" y="648" on="1"/>
        <pt x="803" y="658" on="0"/>
        <pt x="802" y="689" on="0"/>
        <pt x="808" y="698" on="0"/>
        <pt x="819" y="698" on="1"/>
      </contour>
      <contour>
        <pt x="676" y="499" on="1"/>
        <pt x="676" y="662" on="0"/>
        <pt x="530" y="662" on="1"/>
        <pt x="424" y="662" on="0"/>
        <pt x="231" y="516" on="0"/>
        <pt x="120" y="296" on="0"/>
        <pt x="120" y="186" on="1"/>
        <pt x="120" y="107" on="0"/>
        <pt x="190" y="9" on="0"/>
        <pt x="343" y="9" on="0"/>
        <pt x="497" y="101" on="0"/>
        <pt x="607" y="244" on="0"/>
        <pt x="676" y="419" on="0"/>
      </contour>
    </TTGlyph>
    <TTGlyph name="Oacute" xMin="3" yMin="-32" xMax="759" yMax="866">
      <contour>
        <pt x="718" y="303" on="1"/>
        <pt x="652" y="153" on="0"/>
        <pt x="407" y="-32" on="0"/>
        <pt x="251" y="-32" on="1"/>
        <pt x="3" y="-32" on="0"/>
        <pt x="3" y="187" on="1"/>
        <pt x="3" y="286" on="0"/>
        <pt x="86" y="477" on="0"/>
        <pt x="222" y="620" on="0"/>
        <pt x="408" y="708" on="0"/>
        <pt x="505" y="708" on="1"/>
        <pt x="632" y="708" on="0"/>
        <pt x="759" y="583" on="0"/>
        <pt x="759" y="396" on="0"/>
      </contour>
      <contour>
        <pt x="676" y="499" on="1"/>
        <pt x="676" y="662" on="0"/>
        <pt x="530" y="662" on="1"/>
        <pt x="424" y="662" on="0"/>
        <pt x="231" y="516" on="0"/>
        <pt x="120" y="296" on="0"/>
        <pt x="120" y="186" on="1"/>
        <pt x="120" y="107" on="0"/>
        <pt x="190" y="9" on="0"/>
        <pt x="343" y="9" on="0"/>
        <pt x="497" y="101" on="0"/>
        <pt x="607" y="244" on="0"/>
        <pt x="676" y="419" on="0"/>
      </contour>
      <contour>
        <pt x="681" y="835" on="1"/>
        <pt x="641" y="818" on="0"/>
        <pt x="509" y="751" on="0"/>
        <pt x="503" y="751" on="0"/>
        <pt x="484" y="761" on="0"/>
        <pt x="484" y="763" on="1"/>
        <pt x="493" y="768" on="0"/>
        <pt x="606" y="851" on="0"/>
        <pt x="624" y="864" on="1"/>
        <pt x="628" y="866" on="0"/>
        <pt x="644" y="866" on="0"/>
        <pt x="683" y="844" on="0"/>
        <pt x="683" y="838" on="1"/>
        <pt x="683" y="836" on="0"/>
      </contour>
    </TTGlyph>
    <TTGlyph name="Ocircumflex" xMin="3" yMin="-32" xMax="759" yMax="902">
      <contour>
        <pt x="718" y="303" on="1"/>
        <pt x="652" y="153" on="0"/>
        <pt x="407" y="-32" on="0"/>
        <pt x="251" y="-32" on="1"/>
        <pt x="3" y="-32" on="0"/>
        <pt x="3" y="187" on="1"/>
        <pt x="3" y="286" on="0"/>
        <pt x="86" y="477" on="0"/>
        <pt x="222" y="620" on="0"/>
        <pt x="408" y="708" on="0"/>
        <pt x="505" y="708" on="1"/>
        <pt x="632" y="708" on="0"/>
        <pt x="759" y="583" on="0"/>
        <pt x="759" y="396" on="0"/>
      </contour>
      <contour>
        <pt x="676" y="499" on="1"/>
        <pt x="676" y="662" on="0"/>
        <pt x="530" y="662" on="1"/>
        <pt x="424" y="662" on="0"/>
        <pt x="231" y="516" on="0"/>
        <pt x="120" y="296" on="0"/>
        <pt x="120" y="186" on="1"/>
        <pt x="120" y="107" on="0"/>
        <pt x="190" y="9" on="0"/>
        <pt x="343" y="9" on="0"/>
        <pt x="497" y="101" on="0"/>
        <pt x="607" y="244" on="0"/>
        <pt x="676" y="419" on="0"/>
      </contour>
      <contour>
        <pt x="687" y="775" on="1"/>
        <pt x="687" y="774" on="1"/>
        <pt x="687" y="771" on="0"/>
        <pt x="658" y="755" on="0"/>
        <pt x="650" y="755" on="1"/>
        <pt x="636" y="755" on="0"/>
        <pt x="587" y="827" on="0"/>
        <pt x="575" y="854" on="1"/>
        <pt x="542" y="822" on="0"/>
        <pt x="461" y="759" on="0"/>
        <pt x="429" y="759" on="0"/>
        <pt x="429" y="762" on="1"/>
        <pt x="429" y="763" on="1"/>
        <pt x="525" y="841" on="0"/>
        <pt x="575" y="893" on="1"/>
        <pt x="583" y="902" on="0"/>
        <pt x="600" y="902" on="0"/>
        <pt x="631" y="857" on="0"/>
        <pt x="675" y="790" on="0"/>
      </contour>
    </TTGlyph>
    <TTGlyph name="Odieresis" xMin="3" yMin="-32" xMax="759" yMax="900">
      <contour>
        <pt x="718" y="303" on="1"/>
        <pt x="652" y="153" on="0"/>
        <pt x="407" y="-32" on="0"/>
        <pt x="251" y="-32" on="1"/>
        <pt x="3" y="-32" on="0"/>
        <pt x="3" y="187" on="1"/>
        <pt x="3" y="286" on="0"/>
        <pt x="86" y="477" on="0"/>
        <pt x="222" y="620" on="0"/>
        <pt x="408" y="708" on="0"/>
        <pt x="505" y="708" on="1"/>
        <pt x="632" y="708" on="0"/>
        <pt x="759" y="583" on="0"/>
        <pt x="759" y="396" on="0"/>
      </contour>
      <contour>
        <pt x="676" y="499" on="1"/>
        <pt x="676" y="662" on="0"/>
        <pt x="530" y="662" on="1"/>
        <pt x="424" y="662" on="0"/>
        <pt x="231" y="516" on="0"/>
        <pt x="120" y="296" on="0"/>
        <pt x="120" y="186" on="1"/>
        <pt x="120" y="107" on="0"/>
        <pt x="190" y="9" on="0"/>
        <pt x="343" y="9" on="0"/>
        <pt x="497" y="101" on="0"/>
        <pt x="607" y="244" on="0"/>
        <pt x="676" y="419" on="0"/>
      </contour>
      <contour>
        <pt x="703" y="846" on="1"/>
        <pt x="683" y="841" on="0"/>
        <pt x="640" y="796" on="0"/>
        <pt x="629" y="796" on="1"/>
        <pt x="608" y="796" on="0"/>
        <pt x="608" y="830" on="0"/>
        <pt x="657" y="900" on="0"/>
        <pt x="678" y="900" on="1"/>
        <pt x="689" y="900" on="0"/>
        <pt x="709" y="870" on="0"/>
        <pt x="709" y="847" on="0"/>
      </contour>
      <contour>
        <pt x="516" y="846" on="1"/>
        <pt x="496" y="841" on="0"/>
        <pt x="453" y="796" on="0"/>
        <pt x="442" y="796" on="1"/>
        <pt x="421" y="796" on="0"/>
        <pt x="421" y="830" on="0"/>
        <pt x="470" y="900" on="0"/>
        <pt x="491" y="900" on="1"/>
        <pt x="502" y="900" on="0"/>
        <pt x="522" y="870" on="0"/>
        <pt x="522" y="847" on="0"/>
      </contour>
    </TTGlyph>
    <TTGlyph name="Ograve" xMin="3" yMin="-32" xMax="759" yMax="864">
      <contour>
        <pt x="718" y="303" on="1"/>
        <pt x="652" y="153" on="0"/>
        <pt x="407" y="-32" on="0"/>
        <pt x="251" y="-32" on="1"/>
        <pt x="3" y="-32" on="0"/>
        <pt x="3" y="187" on="1"/>
        <pt x="3" y="286" on="0"/>
        <pt x="86" y="477" on="0"/>
        <pt x="222" y="620" on="0"/>
        <pt x="408" y="708" on="0"/>
        <pt x="505" y="708" on="1"/>
        <pt x="632" y="708" on="0"/>
        <pt x="759" y="583" on="0"/>
        <pt x="759" y="396" on="0"/>
      </contour>
      <contour>
        <pt x="676" y="499" on="1"/>
        <pt x="676" y="662" on="0"/>
        <pt x="530" y="662" on="1"/>
        <pt x="424" y="662" on="0"/>
        <pt x="231" y="516" on="0"/>
        <pt x="120" y="296" on="0"/>
        <pt x="120" y="186" on="1"/>
        <pt x="120" y="107" on="0"/>
        <pt x="190" y="9" on="0"/>
        <pt x="343" y="9" on="0"/>
        <pt x="497" y="101" on="0"/>
        <pt x="607" y="244" on="0"/>
        <pt x="676" y="419" on="0"/>
      </contour>
      <contour>
        <pt x="504" y="798" on="1"/>
        <pt x="461" y="820" on="0"/>
        <pt x="428" y="834" on="0"/>
        <pt x="428" y="836" on="1"/>
        <pt x="428" y="842" on="0"/>
        <pt x="468" y="864" on="0"/>
        <pt x="484" y="864" on="0"/>
        <pt x="488" y="862" on="1"/>
        <pt x="506" y="849" on="0"/>
        <pt x="540" y="824" on="1"/>
        <pt x="598" y="781" on="1"/>
        <pt x="621" y="764" on="0"/>
        <pt x="628" y="761" on="1"/>
        <pt x="628" y="758" on="0"/>
        <pt x="608" y="749" on="0"/>
        <pt x="603" y="749" on="0"/>
        <pt x="575" y="763" on="1"/>
      </contour>
    </TTGlyph>
    <TTGlyph name="Oslash" xMin="3" yMin="-61" xMax="759" yMax="712">
      <contour>
        <pt x="718" y="303" on="1"/>
        <pt x="652" y="153" on="0"/>
        <pt x="407" y="-32" on="0"/>
        <pt x="251" y="-32" on="1"/>
        <pt x="207" y="-32" on="0"/>
        <pt x="167" y="-24" on="1"/>
        <pt x="143" y="-58" on="1"/>
        <pt x="141" y="-61" on="0"/>
        <pt x="91" y="-61" on="0"/>
        <pt x="91" y="-54" on="1"/>
        <pt x="91" y="-53" on="1"/>
        <pt x="121" y="-11" on="1"/>
        <pt x="3" y="34" on="0"/>
        <pt x="3" y="186" on="1"/>
        <pt x="3" y="316" on="0"/>
        <pt x="138" y="555" on="0"/>
        <pt x="365" y="705" on="0"/>
        <pt x="492" y="708" on="1"/>
        <pt x="569" y="708" on="0"/>
        <pt x="623" y="689" on="1"/>
        <pt x="638" y="709" on="1"/>
        <pt x="641" y="712" on="0"/>
        <pt x="690" y="712" on="0"/>
        <pt x="690" y="705" on="1"/>
        <pt x="690" y="704" on="1"/>
        <pt x="665" y="669" on="1"/>
        <pt x="759" y="610" on="0"/>
        <pt x="759" y="480" on="1"/>
        <pt x="759" y="398" on="0"/>
      </contour>
      <contour>
        <pt x="608" y="244" on="0"/>
        <pt x="676" y="419" on="0"/>
        <pt x="676" y="586" on="0"/>
        <pt x="634" y="626" on="1"/>
        <pt x="201" y="22" on="1"/>
        <pt x="230" y="9" on="0"/>
        <pt x="266" y="9" on="1"/>
        <pt x="344" y="9" on="0"/>
        <pt x="498" y="102" on="0"/>
      </contour>
      <contour>
        <pt x="164" y="49" on="1"/>
        <pt x="596" y="651" on="1"/>
        <pt x="568" y="662" on="0"/>
        <pt x="536" y="662" on="1"/>
        <pt x="458" y="662" on="0"/>
        <pt x="305" y="572" on="0"/>
        <pt x="193" y="433" on="0"/>
        <pt x="123" y="260" on="0"/>
        <pt x="123" y="93" on="0"/>
      </contour>
    </TTGlyph>
    <TTGlyph name="Otilde" xMin="3" yMin="-32" xMax="759" yMax="898">
      <contour>
        <pt x="718" y="303" on="1"/>
        <pt x="652" y="153" on="0"/>
        <pt x="407" y="-32" on="0"/>
        <pt x="251" y="-32" on="1"/>
        <pt x="3" y="-32" on="0"/>
        <pt x="3" y="187" on="1"/>
        <pt x="3" y="286" on="0"/>
        <pt x="86" y="477" on="0"/>
        <pt x="222" y="620" on="0"/>
        <pt x="408" y="708" on="0"/>
        <pt x="505" y="708" on="1"/>
        <pt x="632" y="708" on="0"/>
        <pt x="759" y="583" on="0"/>
        <pt x="759" y="396" on="0"/>
      </contour>
      <contour>
        <pt x="676" y="499" on="1"/>
        <pt x="676" y="662" on="0"/>
        <pt x="530" y="662" on="1"/>
        <pt x="424" y="662" on="0"/>
        <pt x="231" y="516" on="0"/>
        <pt x="120" y="296" on="0"/>
        <pt x="120" y="186" on="1"/>
        <pt x="120" y="107" on="0"/>
        <pt x="190" y="9" on="0"/>
        <pt x="343" y="9" on="0"/>
        <pt x="497" y="101" on="0"/>
        <pt x="607" y="244" on="0"/>
        <pt x="676" y="419" on="0"/>
      </contour>
      <contour>
        <pt x="722" y="883" on="1"/>
        <pt x="680" y="811" on="0"/>
        <pt x="642" y="811" on="1"/>
        <pt x="619" y="811" on="0"/>
        <pt x="535" y="847" on="0"/>
        <pt x="486" y="847" on="0"/>
        <pt x="450" y="817" on="0"/>
        <pt x="449" y="817" on="1"/>
        <pt x="438" y="817" on="0"/>
        <pt x="438" y="836" on="0"/>
        <pt x="490" y="894" on="0"/>
        <pt x="539" y="894" on="0"/>
        <pt x="631" y="857" on="0"/>
        <pt x="672" y="857" on="0"/>
        <pt x="695" y="878" on="0"/>
        <pt x="709" y="898" on="0"/>
        <pt x="715" y="898" on="1"/>
        <pt x="724" y="898" on="0"/>
        <pt x="724" y="890" on="1"/>
        <pt x="724" y="887" on="0"/>
      </contour>
    </TTGlyph>
    <TTGlyph name="P" xMin="14" yMin="0" xMax="664" yMax="698">
      <contour>
        <pt x="664" y="548" on="1"/>
        <pt x="658" y="482" on="0"/>
        <pt x="586" y="383" on="0"/>
        <pt x="530" y="356" on="1"/>
        <pt x="423" y="302" on="0"/>
        <pt x="282" y="302" on="1"/>
        <pt x="257" y="302" on="0"/>
        <pt x="236" y="305" on="1"/>
        <pt x="153" y="95" on="0"/>
        <pt x="153" y="22" on="1"/>
        <pt x="153" y="7" on="0"/>
        <pt x="157" y="0" on="1"/>
        <pt x="28" y="0" on="1"/>
        <pt x="56" y="121" on="0"/>
        <pt x="146" y="336" on="1"/>
        <pt x="266" y="622" on="0"/>
        <pt x="301" y="661" on="1"/>
        <pt x="216" y="659" on="0"/>
        <pt x="41" y="594" on="0"/>
        <pt x="27" y="549" on="1"/>
        <pt x="26" y="546" on="0"/>
        <pt x="23" y="546" on="1"/>
        <pt x="14" y="546" on="0"/>
        <pt x="14" y="559" on="1"/>
        <pt x="14" y="561" on="0"/>
        <pt x="16" y="569" on="1"/>
        <pt x="35" y="624" on="0"/>
        <pt x="107" y="684" on="0"/>
        <pt x="176" y="698" on="0"/>
        <pt x="227" y="698" on="1"/>
        <pt x="480" y="698" on="1"/>
        <pt x="571" y="698" on="0"/>
        <pt x="664" y="620" on="0"/>
        <pt x="664" y="561" on="1"/>
      </contour>
      <contour>
        <pt x="326" y="321" on="0"/>
        <pt x="469" y="371" on="0"/>
        <pt x="561" y="474" on="0"/>
        <pt x="561" y="545" on="1"/>
        <pt x="561" y="659" on="0"/>
        <pt x="423" y="668" on="1"/>
        <pt x="357" y="586" on="0"/>
        <pt x="263" y="370" on="1"/>
        <pt x="242" y="321" on="1"/>
        <pt x="254" y="321" on="1"/>
      </contour>
    </TTGlyph>
    <TTGlyph name="Q" xMin="83" yMin="-280" xMax="839" yMax="708">
      <contour>
        <pt x="798" y="303" on="1"/>
        <pt x="718" y="122" on="0"/>
        <pt x="568" y="33" on="1"/>
        <pt x="576" y="15" on="0"/>
        <pt x="595" y="-70" on="0"/>
        <pt x="611" y="-136" on="0"/>
        <pt x="648" y="-189" on="0"/>
        <pt x="695" y="-189" on="0"/>
        <pt x="711" y="-173" on="1"/>
        <pt x="719" y="-189" on="0"/>
        <pt x="719" y="-203" on="1"/>
        <pt x="719" y="-236" on="0"/>
        <pt x="662" y="-280" on="0"/>
        <pt x="586" y="-280" on="0"/>
        <pt x="535" y="-243" on="0"/>
        <pt x="512" y="-174" on="0"/>
        <pt x="502" y="-112" on="0"/>
        <pt x="495" y="-22" on="0"/>
        <pt x="492" y="-3" on="1"/>
        <pt x="416" y="-32" on="0"/>
        <pt x="331" y="-32" on="1"/>
        <pt x="83" y="-32" on="0"/>
        <pt x="83" y="187" on="1"/>
        <pt x="83" y="286" on="0"/>
        <pt x="166" y="477" on="0"/>
        <pt x="302" y="620" on="0"/>
        <pt x="488" y="708" on="0"/>
        <pt x="585" y="708" on="1"/>
        <pt x="713" y="708" on="0"/>
        <pt x="839" y="583" on="0"/>
        <pt x="839" y="396" on="0"/>
      </contour>
      <contour>
        <pt x="756" y="499" on="1"/>
        <pt x="756" y="662" on="0"/>
        <pt x="616" y="662" on="1"/>
        <pt x="538" y="662" on="0"/>
        <pt x="384" y="572" on="0"/>
        <pt x="272" y="432" on="0"/>
        <pt x="203" y="259" on="0"/>
        <pt x="203" y="103" on="0"/>
        <pt x="272" y="10" on="0"/>
        <pt x="412" y="10" on="0"/>
        <pt x="481" y="44" on="1"/>
        <pt x="471" y="71" on="0"/>
        <pt x="435" y="99" on="0"/>
        <pt x="416" y="99" on="1"/>
        <pt x="389" y="95" on="1"/>
        <pt x="380" y="95" on="0"/>
        <pt x="380" y="101" on="1"/>
        <pt x="380" y="114" on="0"/>
        <pt x="419" y="127" on="0"/>
        <pt x="440" y="127" on="1"/>
        <pt x="496" y="127" on="0"/>
        <pt x="538" y="80" on="1"/>
        <pt x="635" y="153" on="0"/>
        <pt x="756" y="390" on="0"/>
      </contour>
    </TTGlyph>
    <TTGlyph name="R" xMin="4" yMin="-1" xMax="645" yMax="698">
      <contour>
        <pt x="645" y="621" on="0"/>
        <pt x="645" y="503" on="0"/>
        <pt x="610" y="458" on="1"/>
        <pt x="548" y="376" on="0"/>
        <pt x="419" y="352" on="1"/>
        <pt x="387" y="346" on="1"/>
        <pt x="437" y="172" on="0"/>
        <pt x="597" y="2" on="1"/>
        <pt x="582" y="-1" on="0"/>
        <pt x="551" y="-1" on="1"/>
        <pt x="474" y="2" on="1"/>
        <pt x="434" y="2" on="0"/>
        <pt x="345" y="159" on="0"/>
        <pt x="293" y="322" on="0"/>
        <pt x="293" y="349" on="1"/>
        <pt x="293" y="364" on="0"/>
        <pt x="307" y="365" on="1"/>
        <pt x="542" y="394" on="0"/>
        <pt x="549" y="549" on="1"/>
        <pt x="549" y="604" on="0"/>
        <pt x="484" y="664" on="0"/>
        <pt x="410" y="668" on="1"/>
        <pt x="332" y="563" on="0"/>
        <pt x="237" y="332" on="1"/>
        <pt x="143" y="97" on="0"/>
        <pt x="143" y="22" on="1"/>
        <pt x="143" y="7" on="0"/>
        <pt x="147" y="0" on="1"/>
        <pt x="18" y="0" on="1"/>
        <pt x="46" y="121" on="0"/>
        <pt x="136" y="336" on="1"/>
        <pt x="256" y="622" on="0"/>
        <pt x="291" y="661" on="1"/>
        <pt x="206" y="659" on="0"/>
        <pt x="31" y="594" on="0"/>
        <pt x="17" y="549" on="1"/>
        <pt x="16" y="546" on="0"/>
        <pt x="13" y="546" on="1"/>
        <pt x="4" y="546" on="0"/>
        <pt x="4" y="559" on="1"/>
        <pt x="4" y="561" on="0"/>
        <pt x="6" y="569" on="1"/>
        <pt x="25" y="624" on="0"/>
        <pt x="97" y="684" on="0"/>
        <pt x="166" y="698" on="0"/>
        <pt x="217" y="698" on="1"/>
        <pt x="460" y="698" on="1"/>
        <pt x="552" y="698" on="0"/>
      </contour>
    </TTGlyph>
    <TTGlyph name="Racute" xMin="4" yMin="-1" xMax="645" yMax="841">
      <contour>
        <pt x="645" y="621" on="0"/>
        <pt x="645" y="503" on="0"/>
        <pt x="610" y="458" on="1"/>
        <pt x="548" y="376" on="0"/>
        <pt x="419" y="352" on="1"/>
        <pt x="387" y="346" on="1"/>
        <pt x="437" y="172" on="0"/>
        <pt x="597" y="2" on="1"/>
        <pt x="582" y="-1" on="0"/>
        <pt x="551" y="-1" on="1"/>
        <pt x="474" y="2" on="1"/>
        <pt x="434" y="2" on="0"/>
        <pt x="345" y="159" on="0"/>
        <pt x="293" y="322" on="0"/>
        <pt x="293" y="349" on="1"/>
        <pt x="293" y="364" on="0"/>
        <pt x="307" y="365" on="1"/>
        <pt x="542" y="394" on="0"/>
        <pt x="549" y="549" on="1"/>
        <pt x="549" y="604" on="0"/>
        <pt x="484" y="664" on="0"/>
        <pt x="410" y="668" on="1"/>
        <pt x="332" y="563" on="0"/>
        <pt x="237" y="332" on="1"/>
        <pt x="143" y="97" on="0"/>
        <pt x="143" y="22" on="1"/>
        <pt x="143" y="7" on="0"/>
        <pt x="147" y="0" on="1"/>
        <pt x="18" y="0" on="1"/>
        <pt x="46" y="121" on="0"/>
        <pt x="136" y="336" on="1"/>
        <pt x="256" y="622" on="0"/>
        <pt x="291" y="661" on="1"/>
        <pt x="206" y="659" on="0"/>
        <pt x="31" y="594" on="0"/>
        <pt x="17" y="549" on="1"/>
        <pt x="16" y="546" on="0"/>
        <pt x="13" y="546" on="1"/>
        <pt x="4" y="546" on="0"/>
        <pt x="4" y="559" on="1"/>
        <pt x="4" y="561" on="0"/>
        <pt x="6" y="569" on="1"/>
        <pt x="25" y="624" on="0"/>
        <pt x="97" y="684" on="0"/>
        <pt x="166" y="698" on="0"/>
        <pt x="217" y="698" on="1"/>
        <pt x="460" y="698" on="1"/>
        <pt x="552" y="698" on="0"/>
      </contour>
      <contour>
        <pt x="626" y="810" on="1"/>
        <pt x="586" y="793" on="0"/>
        <pt x="454" y="726" on="0"/>
        <pt x="448" y="726" on="0"/>
        <pt x="429" y="736" on="0"/>
        <pt x="429" y="738" on="1"/>
        <pt x="438" y="743" on="0"/>
        <pt x="551" y="826" on="0"/>
        <pt x="569" y="839" on="1"/>
        <pt x="573" y="841" on="0"/>
        <pt x="589" y="841" on="0"/>
        <pt x="628" y="819" on="0"/>
        <pt x="628" y="813" on="1"/>
        <pt x="628" y="811" on="0"/>
      </contour>
    </TTGlyph>
    <TTGlyph name="Rcaron" xMin="4" yMin="-1" xMax="645" yMax="902">
      <contour>
        <pt x="645" y="621" on="0"/>
        <pt x="645" y="503" on="0"/>
        <pt x="610" y="458" on="1"/>
        <pt x="548" y="376" on="0"/>
        <pt x="419" y="352" on="1"/>
        <pt x="387" y="346" on="1"/>
        <pt x="437" y="172" on="0"/>
        <pt x="597" y="2" on="1"/>
        <pt x="582" y="-1" on="0"/>
        <pt x="551" y="-1" on="1"/>
        <pt x="474" y="2" on="1"/>
        <pt x="434" y="2" on="0"/>
        <pt x="345" y="159" on="0"/>
        <pt x="293" y="322" on="0"/>
        <pt x="293" y="349" on="1"/>
        <pt x="293" y="364" on="0"/>
        <pt x="307" y="365" on="1"/>
        <pt x="542" y="394" on="0"/>
        <pt x="549" y="549" on="1"/>
        <pt x="549" y="604" on="0"/>
        <pt x="484" y="664" on="0"/>
        <pt x="410" y="668" on="1"/>
        <pt x="332" y="563" on="0"/>
        <pt x="237" y="332" on="1"/>
        <pt x="143" y="97" on="0"/>
        <pt x="143" y="22" on="1"/>
        <pt x="143" y="7" on="0"/>
        <pt x="147" y="0" on="1"/>
        <pt x="18" y="0" on="1"/>
        <pt x="46" y="121" on="0"/>
        <pt x="136" y="336" on="1"/>
        <pt x="256" y="622" on="0"/>
        <pt x="291" y="661" on="1"/>
        <pt x="206" y="659" on="0"/>
        <pt x="31" y="594" on="0"/>
        <pt x="17" y="549" on="1"/>
        <pt x="16" y="546" on="0"/>
        <pt x="13" y="546" on="1"/>
        <pt x="4" y="546" on="0"/>
        <pt x="4" y="559" on="1"/>
        <pt x="4" y="561" on="0"/>
        <pt x="6" y="569" on="1"/>
        <pt x="25" y="624" on="0"/>
        <pt x="97" y="684" on="0"/>
        <pt x="166" y="698" on="0"/>
        <pt x="217" y="698" on="1"/>
        <pt x="460" y="698" on="1"/>
        <pt x="552" y="698" on="0"/>
      </contour>
      <contour>
        <pt x="406" y="902" on="1"/>
        <pt x="430" y="902" on="0"/>
        <pt x="481" y="803" on="1"/>
        <pt x="582" y="898" on="0"/>
        <pt x="609" y="898" on="1"/>
        <pt x="627" y="898" on="0"/>
        <pt x="627" y="895" on="1"/>
        <pt x="627" y="894" on="1"/>
        <pt x="531" y="816" on="0"/>
        <pt x="481" y="764" on="1"/>
        <pt x="472" y="754" on="0"/>
        <pt x="455" y="754" on="0"/>
        <pt x="424" y="799" on="0"/>
        <pt x="381" y="867" on="0"/>
        <pt x="369" y="882" on="1"/>
        <pt x="369" y="886" on="0"/>
        <pt x="397" y="902" on="0"/>
      </contour>
    </TTGlyph>
    <TTGlyph name="Rcommaaccent" xMin="4" yMin="-1" xMax="645" yMax="698">
      <contour>
        <pt x="645" y="621" on="0"/>
        <pt x="645" y="503" on="0"/>
        <pt x="610" y="458" on="1"/>
        <pt x="548" y="376" on="0"/>
        <pt x="419" y="352" on="1"/>
        <pt x="387" y="346" on="1"/>
        <pt x="437" y="172" on="0"/>
        <pt x="597" y="2" on="1"/>
        <pt x="582" y="-1" on="0"/>
        <pt x="551" y="-1" on="1"/>
        <pt x="474" y="2" on="1"/>
        <pt x="434" y="2" on="0"/>
        <pt x="345" y="159" on="0"/>
        <pt x="293" y="322" on="0"/>
        <pt x="293" y="349" on="1"/>
        <pt x="293" y="364" on="0"/>
        <pt x="307" y="365" on="1"/>
        <pt x="542" y="394" on="0"/>
        <pt x="549" y="549" on="1"/>
        <pt x="549" y="604" on="0"/>
        <pt x="484" y="664" on="0"/>
        <pt x="410" y="668" on="1"/>
        <pt x="332" y="563" on="0"/>
        <pt x="237" y="332" on="1"/>
        <pt x="143" y="97" on="0"/>
        <pt x="143" y="22" on="1"/>
        <pt x="143" y="7" on="0"/>
        <pt x="147" y="0" on="1"/>
        <pt x="18" y="0" on="1"/>
        <pt x="46" y="121" on="0"/>
        <pt x="136" y="336" on="1"/>
        <pt x="256" y="622" on="0"/>
        <pt x="291" y="661" on="1"/>
        <pt x="206" y="659" on="0"/>
        <pt x="31" y="594" on="0"/>
        <pt x="17" y="549" on="1"/>
        <pt x="16" y="546" on="0"/>
        <pt x="13" y="546" on="1"/>
        <pt x="4" y="546" on="0"/>
        <pt x="4" y="559" on="1"/>
        <pt x="4" y="561" on="0"/>
        <pt x="6" y="569" on="1"/>
        <pt x="25" y="624" on="0"/>
        <pt x="97" y="684" on="0"/>
        <pt x="166" y="698" on="0"/>
        <pt x="217" y="698" on="1"/>
        <pt x="460" y="698" on="1"/>
        <pt x="552" y="698" on="0"/>
      </contour>
    </TTGlyph>
    <TTGlyph name="S" xMin="52" yMin="-20" xMax="611" yMax="716">
      <contour>
        <pt x="531" y="716" on="0"/>
        <pt x="611" y="656" on="0"/>
        <pt x="611" y="571" on="0"/>
        <pt x="554" y="498" on="0"/>
        <pt x="452" y="498" on="0"/>
        <pt x="452" y="541" on="1"/>
        <pt x="452" y="545" on="0"/>
        <pt x="454" y="557" on="1"/>
        <pt x="481" y="557" on="0"/>
        <pt x="521" y="599" on="0"/>
        <pt x="521" y="649" on="0"/>
        <pt x="473" y="681" on="0"/>
        <pt x="439" y="681" on="1"/>
        <pt x="381" y="681" on="0"/>
        <pt x="305" y="611" on="0"/>
        <pt x="305" y="564" on="1"/>
        <pt x="305" y="539" on="0"/>
        <pt x="341" y="479" on="0"/>
        <pt x="374" y="444" on="0"/>
        <pt x="449" y="375" on="0"/>
        <pt x="456" y="368" on="1"/>
        <pt x="532" y="292" on="0"/>
        <pt x="532" y="113" on="0"/>
        <pt x="370" y="-20" on="0"/>
        <pt x="257" y="-20" on="1"/>
        <pt x="165" y="-20" on="0"/>
        <pt x="52" y="40" on="0"/>
        <pt x="52" y="104" on="1"/>
        <pt x="52" y="139" on="0"/>
        <pt x="98" y="197" on="0"/>
        <pt x="183" y="197" on="0"/>
        <pt x="198" y="167" on="1"/>
        <pt x="163" y="139" on="0"/>
        <pt x="163" y="60" on="0"/>
        <pt x="216" y="17" on="0"/>
        <pt x="259" y="17" on="1"/>
        <pt x="319" y="17" on="0"/>
        <pt x="410" y="103" on="0"/>
        <pt x="410" y="234" on="0"/>
        <pt x="324" y="325" on="1"/>
        <pt x="323" y="327" on="0"/>
        <pt x="255" y="398" on="0"/>
        <pt x="210" y="472" on="0"/>
        <pt x="210" y="523" on="1"/>
        <pt x="210" y="610" on="0"/>
        <pt x="346" y="716" on="0"/>
      </contour>
    </TTGlyph>
    <TTGlyph name="Scaron" xMin="12" yMin="-20" xMax="621" yMax="949">
      <contour>
        <pt x="491" y="716" on="0"/>
        <pt x="571" y="656" on="0"/>
        <pt x="571" y="571" on="0"/>
        <pt x="514" y="498" on="0"/>
        <pt x="412" y="498" on="0"/>
        <pt x="412" y="541" on="1"/>
        <pt x="412" y="545" on="0"/>
        <pt x="414" y="557" on="1"/>
        <pt x="441" y="557" on="0"/>
        <pt x="481" y="599" on="0"/>
        <pt x="481" y="649" on="0"/>
        <pt x="433" y="681" on="0"/>
        <pt x="399" y="681" on="1"/>
        <pt x="341" y="681" on="0"/>
        <pt x="265" y="611" on="0"/>
        <pt x="265" y="564" on="1"/>
        <pt x="265" y="539" on="0"/>
        <pt x="301" y="479" on="0"/>
        <pt x="334" y="444" on="0"/>
        <pt x="409" y="375" on="0"/>
        <pt x="416" y="368" on="1"/>
        <pt x="492" y="292" on="0"/>
        <pt x="492" y="113" on="0"/>
        <pt x="330" y="-20" on="0"/>
        <pt x="217" y="-20" on="1"/>
        <pt x="125" y="-20" on="0"/>
        <pt x="12" y="40" on="0"/>
        <pt x="12" y="104" on="1"/>
        <pt x="12" y="139" on="0"/>
        <pt x="58" y="197" on="0"/>
        <pt x="143" y="197" on="0"/>
        <pt x="158" y="167" on="1"/>
        <pt x="123" y="139" on="0"/>
        <pt x="123" y="60" on="0"/>
        <pt x="176" y="17" on="0"/>
        <pt x="219" y="17" on="1"/>
        <pt x="279" y="17" on="0"/>
        <pt x="370" y="103" on="0"/>
        <pt x="370" y="234" on="0"/>
        <pt x="284" y="325" on="1"/>
        <pt x="283" y="327" on="0"/>
        <pt x="215" y="398" on="0"/>
        <pt x="170" y="472" on="0"/>
        <pt x="170" y="523" on="1"/>
        <pt x="170" y="610" on="0"/>
        <pt x="306" y="716" on="0"/>
      </contour>
      <contour>
        <pt x="363" y="929" on="1"/>
        <pt x="363" y="933" on="0"/>
        <pt x="391" y="949" on="0"/>
        <pt x="414" y="949" on="0"/>
        <pt x="459" y="882" on="0"/>
        <pt x="475" y="850" on="1"/>
        <pt x="576" y="945" on="0"/>
        <pt x="603" y="945" on="1"/>
        <pt x="621" y="945" on="0"/>
        <pt x="621" y="942" on="1"/>
        <pt x="621" y="941" on="1"/>
        <pt x="525" y="863" on="0"/>
        <pt x="475" y="811" on="1"/>
        <pt x="466" y="801" on="0"/>
        <pt x="449" y="801" on="0"/>
        <pt x="418" y="846" on="0"/>
        <pt x="375" y="914" on="0"/>
      </contour>
    </TTGlyph>
    <TTGlyph name="T" xMin="0" yMin="-22" xMax="758" yMax="713">
      <contour>
        <pt x="605" y="627" on="1"/>
        <pt x="464" y="633" on="1"/>
        <pt x="454" y="633" on="0"/>
        <pt x="342" y="394" on="0"/>
        <pt x="260" y="170" on="0"/>
        <pt x="260" y="71" on="0"/>
        <pt x="323" y="71" on="0"/>
        <pt x="371" y="136" on="1"/>
        <pt x="376" y="142" on="0"/>
        <pt x="386" y="142" on="0"/>
        <pt x="386" y="124" on="0"/>
        <pt x="359" y="76" on="0"/>
        <pt x="315" y="21" on="0"/>
        <pt x="245" y="-22" on="0"/>
        <pt x="208" y="-22" on="1"/>
        <pt x="153" y="-22" on="0"/>
        <pt x="153" y="54" on="1"/>
        <pt x="153" y="148" on="0"/>
        <pt x="248" y="374" on="1"/>
        <pt x="316" y="533" on="0"/>
        <pt x="373" y="638" on="1"/>
        <pt x="360" y="638" on="1"/>
        <pt x="257" y="640" on="1"/>
        <pt x="171" y="640" on="0"/>
        <pt x="107" y="618" on="1"/>
        <pt x="72" y="606" on="0"/>
        <pt x="31" y="559" on="0"/>
        <pt x="31" y="526" on="1"/>
        <pt x="39" y="484" on="1"/>
        <pt x="39" y="474" on="0"/>
        <pt x="29" y="474" on="1"/>
        <pt x="16" y="474" on="0"/>
        <pt x="0" y="525" on="0"/>
        <pt x="0" y="544" on="1"/>
        <pt x="0" y="591" on="0"/>
        <pt x="44" y="657" on="0"/>
        <pt x="82" y="674" on="1"/>
        <pt x="154" y="706" on="0"/>
        <pt x="328" y="706" on="0"/>
        <pt x="548" y="685" on="0"/>
        <pt x="728" y="685" on="0"/>
        <pt x="755" y="713" on="1"/>
        <pt x="758" y="706" on="0"/>
        <pt x="758" y="699" on="1"/>
        <pt x="758" y="666" on="0"/>
        <pt x="674" y="627" on="0"/>
      </contour>
    </TTGlyph>
    <TTGlyph name="Thorn" xMin="-54" yMin="-149" xMax="597" yMax="724">
      <contour>
        <pt x="422" y="724" on="1"/>
        <pt x="465" y="721" on="1"/>
        <pt x="479" y="721" on="0"/>
        <pt x="494" y="723" on="1"/>
        <pt x="454" y="697" on="0"/>
        <pt x="364" y="549" on="1"/>
        <pt x="411" y="549" on="1"/>
        <pt x="503" y="549" on="0"/>
        <pt x="597" y="469" on="0"/>
        <pt x="597" y="408" on="1"/>
        <pt x="597" y="300" on="0"/>
        <pt x="378" y="153" on="0"/>
        <pt x="213" y="153" on="1"/>
        <pt x="190" y="153" on="0"/>
        <pt x="167" y="156" on="1"/>
        <pt x="84" y="-54" on="0"/>
        <pt x="84" y="-128" on="1"/>
        <pt x="84" y="-139" on="0"/>
        <pt x="88" y="-149" on="1"/>
        <pt x="-41" y="-149" on="1"/>
        <pt x="-1" y="16" on="0"/>
        <pt x="128" y="306" on="1"/>
        <pt x="133" y="317" on="0"/>
        <pt x="150" y="357" on="1"/>
        <pt x="180" y="431" on="0"/>
        <pt x="208" y="473" on="1"/>
        <pt x="228" y="512" on="1"/>
        <pt x="144" y="510" on="0"/>
        <pt x="-27" y="444" on="0"/>
        <pt x="-41" y="400" on="1"/>
        <pt x="-42" y="397" on="0"/>
        <pt x="-45" y="397" on="1"/>
        <pt x="-54" y="397" on="0"/>
        <pt x="-54" y="410" on="1"/>
        <pt x="-54" y="412" on="0"/>
        <pt x="-37" y="462" on="0"/>
        <pt x="9" y="516" on="0"/>
        <pt x="38" y="528" on="1"/>
        <pt x="87" y="549" on="0"/>
        <pt x="159" y="549" on="1"/>
        <pt x="248" y="549" on="1"/>
        <pt x="290" y="627" on="0"/>
        <pt x="326" y="677" on="1"/>
        <pt x="361" y="724" on="0"/>
      </contour>
      <contour>
        <pt x="258" y="172" on="0"/>
        <pt x="401" y="222" on="0"/>
        <pt x="492" y="324" on="0"/>
        <pt x="492" y="396" on="1"/>
        <pt x="492" y="511" on="0"/>
        <pt x="355" y="519" on="1"/>
        <pt x="284" y="428" on="0"/>
        <pt x="194" y="221" on="1"/>
        <pt x="173" y="172" on="1"/>
        <pt x="185" y="172" on="1"/>
      </contour>
    </TTGlyph>
    <TTGlyph name="U" xMin="40" yMin="-8" xMax="892" yMax="698">
      <contour>
        <pt x="308" y="630" on="1"/>
        <pt x="326" y="659" on="0"/>
        <pt x="327" y="661" on="1"/>
        <pt x="242" y="659" on="0"/>
        <pt x="67" y="594" on="0"/>
        <pt x="53" y="549" on="1"/>
        <pt x="52" y="546" on="0"/>
        <pt x="49" y="546" on="1"/>
        <pt x="40" y="546" on="0"/>
        <pt x="40" y="559" on="1"/>
        <pt x="40" y="561" on="0"/>
        <pt x="57" y="611" on="0"/>
        <pt x="103" y="665" on="0"/>
        <pt x="132" y="678" on="1"/>
        <pt x="181" y="698" on="0"/>
        <pt x="253" y="698" on="1"/>
        <pt x="480" y="698" on="1"/>
        <pt x="434" y="663" on="0"/>
        <pt x="299" y="409" on="0"/>
        <pt x="260" y="312" on="1"/>
        <pt x="205" y="185" on="0"/>
        <pt x="205" y="56" on="0"/>
        <pt x="256" y="56" on="1"/>
        <pt x="299" y="56" on="0"/>
        <pt x="435" y="179" on="0"/>
        <pt x="501" y="268" on="1"/>
        <pt x="631" y="445" on="0"/>
        <pt x="737" y="642" on="0"/>
        <pt x="795" y="698" on="0"/>
        <pt x="830" y="698" on="1"/>
        <pt x="892" y="698" on="1"/>
        <pt x="845" y="662" on="0"/>
        <pt x="755" y="482" on="1"/>
        <pt x="620" y="210" on="0"/>
        <pt x="620" y="91" on="1"/>
        <pt x="620" y="36" on="0"/>
        <pt x="655" y="36" on="1"/>
        <pt x="672" y="36" on="0"/>
        <pt x="695" y="49" on="1"/>
        <pt x="696" y="49" on="1"/>
        <pt x="699" y="49" on="0"/>
        <pt x="699" y="43" on="1"/>
        <pt x="699" y="24" on="0"/>
        <pt x="599" y="-8" on="0"/>
        <pt x="568" y="-8" on="1"/>
        <pt x="504" y="-8" on="0"/>
        <pt x="504" y="66" on="1"/>
        <pt x="504" y="103" on="0"/>
        <pt x="556" y="266" on="0"/>
        <pt x="596" y="353" on="1"/>
        <pt x="447" y="131" on="0"/>
        <pt x="374" y="66" on="1"/>
        <pt x="293" y="-7" on="0"/>
        <pt x="224" y="-7" on="1"/>
        <pt x="109" y="-7" on="0"/>
        <pt x="109" y="104" on="1"/>
        <pt x="109" y="186" on="0"/>
        <pt x="230" y="489" on="0"/>
      </contour>
    </TTGlyph>
    <TTGlyph name="Uacute" xMin="10" yMin="-8" xMax="862" yMax="858">
      <contour>
        <pt x="278" y="630" on="1"/>
        <pt x="296" y="659" on="0"/>
        <pt x="297" y="661" on="1"/>
        <pt x="212" y="659" on="0"/>
        <pt x="37" y="594" on="0"/>
        <pt x="23" y="549" on="1"/>
        <pt x="22" y="546" on="0"/>
        <pt x="19" y="546" on="1"/>
        <pt x="10" y="546" on="0"/>
        <pt x="10" y="559" on="1"/>
        <pt x="10" y="561" on="0"/>
        <pt x="27" y="611" on="0"/>
        <pt x="73" y="665" on="0"/>
        <pt x="102" y="678" on="1"/>
        <pt x="151" y="698" on="0"/>
        <pt x="223" y="698" on="1"/>
        <pt x="450" y="698" on="1"/>
        <pt x="404" y="663" on="0"/>
        <pt x="269" y="409" on="0"/>
        <pt x="230" y="312" on="1"/>
        <pt x="175" y="185" on="0"/>
        <pt x="175" y="56" on="0"/>
        <pt x="226" y="56" on="1"/>
        <pt x="269" y="56" on="0"/>
        <pt x="405" y="179" on="0"/>
        <pt x="471" y="268" on="1"/>
        <pt x="601" y="445" on="0"/>
        <pt x="707" y="642" on="0"/>
        <pt x="765" y="698" on="0"/>
        <pt x="800" y="698" on="1"/>
        <pt x="862" y="698" on="1"/>
        <pt x="815" y="662" on="0"/>
        <pt x="725" y="482" on="1"/>
        <pt x="590" y="210" on="0"/>
        <pt x="590" y="91" on="1"/>
        <pt x="590" y="36" on="0"/>
        <pt x="625" y="36" on="1"/>
        <pt x="642" y="36" on="0"/>
        <pt x="665" y="49" on="1"/>
        <pt x="666" y="49" on="1"/>
        <pt x="669" y="49" on="0"/>
        <pt x="669" y="43" on="1"/>
        <pt x="669" y="24" on="0"/>
        <pt x="569" y="-8" on="0"/>
        <pt x="538" y="-8" on="1"/>
        <pt x="474" y="-8" on="0"/>
        <pt x="474" y="66" on="1"/>
        <pt x="474" y="103" on="0"/>
        <pt x="526" y="266" on="0"/>
        <pt x="566" y="353" on="1"/>
        <pt x="417" y="131" on="0"/>
        <pt x="344" y="66" on="1"/>
        <pt x="263" y="-7" on="0"/>
        <pt x="194" y="-7" on="1"/>
        <pt x="79" y="-7" on="0"/>
        <pt x="79" y="104" on="1"/>
        <pt x="79" y="186" on="0"/>
        <pt x="200" y="489" on="0"/>
      </contour>
      <contour>
        <pt x="735" y="827" on="1"/>
        <pt x="695" y="810" on="0"/>
        <pt x="563" y="743" on="0"/>
        <pt x="557" y="743" on="0"/>
        <pt x="538" y="753" on="0"/>
        <pt x="538" y="755" on="1"/>
        <pt x="547" y="760" on="0"/>
        <pt x="660" y="843" on="0"/>
        <pt x="678" y="856" on="1"/>
        <pt x="682" y="858" on="0"/>
        <pt x="698" y="858" on="0"/>
        <pt x="737" y="836" on="0"/>
        <pt x="737" y="830" on="1"/>
        <pt x="737" y="828" on="0"/>
      </contour>
    </TTGlyph>
    <TTGlyph name="Ucircumflex" xMin="10" yMin="-8" xMax="862" yMax="881">
      <contour>
        <pt x="278" y="630" on="1"/>
        <pt x="296" y="659" on="0"/>
        <pt x="297" y="661" on="1"/>
        <pt x="212" y="659" on="0"/>
        <pt x="37" y="594" on="0"/>
        <pt x="23" y="549" on="1"/>
        <pt x="22" y="546" on="0"/>
        <pt x="19" y="546" on="1"/>
        <pt x="10" y="546" on="0"/>
        <pt x="10" y="559" on="1"/>
        <pt x="10" y="561" on="0"/>
        <pt x="27" y="611" on="0"/>
        <pt x="73" y="665" on="0"/>
        <pt x="102" y="678" on="1"/>
        <pt x="151" y="698" on="0"/>
        <pt x="223" y="698" on="1"/>
        <pt x="450" y="698" on="1"/>
        <pt x="404" y="663" on="0"/>
        <pt x="269" y="409" on="0"/>
        <pt x="230" y="312" on="1"/>
        <pt x="175" y="185" on="0"/>
        <pt x="175" y="56" on="0"/>
        <pt x="226" y="56" on="1"/>
        <pt x="269" y="56" on="0"/>
        <pt x="405" y="179" on="0"/>
        <pt x="471" y="268" on="1"/>
        <pt x="601" y="445" on="0"/>
        <pt x="707" y="642" on="0"/>
        <pt x="765" y="698" on="0"/>
        <pt x="800" y="698" on="1"/>
        <pt x="862" y="698" on="1"/>
        <pt x="815" y="662" on="0"/>
        <pt x="725" y="482" on="1"/>
        <pt x="590" y="210" on="0"/>
        <pt x="590" y="91" on="1"/>
        <pt x="590" y="36" on="0"/>
        <pt x="625" y="36" on="1"/>
        <pt x="642" y="36" on="0"/>
        <pt x="665" y="49" on="1"/>
        <pt x="666" y="49" on="1"/>
        <pt x="669" y="49" on="0"/>
        <pt x="669" y="43" on="1"/>
        <pt x="669" y="24" on="0"/>
        <pt x="569" y="-8" on="0"/>
        <pt x="538" y="-8" on="1"/>
        <pt x="474" y="-8" on="0"/>
        <pt x="474" y="66" on="1"/>
        <pt x="474" y="103" on="0"/>
        <pt x="526" y="266" on="0"/>
        <pt x="566" y="353" on="1"/>
        <pt x="417" y="131" on="0"/>
        <pt x="344" y="66" on="1"/>
        <pt x="263" y="-7" on="0"/>
        <pt x="194" y="-7" on="1"/>
        <pt x="79" y="-7" on="0"/>
        <pt x="79" y="104" on="1"/>
        <pt x="79" y="186" on="0"/>
        <pt x="200" y="489" on="0"/>
      </contour>
      <contour>
        <pt x="746" y="754" on="1"/>
        <pt x="746" y="753" on="1"/>
        <pt x="746" y="750" on="0"/>
        <pt x="717" y="734" on="0"/>
        <pt x="709" y="734" on="1"/>
        <pt x="695" y="734" on="0"/>
        <pt x="646" y="806" on="0"/>
        <pt x="634" y="833" on="1"/>
        <pt x="601" y="801" on="0"/>
        <pt x="520" y="738" on="0"/>
        <pt x="488" y="738" on="0"/>
        <pt x="488" y="741" on="1"/>
        <pt x="488" y="742" on="1"/>
        <pt x="584" y="820" on="0"/>
        <pt x="634" y="872" on="1"/>
        <pt x="642" y="881" on="0"/>
        <pt x="659" y="881" on="0"/>
        <pt x="690" y="836" on="0"/>
        <pt x="734" y="769" on="0"/>
      </contour>
    </TTGlyph>
    <TTGlyph name="Udieresis" xMin="10" yMin="-8" xMax="862" yMax="858">
      <contour>
        <pt x="278" y="630" on="1"/>
        <pt x="296" y="659" on="0"/>
        <pt x="297" y="661" on="1"/>
        <pt x="212" y="659" on="0"/>
        <pt x="37" y="594" on="0"/>
        <pt x="23" y="549" on="1"/>
        <pt x="22" y="546" on="0"/>
        <pt x="19" y="546" on="1"/>
        <pt x="10" y="546" on="0"/>
        <pt x="10" y="559" on="1"/>
        <pt x="10" y="561" on="0"/>
        <pt x="27" y="611" on="0"/>
        <pt x="73" y="665" on="0"/>
        <pt x="102" y="678" on="1"/>
        <pt x="151" y="698" on="0"/>
        <pt x="223" y="698" on="1"/>
        <pt x="450" y="698" on="1"/>
        <pt x="404" y="663" on="0"/>
        <pt x="269" y="409" on="0"/>
        <pt x="230" y="312" on="1"/>
        <pt x="175" y="185" on="0"/>
        <pt x="175" y="56" on="0"/>
        <pt x="226" y="56" on="1"/>
        <pt x="269" y="56" on="0"/>
        <pt x="405" y="179" on="0"/>
        <pt x="471" y="268" on="1"/>
        <pt x="601" y="445" on="0"/>
        <pt x="707" y="642" on="0"/>
        <pt x="765" y="698" on="0"/>
        <pt x="800" y="698" on="1"/>
        <pt x="862" y="698" on="1"/>
        <pt x="815" y="662" on="0"/>
        <pt x="725" y="482" on="1"/>
        <pt x="590" y="210" on="0"/>
        <pt x="590" y="91" on="1"/>
        <pt x="590" y="36" on="0"/>
        <pt x="625" y="36" on="1"/>
        <pt x="642" y="36" on="0"/>
        <pt x="665" y="49" on="1"/>
        <pt x="666" y="49" on="1"/>
        <pt x="669" y="49" on="0"/>
        <pt x="669" y="43" on="1"/>
        <pt x="669" y="24" on="0"/>
        <pt x="569" y="-8" on="0"/>
        <pt x="538" y="-8" on="1"/>
        <pt x="474" y="-8" on="0"/>
        <pt x="474" y="66" on="1"/>
        <pt x="474" y="103" on="0"/>
        <pt x="526" y="266" on="0"/>
        <pt x="566" y="353" on="1"/>
        <pt x="417" y="131" on="0"/>
        <pt x="344" y="66" on="1"/>
        <pt x="263" y="-7" on="0"/>
        <pt x="194" y="-7" on="1"/>
        <pt x="79" y="-7" on="0"/>
        <pt x="79" y="104" on="1"/>
        <pt x="79" y="186" on="0"/>
        <pt x="200" y="489" on="0"/>
      </contour>
      <contour>
        <pt x="741" y="804" on="1"/>
        <pt x="721" y="799" on="0"/>
        <pt x="678" y="754" on="0"/>
        <pt x="667" y="754" on="1"/>
        <pt x="646" y="754" on="0"/>
        <pt x="646" y="788" on="0"/>
        <pt x="695" y="858" on="0"/>
        <pt x="716" y="858" on="1"/>
        <pt x="727" y="858" on="0"/>
        <pt x="747" y="828" on="0"/>
        <pt x="747" y="805" on="0"/>
      </contour>
      <contour>
        <pt x="554" y="804" on="1"/>
        <pt x="534" y="799" on="0"/>
        <pt x="491" y="754" on="0"/>
        <pt x="480" y="754" on="1"/>
        <pt x="459" y="754" on="0"/>
        <pt x="459" y="788" on="0"/>
        <pt x="508" y="858" on="0"/>
        <pt x="529" y="858" on="1"/>
        <pt x="540" y="858" on="0"/>
        <pt x="560" y="828" on="0"/>
        <pt x="560" y="805" on="0"/>
      </contour>
    </TTGlyph>
    <TTGlyph name="Ugrave" xMin="10" yMin="-8" xMax="862" yMax="861">
      <contour>
        <pt x="278" y="630" on="1"/>
        <pt x="296" y="659" on="0"/>
        <pt x="297" y="661" on="1"/>
        <pt x="212" y="659" on="0"/>
        <pt x="37" y="594" on="0"/>
        <pt x="23" y="549" on="1"/>
        <pt x="22" y="546" on="0"/>
        <pt x="19" y="546" on="1"/>
        <pt x="10" y="546" on="0"/>
        <pt x="10" y="559" on="1"/>
        <pt x="10" y="561" on="0"/>
        <pt x="27" y="611" on="0"/>
        <pt x="73" y="665" on="0"/>
        <pt x="102" y="678" on="1"/>
        <pt x="151" y="698" on="0"/>
        <pt x="223" y="698" on="1"/>
        <pt x="450" y="698" on="1"/>
        <pt x="404" y="663" on="0"/>
        <pt x="269" y="409" on="0"/>
        <pt x="230" y="312" on="1"/>
        <pt x="175" y="185" on="0"/>
        <pt x="175" y="56" on="0"/>
        <pt x="226" y="56" on="1"/>
        <pt x="269" y="56" on="0"/>
        <pt x="405" y="179" on="0"/>
        <pt x="471" y="268" on="1"/>
        <pt x="601" y="445" on="0"/>
        <pt x="707" y="642" on="0"/>
        <pt x="765" y="698" on="0"/>
        <pt x="800" y="698" on="1"/>
        <pt x="862" y="698" on="1"/>
        <pt x="815" y="662" on="0"/>
        <pt x="725" y="482" on="1"/>
        <pt x="590" y="210" on="0"/>
        <pt x="590" y="91" on="1"/>
        <pt x="590" y="36" on="0"/>
        <pt x="625" y="36" on="1"/>
        <pt x="642" y="36" on="0"/>
        <pt x="665" y="49" on="1"/>
        <pt x="666" y="49" on="1"/>
        <pt x="669" y="49" on="0"/>
        <pt x="669" y="43" on="1"/>
        <pt x="669" y="24" on="0"/>
        <pt x="569" y="-8" on="0"/>
        <pt x="538" y="-8" on="1"/>
        <pt x="474" y="-8" on="0"/>
        <pt x="474" y="66" on="1"/>
        <pt x="474" y="103" on="0"/>
        <pt x="526" y="266" on="0"/>
        <pt x="566" y="353" on="1"/>
        <pt x="417" y="131" on="0"/>
        <pt x="344" y="66" on="1"/>
        <pt x="263" y="-7" on="0"/>
        <pt x="194" y="-7" on="1"/>
        <pt x="79" y="-7" on="0"/>
        <pt x="79" y="104" on="1"/>
        <pt x="79" y="186" on="0"/>
        <pt x="200" y="489" on="0"/>
      </contour>
      <contour>
        <pt x="568" y="796" on="1"/>
        <pt x="525" y="817" on="0"/>
        <pt x="492" y="832" on="0"/>
        <pt x="492" y="833" on="1"/>
        <pt x="492" y="839" on="0"/>
        <pt x="532" y="861" on="0"/>
        <pt x="548" y="861" on="0"/>
        <pt x="552" y="859" on="1"/>
        <pt x="570" y="846" on="0"/>
        <pt x="604" y="820" on="1"/>
        <pt x="662" y="778" on="1"/>
        <pt x="685" y="761" on="0"/>
        <pt x="692" y="758" on="1"/>
        <pt x="692" y="755" on="0"/>
        <pt x="672" y="746" on="0"/>
        <pt x="667" y="746" on="0"/>
        <pt x="639" y="760" on="1"/>
      </contour>
    </TTGlyph>
    <TTGlyph name="V" xMin="40" yMin="0" xMax="670" yMax="711">
      <contour>
        <pt x="580" y="698" on="1"/>
        <pt x="670" y="698" on="1"/>
        <pt x="637" y="644" on="0"/>
        <pt x="321" y="160" on="0"/>
        <pt x="277" y="91" on="0"/>
        <pt x="257" y="60" on="0"/>
        <pt x="248" y="45" on="0"/>
        <pt x="229" y="21" on="0"/>
        <pt x="222" y="15" on="1"/>
        <pt x="203" y="0" on="0"/>
        <pt x="182" y="0" on="1"/>
        <pt x="118" y="0" on="1"/>
        <pt x="134" y="31" on="0"/>
        <pt x="140" y="110" on="0"/>
        <pt x="143" y="198" on="0"/>
        <pt x="148" y="301" on="0"/>
        <pt x="148" y="355" on="1"/>
        <pt x="148" y="620" on="0"/>
        <pt x="88" y="620" on="1"/>
        <pt x="67" y="620" on="0"/>
        <pt x="45" y="585" on="1"/>
        <pt x="44" y="584" on="1"/>
        <pt x="40" y="584" on="0"/>
        <pt x="40" y="590" on="1"/>
        <pt x="40" y="591" on="1"/>
        <pt x="52" y="628" on="0"/>
        <pt x="139" y="711" on="0"/>
        <pt x="170" y="711" on="1"/>
        <pt x="219" y="711" on="0"/>
        <pt x="251" y="552" on="0"/>
        <pt x="251" y="249" on="0"/>
        <pt x="239" y="111" on="1"/>
        <pt x="318" y="222" on="0"/>
        <pt x="543" y="614" on="0"/>
      </contour>
    </TTGlyph>
    <TTGlyph name="W" xMin="10" yMin="-4" xMax="1103" yMax="709">
      <contour>
        <pt x="1103" y="607" on="1"/>
        <pt x="1103" y="591" on="1"/>
        <pt x="1103" y="490" on="0"/>
        <pt x="981" y="232" on="0"/>
        <pt x="892" y="134" on="1"/>
        <pt x="844" y="82" on="0"/>
        <pt x="715" y="6" on="0"/>
        <pt x="649" y="6" on="1"/>
        <pt x="525" y="6" on="0"/>
        <pt x="525" y="192" on="1"/>
        <pt x="525" y="260" on="0"/>
        <pt x="543" y="350" on="1"/>
        <pt x="462" y="190" on="0"/>
        <pt x="388" y="104" on="1"/>
        <pt x="294" y="-4" on="0"/>
        <pt x="191" y="-4" on="1"/>
        <pt x="144" y="-4" on="0"/>
        <pt x="83" y="66" on="0"/>
        <pt x="83" y="143" on="1"/>
        <pt x="83" y="244" on="0"/>
        <pt x="226" y="541" on="0"/>
        <pt x="325" y="629" on="1"/>
        <pt x="343" y="646" on="0"/>
        <pt x="370" y="656" on="1"/>
        <pt x="332" y="648" on="0"/>
        <pt x="174" y="631" on="0"/>
        <pt x="148" y="625" on="1"/>
        <pt x="41" y="601" on="0"/>
        <pt x="41" y="497" on="1"/>
        <pt x="10" y="529" on="0"/>
        <pt x="10" y="566" on="1"/>
        <pt x="10" y="698" on="0"/>
        <pt x="264" y="698" on="1"/>
        <pt x="469" y="698" on="1"/>
        <pt x="471" y="698" on="0"/>
        <pt x="471" y="691" on="0"/>
        <pt x="446" y="663" on="0"/>
        <pt x="435" y="656" on="1"/>
        <pt x="392" y="630" on="0"/>
        <pt x="280" y="466" on="0"/>
        <pt x="188" y="241" on="0"/>
        <pt x="188" y="63" on="0"/>
        <pt x="251" y="63" on="1"/>
        <pt x="322" y="63" on="0"/>
        <pt x="473" y="287" on="1"/>
        <pt x="504" y="334" on="0"/>
        <pt x="584" y="521" on="0"/>
        <pt x="616" y="582" on="0"/>
        <pt x="699" y="645" on="0"/>
        <pt x="768" y="645" on="0"/>
        <pt x="768" y="635" on="1"/>
        <pt x="715" y="563" on="0"/>
        <pt x="621" y="317" on="0"/>
        <pt x="621" y="205" on="1"/>
        <pt x="621" y="68" on="0"/>
        <pt x="702" y="63" on="1"/>
        <pt x="754" y="63" on="0"/>
        <pt x="855" y="163" on="0"/>
        <pt x="924" y="294" on="0"/>
        <pt x="954" y="376" on="1"/>
        <pt x="1005" y="513" on="0"/>
        <pt x="1005" y="675" on="0"/>
        <pt x="952" y="675" on="1"/>
        <pt x="936" y="675" on="0"/>
        <pt x="916" y="668" on="1"/>
        <pt x="918" y="686" on="0"/>
        <pt x="963" y="709" on="0"/>
        <pt x="1036" y="709" on="0"/>
        <pt x="1100" y="658" on="0"/>
      </contour>
    </TTGlyph>
    <TTGlyph name="X" xMin="0" yMin="0" xMax="790" yMax="697">
      <contour>
        <pt x="790" y="695" on="1"/>
        <pt x="619" y="548" on="0"/>
        <pt x="446" y="373" on="1"/>
        <pt x="505" y="151" on="0"/>
        <pt x="548" y="46" on="1"/>
        <pt x="564" y="8" on="0"/>
        <pt x="571" y="0" on="1"/>
        <pt x="430" y="0" on="1"/>
        <pt x="355" y="280" on="1"/>
        <pt x="223" y="141" on="0"/>
        <pt x="108" y="0" on="1"/>
        <pt x="0" y="0" on="1"/>
        <pt x="202" y="185" on="0"/>
        <pt x="343" y="327" on="1"/>
        <pt x="276" y="588" on="1"/>
        <pt x="265" y="631" on="0"/>
        <pt x="191" y="631" on="0"/>
        <pt x="152" y="592" on="1"/>
        <pt x="151" y="591" on="0"/>
        <pt x="149" y="591" on="1"/>
        <pt x="142" y="591" on="0"/>
        <pt x="142" y="608" on="0"/>
        <pt x="145" y="611" on="1"/>
        <pt x="179" y="644" on="0"/>
        <pt x="276" y="697" on="0"/>
        <pt x="344" y="697" on="0"/>
        <pt x="374" y="667" on="0"/>
        <pt x="385" y="634" on="0"/>
        <pt x="409" y="525" on="0"/>
        <pt x="434" y="419" on="1"/>
        <pt x="562" y="550" on="0"/>
        <pt x="675" y="679" on="1"/>
        <pt x="691" y="696" on="0"/>
        <pt x="738" y="696" on="1"/>
        <pt x="748" y="696" on="0"/>
        <pt x="783" y="695" on="0"/>
      </contour>
    </TTGlyph>
    <TTGlyph name="Y" xMin="4" yMin="0" xMax="756" yMax="699">
      <contour>
        <pt x="756" y="698" on="1"/>
        <pt x="662" y="633" on="0"/>
        <pt x="570" y="529" on="1"/>
        <pt x="456" y="400" on="0"/>
        <pt x="388" y="251" on="1"/>
        <pt x="350" y="166" on="0"/>
        <pt x="332" y="80" on="1"/>
        <pt x="324" y="43" on="0"/>
        <pt x="324" y="7" on="0"/>
        <pt x="328" y="0" on="1"/>
        <pt x="199" y="0" on="1"/>
        <pt x="203" y="17" on="0"/>
        <pt x="274" y="231" on="0"/>
        <pt x="274" y="326" on="0"/>
        <pt x="228" y="486" on="0"/>
        <pt x="151" y="619" on="0"/>
        <pt x="115" y="619" on="1"/>
        <pt x="70" y="619" on="0"/>
        <pt x="11" y="541" on="1"/>
        <pt x="10" y="540" on="0"/>
        <pt x="9" y="540" on="1"/>
        <pt x="4" y="540" on="0"/>
        <pt x="4" y="556" on="0"/>
        <pt x="5" y="557" on="1"/>
        <pt x="40" y="628" on="0"/>
        <pt x="118" y="695" on="0"/>
        <pt x="238" y="695" on="0"/>
        <pt x="292" y="633" on="0"/>
        <pt x="347" y="446" on="0"/>
        <pt x="374" y="337" on="1"/>
        <pt x="395" y="366" on="0"/>
        <pt x="577" y="626" on="0"/>
        <pt x="617" y="678" on="1"/>
        <pt x="633" y="699" on="0"/>
        <pt x="699" y="699" on="1"/>
        <pt x="710" y="699" on="0"/>
        <pt x="749" y="698" on="0"/>
      </contour>
    </TTGlyph>
    <TTGlyph name="Yacute" xMin="4" yMin="0" xMax="756" yMax="841">
      <contour>
        <pt x="756" y="698" on="1"/>
        <pt x="662" y="633" on="0"/>
        <pt x="570" y="529" on="1"/>
        <pt x="456" y="400" on="0"/>
        <pt x="388" y="251" on="1"/>
        <pt x="350" y="166" on="0"/>
        <pt x="332" y="80" on="1"/>
        <pt x="324" y="43" on="0"/>
        <pt x="324" y="7" on="0"/>
        <pt x="328" y="0" on="1"/>
        <pt x="199" y="0" on="1"/>
        <pt x="203" y="17" on="0"/>
        <pt x="274" y="231" on="0"/>
        <pt x="274" y="326" on="0"/>
        <pt x="228" y="486" on="0"/>
        <pt x="151" y="619" on="0"/>
        <pt x="115" y="619" on="1"/>
        <pt x="70" y="619" on="0"/>
        <pt x="11" y="541" on="1"/>
        <pt x="10" y="540" on="0"/>
        <pt x="9" y="540" on="1"/>
        <pt x="4" y="540" on="0"/>
        <pt x="4" y="556" on="0"/>
        <pt x="5" y="557" on="1"/>
        <pt x="40" y="628" on="0"/>
        <pt x="118" y="695" on="0"/>
        <pt x="238" y="695" on="0"/>
        <pt x="292" y="633" on="0"/>
        <pt x="347" y="446" on="0"/>
        <pt x="374" y="337" on="1"/>
        <pt x="395" y="366" on="0"/>
        <pt x="577" y="626" on="0"/>
        <pt x="617" y="678" on="1"/>
        <pt x="633" y="699" on="0"/>
        <pt x="699" y="699" on="1"/>
        <pt x="710" y="699" on="0"/>
        <pt x="749" y="698" on="0"/>
      </contour>
      <contour>
        <pt x="591" y="810" on="1"/>
        <pt x="551" y="793" on="0"/>
        <pt x="419" y="726" on="0"/>
        <pt x="413" y="726" on="0"/>
        <pt x="394" y="736" on="0"/>
        <pt x="394" y="738" on="1"/>
        <pt x="403" y="743" on="0"/>
        <pt x="516" y="826" on="0"/>
        <pt x="534" y="839" on="1"/>
        <pt x="538" y="841" on="0"/>
        <pt x="554" y="841" on="0"/>
        <pt x="593" y="819" on="0"/>
        <pt x="593" y="813" on="1"/>
        <pt x="593" y="811" on="0"/>
      </contour>
    </TTGlyph>
    <TTGlyph name="Ydieresis" xMin="24" yMin="0" xMax="668" yMax="853">
      <contour>
        <pt x="552" y="799" on="1"/>
        <pt x="532" y="794" on="0"/>
        <pt x="489" y="749" on="0"/>
        <pt x="478" y="749" on="1"/>
        <pt x="457" y="749" on="0"/>
        <pt x="457" y="783" on="0"/>
        <pt x="506" y="853" on="0"/>
        <pt x="527" y="853" on="1"/>
        <pt x="538" y="853" on="0"/>
        <pt x="558" y="823" on="0"/>
        <pt x="558" y="800" on="0"/>
      </contour>
      <contour>
        <pt x="365" y="799" on="1"/>
        <pt x="345" y="794" on="0"/>
        <pt x="302" y="749" on="0"/>
        <pt x="291" y="749" on="1"/>
        <pt x="270" y="749" on="0"/>
        <pt x="270" y="783" on="0"/>
        <pt x="319" y="853" on="0"/>
        <pt x="340" y="853" on="1"/>
        <pt x="351" y="853" on="0"/>
        <pt x="371" y="823" on="0"/>
        <pt x="371" y="800" on="0"/>
      </contour>
      <contour>
        <pt x="668" y="698" on="1"/>
        <pt x="554" y="617" on="0"/>
        <pt x="434" y="470" on="1"/>
        <pt x="370" y="392" on="0"/>
        <pt x="267" y="187" on="0"/>
        <pt x="231" y="17" on="0"/>
        <pt x="231" y="6" on="0"/>
        <pt x="233" y="0" on="1"/>
        <pt x="111" y="0" on="1"/>
        <pt x="115" y="17" on="0"/>
        <pt x="187" y="231" on="0"/>
        <pt x="187" y="318" on="0"/>
        <pt x="136" y="483" on="0"/>
        <pt x="77" y="633" on="0"/>
        <pt x="59" y="659" on="1"/>
        <pt x="50" y="670" on="0"/>
        <pt x="24" y="685" on="1"/>
        <pt x="24" y="689" on="0"/>
        <pt x="38" y="698" on="0"/>
        <pt x="47" y="698" on="1"/>
        <pt x="154" y="698" on="1"/>
        <pt x="174" y="698" on="0"/>
        <pt x="188" y="686" on="0"/>
        <pt x="224" y="574" on="0"/>
        <pt x="286" y="337" on="1"/>
        <pt x="454" y="577" on="0"/>
        <pt x="529" y="678" on="1"/>
        <pt x="545" y="699" on="0"/>
        <pt x="612" y="699" on="1"/>
        <pt x="623" y="699" on="0"/>
        <pt x="661" y="698" on="0"/>
      </contour>
    </TTGlyph>
    <TTGlyph name="Z" xMin="0" yMin="-13" xMax="800" yMax="702">
      <contour>
        <pt x="800" y="698" on="1"/>
        <pt x="559" y="488" on="0"/>
        <pt x="193" y="128" on="1"/>
        <pt x="221" y="114" on="0"/>
        <pt x="275" y="103" on="1"/>
        <pt x="411" y="72" on="0"/>
        <pt x="489" y="72" on="1"/>
        <pt x="614" y="72" on="0"/>
        <pt x="614" y="144" on="1"/>
        <pt x="614" y="163" on="0"/>
        <pt x="600" y="173" on="1"/>
        <pt x="600" y="175" on="0"/>
        <pt x="607" y="183" on="0"/>
        <pt x="609" y="183" on="1"/>
        <pt x="637" y="182" on="0"/>
        <pt x="680" y="142" on="0"/>
        <pt x="680" y="114" on="1"/>
        <pt x="680" y="66" on="0"/>
        <pt x="581" y="-13" on="0"/>
        <pt x="438" y="-13" on="0"/>
        <pt x="301" y="37" on="0"/>
        <pt x="197" y="88" on="0"/>
        <pt x="152" y="88" on="0"/>
        <pt x="62" y="-11" on="0"/>
        <pt x="36" y="-11" on="1"/>
        <pt x="20" y="-11" on="0"/>
        <pt x="0" y="12" on="0"/>
        <pt x="0" y="29" on="1"/>
        <pt x="0" y="59" on="0"/>
        <pt x="31" y="78" on="1"/>
        <pt x="157" y="156" on="0"/>
        <pt x="561" y="541" on="0"/>
        <pt x="648" y="628" on="1"/>
        <pt x="612" y="612" on="0"/>
        <pt x="506" y="588" on="0"/>
        <pt x="441" y="588" on="0"/>
        <pt x="309" y="601" on="0"/>
        <pt x="260" y="601" on="0"/>
        <pt x="201" y="550" on="0"/>
        <pt x="198" y="516" on="1"/>
        <pt x="198" y="510" on="0"/>
        <pt x="188" y="510" on="1"/>
        <pt x="181" y="510" on="0"/>
        <pt x="181" y="530" on="1"/>
        <pt x="181" y="571" on="0"/>
        <pt x="244" y="666" on="0"/>
        <pt x="303" y="701" on="0"/>
        <pt x="398" y="701" on="0"/>
        <pt x="558" y="665" on="0"/>
        <pt x="663" y="665" on="0"/>
        <pt x="741" y="702" on="0"/>
        <pt x="791" y="702" on="0"/>
      </contour>
    </TTGlyph>
    <TTGlyph name="Zcaron" xMin="-6" yMin="0" xMax="663" yMax="905">
      <contour>
        <pt x="149" y="69" on="1"/>
        <pt x="149" y="49" on="0"/>
        <pt x="362" y="49" on="1"/>
        <pt x="491" y="49" on="0"/>
        <pt x="531" y="71" on="1"/>
        <pt x="553" y="83" on="0"/>
        <pt x="566" y="103" on="1"/>
        <pt x="568" y="107" on="0"/>
        <pt x="576" y="107" on="0"/>
        <pt x="576" y="103" on="1"/>
        <pt x="565" y="59" on="0"/>
        <pt x="515" y="0" on="0"/>
        <pt x="495" y="0" on="1"/>
        <pt x="19" y="0" on="1"/>
        <pt x="-6" y="0" on="0"/>
        <pt x="-6" y="19" on="1"/>
        <pt x="-6" y="30" on="0"/>
        <pt x="16" y="88" on="0"/>
        <pt x="32" y="106" on="1"/>
        <pt x="326" y="441" on="0"/>
        <pt x="463" y="611" on="1"/>
        <pt x="478" y="630" on="0"/>
        <pt x="478" y="638" on="1"/>
        <pt x="478" y="649" on="0"/>
        <pt x="423" y="649" on="1"/>
        <pt x="360" y="648" on="1"/>
        <pt x="360" y="648" on="0"/>
        <pt x="310" y="648" on="1"/>
        <pt x="290" y="648" on="0"/>
        <pt x="250" y="647" on="0"/>
        <pt x="229" y="644" on="0"/>
        <pt x="195" y="639" on="0"/>
        <pt x="175" y="631" on="0"/>
        <pt x="163" y="626" on="1"/>
        <pt x="139" y="614" on="0"/>
        <pt x="127" y="595" on="1"/>
        <pt x="124" y="591" on="0"/>
        <pt x="116" y="591" on="0"/>
        <pt x="116" y="595" on="1"/>
        <pt x="127" y="639" on="0"/>
        <pt x="178" y="698" on="0"/>
        <pt x="197" y="698" on="1"/>
        <pt x="589" y="698" on="1"/>
        <pt x="636" y="700" on="1"/>
        <pt x="663" y="700" on="0"/>
        <pt x="663" y="679" on="0"/>
        <pt x="641" y="654" on="1"/>
        <pt x="483" y="483" on="0"/>
        <pt x="168" y="101" on="1"/>
        <pt x="149" y="78" on="0"/>
      </contour>
      <contour>
        <pt x="356" y="885" on="1"/>
        <pt x="356" y="889" on="0"/>
        <pt x="384" y="905" on="0"/>
        <pt x="393" y="905" on="1"/>
        <pt x="418" y="905" on="0"/>
        <pt x="468" y="806" on="1"/>
        <pt x="569" y="901" on="0"/>
        <pt x="596" y="901" on="1"/>
        <pt x="614" y="901" on="0"/>
        <pt x="614" y="898" on="1"/>
        <pt x="614" y="897" on="1"/>
        <pt x="518" y="819" on="0"/>
        <pt x="468" y="767" on="1"/>
        <pt x="459" y="757" on="0"/>
        <pt x="442" y="757" on="0"/>
        <pt x="411" y="802" on="0"/>
        <pt x="368" y="870" on="0"/>
      </contour>
    </TTGlyph>
    <TTGlyph name="a" xMin="28" yMin="-6" xMax="555" yMax="404">
      <contour>
        <pt x="445" y="400" on="1"/>
        <pt x="495" y="399" on="1"/>
        <pt x="505" y="399" on="1"/>
        <pt x="472" y="372" on="0"/>
        <pt x="376" y="153" on="0"/>
        <pt x="376" y="103" on="1"/>
        <pt x="376" y="77" on="0"/>
        <pt x="394" y="77" on="1"/>
        <pt x="452" y="77" on="0"/>
        <pt x="542" y="248" on="1"/>
        <pt x="546" y="255" on="0"/>
        <pt x="549" y="255" on="1"/>
        <pt x="555" y="255" on="0"/>
        <pt x="555" y="218" on="0"/>
        <pt x="545" y="201" on="1"/>
        <pt x="422" y="-6" on="0"/>
        <pt x="339" y="-6" on="1"/>
        <pt x="285" y="-6" on="0"/>
        <pt x="285" y="77" on="1"/>
        <pt x="285" y="139" on="0"/>
        <pt x="306" y="199" on="1"/>
        <pt x="192" y="-3" on="0"/>
        <pt x="95" y="-3" on="1"/>
        <pt x="28" y="-3" on="0"/>
        <pt x="28" y="89" on="1"/>
        <pt x="28" y="159" on="0"/>
        <pt x="89" y="303" on="0"/>
        <pt x="203" y="404" on="0"/>
        <pt x="271" y="404" on="1"/>
        <pt x="303" y="404" on="0"/>
        <pt x="359" y="375" on="0"/>
        <pt x="368" y="343" on="1"/>
        <pt x="379" y="366" on="0"/>
        <pt x="425" y="400" on="0"/>
      </contour>
      <contour>
        <pt x="362" y="334" on="1"/>
        <pt x="352" y="366" on="0"/>
        <pt x="315" y="366" on="1"/>
        <pt x="249" y="366" on="0"/>
        <pt x="125" y="183" on="0"/>
        <pt x="125" y="111" on="1"/>
        <pt x="125" y="80" on="0"/>
        <pt x="149" y="80" on="1"/>
        <pt x="175" y="80" on="0"/>
        <pt x="245" y="145" on="0"/>
        <pt x="273" y="189" on="1"/>
        <pt x="335" y="287" on="0"/>
      </contour>
    </TTGlyph>
    <TTGlyph name="aacute" xMin="28" yMin="-6" xMax="555" yMax="619">
      <contour>
        <pt x="445" y="400" on="1"/>
        <pt x="495" y="399" on="1"/>
        <pt x="505" y="399" on="1"/>
        <pt x="472" y="372" on="0"/>
        <pt x="376" y="153" on="0"/>
        <pt x="376" y="103" on="1"/>
        <pt x="376" y="77" on="0"/>
        <pt x="394" y="77" on="1"/>
        <pt x="452" y="77" on="0"/>
        <pt x="542" y="248" on="1"/>
        <pt x="546" y="255" on="0"/>
        <pt x="549" y="255" on="1"/>
        <pt x="555" y="255" on="0"/>
        <pt x="555" y="218" on="0"/>
        <pt x="545" y="201" on="1"/>
        <pt x="422" y="-6" on="0"/>
        <pt x="339" y="-6" on="1"/>
        <pt x="285" y="-6" on="0"/>
        <pt x="285" y="77" on="1"/>
        <pt x="285" y="139" on="0"/>
        <pt x="306" y="199" on="1"/>
        <pt x="192" y="-3" on="0"/>
        <pt x="95" y="-3" on="1"/>
        <pt x="28" y="-3" on="0"/>
        <pt x="28" y="89" on="1"/>
        <pt x="28" y="159" on="0"/>
        <pt x="89" y="303" on="0"/>
        <pt x="203" y="404" on="0"/>
        <pt x="271" y="404" on="1"/>
        <pt x="303" y="404" on="0"/>
        <pt x="359" y="375" on="0"/>
        <pt x="368" y="343" on="1"/>
        <pt x="379" y="366" on="0"/>
        <pt x="425" y="400" on="0"/>
      </contour>
      <contour>
        <pt x="362" y="334" on="1"/>
        <pt x="352" y="366" on="0"/>
        <pt x="315" y="366" on="1"/>
        <pt x="249" y="366" on="0"/>
        <pt x="125" y="183" on="0"/>
        <pt x="125" y="111" on="1"/>
        <pt x="125" y="80" on="0"/>
        <pt x="149" y="80" on="1"/>
        <pt x="175" y="80" on="0"/>
        <pt x="245" y="145" on="0"/>
        <pt x="273" y="189" on="1"/>
        <pt x="335" y="287" on="0"/>
      </contour>
      <contour>
        <pt x="469" y="588" on="1"/>
        <pt x="429" y="571" on="0"/>
        <pt x="297" y="504" on="0"/>
        <pt x="291" y="504" on="0"/>
        <pt x="272" y="514" on="0"/>
        <pt x="272" y="516" on="1"/>
        <pt x="281" y="521" on="0"/>
        <pt x="394" y="604" on="0"/>
        <pt x="412" y="617" on="1"/>
        <pt x="416" y="619" on="0"/>
        <pt x="432" y="619" on="0"/>
        <pt x="471" y="597" on="0"/>
        <pt x="471" y="591" on="1"/>
        <pt x="471" y="589" on="0"/>
      </contour>
    </TTGlyph>
    <TTGlyph name="acircumflex" xMin="28" yMin="-6" xMax="555" yMax="638">
      <contour>
        <pt x="445" y="400" on="1"/>
        <pt x="495" y="399" on="1"/>
        <pt x="505" y="399" on="1"/>
        <pt x="472" y="372" on="0"/>
        <pt x="376" y="153" on="0"/>
        <pt x="376" y="103" on="1"/>
        <pt x="376" y="77" on="0"/>
        <pt x="394" y="77" on="1"/>
        <pt x="452" y="77" on="0"/>
        <pt x="542" y="248" on="1"/>
        <pt x="546" y="255" on="0"/>
        <pt x="549" y="255" on="1"/>
        <pt x="555" y="255" on="0"/>
        <pt x="555" y="218" on="0"/>
        <pt x="545" y="201" on="1"/>
        <pt x="422" y="-6" on="0"/>
        <pt x="339" y="-6" on="1"/>
        <pt x="285" y="-6" on="0"/>
        <pt x="285" y="77" on="1"/>
        <pt x="285" y="139" on="0"/>
        <pt x="306" y="199" on="1"/>
        <pt x="192" y="-3" on="0"/>
        <pt x="95" y="-3" on="1"/>
        <pt x="28" y="-3" on="0"/>
        <pt x="28" y="89" on="1"/>
        <pt x="28" y="159" on="0"/>
        <pt x="89" y="303" on="0"/>
        <pt x="203" y="404" on="0"/>
        <pt x="271" y="404" on="1"/>
        <pt x="303" y="404" on="0"/>
        <pt x="359" y="375" on="0"/>
        <pt x="368" y="343" on="1"/>
        <pt x="379" y="366" on="0"/>
        <pt x="425" y="400" on="0"/>
      </contour>
      <contour>
        <pt x="362" y="334" on="1"/>
        <pt x="352" y="366" on="0"/>
        <pt x="315" y="366" on="1"/>
        <pt x="249" y="366" on="0"/>
        <pt x="125" y="183" on="0"/>
        <pt x="125" y="111" on="1"/>
        <pt x="125" y="80" on="0"/>
        <pt x="149" y="80" on="1"/>
        <pt x="175" y="80" on="0"/>
        <pt x="245" y="145" on="0"/>
        <pt x="273" y="189" on="1"/>
        <pt x="335" y="287" on="0"/>
      </contour>
      <contour>
        <pt x="476" y="511" on="1"/>
        <pt x="476" y="510" on="1"/>
        <pt x="476" y="507" on="0"/>
        <pt x="447" y="491" on="0"/>
        <pt x="439" y="491" on="1"/>
        <pt x="425" y="491" on="0"/>
        <pt x="376" y="563" on="0"/>
        <pt x="364" y="590" on="1"/>
        <pt x="331" y="558" on="0"/>
        <pt x="250" y="495" on="0"/>
        <pt x="218" y="495" on="0"/>
        <pt x="218" y="498" on="1"/>
        <pt x="218" y="499" on="1"/>
        <pt x="314" y="577" on="0"/>
        <pt x="364" y="629" on="1"/>
        <pt x="372" y="638" on="0"/>
        <pt x="389" y="638" on="0"/>
        <pt x="420" y="593" on="0"/>
        <pt x="464" y="526" on="0"/>
      </contour>
    </TTGlyph>
    <TTGlyph name="acute" xMin="283" yMin="526" xMax="482" yMax="641">
      <contour>
        <pt x="480" y="610" on="1"/>
        <pt x="440" y="593" on="0"/>
        <pt x="308" y="526" on="0"/>
        <pt x="302" y="526" on="0"/>
        <pt x="283" y="536" on="0"/>
        <pt x="283" y="538" on="1"/>
        <pt x="292" y="543" on="0"/>
        <pt x="405" y="626" on="0"/>
        <pt x="423" y="639" on="1"/>
        <pt x="427" y="641" on="0"/>
        <pt x="443" y="641" on="0"/>
        <pt x="482" y="619" on="0"/>
        <pt x="482" y="613" on="1"/>
        <pt x="482" y="611" on="0"/>
      </contour>
    </TTGlyph>
    <TTGlyph name="adieresis" xMin="28" yMin="-6" xMax="555" yMax="612">
      <contour>
        <pt x="445" y="400" on="1"/>
        <pt x="495" y="399" on="1"/>
        <pt x="505" y="399" on="1"/>
        <pt x="472" y="372" on="0"/>
        <pt x="376" y="153" on="0"/>
        <pt x="376" y="103" on="1"/>
        <pt x="376" y="77" on="0"/>
        <pt x="394" y="77" on="1"/>
        <pt x="452" y="77" on="0"/>
        <pt x="542" y="248" on="1"/>
        <pt x="546" y="255" on="0"/>
        <pt x="549" y="255" on="1"/>
        <pt x="555" y="255" on="0"/>
        <pt x="555" y="218" on="0"/>
        <pt x="545" y="201" on="1"/>
        <pt x="422" y="-6" on="0"/>
        <pt x="339" y="-6" on="1"/>
        <pt x="285" y="-6" on="0"/>
        <pt x="285" y="77" on="1"/>
        <pt x="285" y="139" on="0"/>
        <pt x="306" y="199" on="1"/>
        <pt x="192" y="-3" on="0"/>
        <pt x="95" y="-3" on="1"/>
        <pt x="28" y="-3" on="0"/>
        <pt x="28" y="89" on="1"/>
        <pt x="28" y="159" on="0"/>
        <pt x="89" y="303" on="0"/>
        <pt x="203" y="404" on="0"/>
        <pt x="271" y="404" on="1"/>
        <pt x="303" y="404" on="0"/>
        <pt x="359" y="375" on="0"/>
        <pt x="368" y="343" on="1"/>
        <pt x="379" y="366" on="0"/>
        <pt x="425" y="400" on="0"/>
      </contour>
      <contour>
        <pt x="362" y="334" on="1"/>
        <pt x="352" y="366" on="0"/>
        <pt x="315" y="366" on="1"/>
        <pt x="249" y="366" on="0"/>
        <pt x="125" y="183" on="0"/>
        <pt x="125" y="111" on="1"/>
        <pt x="125" y="80" on="0"/>
        <pt x="149" y="80" on="1"/>
        <pt x="175" y="80" on="0"/>
        <pt x="245" y="145" on="0"/>
        <pt x="273" y="189" on="1"/>
        <pt x="335" y="287" on="0"/>
      </contour>
      <contour>
        <pt x="510" y="558" on="1"/>
        <pt x="490" y="553" on="0"/>
        <pt x="447" y="508" on="0"/>
        <pt x="436" y="508" on="1"/>
        <pt x="415" y="508" on="0"/>
        <pt x="415" y="542" on="0"/>
        <pt x="464" y="612" on="0"/>
        <pt x="485" y="612" on="1"/>
        <pt x="496" y="612" on="0"/>
        <pt x="516" y="582" on="0"/>
        <pt x="516" y="559" on="0"/>
      </contour>
      <contour>
        <pt x="323" y="558" on="1"/>
        <pt x="303" y="553" on="0"/>
        <pt x="260" y="508" on="0"/>
        <pt x="249" y="508" on="1"/>
        <pt x="228" y="508" on="0"/>
        <pt x="228" y="542" on="0"/>
        <pt x="277" y="612" on="0"/>
        <pt x="298" y="612" on="1"/>
        <pt x="309" y="612" on="0"/>
        <pt x="329" y="582" on="0"/>
        <pt x="329" y="559" on="0"/>
      </contour>
    </TTGlyph>
    <TTGlyph name="ae" xMin="28" yMin="-10" xMax="702" yMax="404">
      <contour>
        <pt x="445" y="400" on="1"/>
        <pt x="495" y="399" on="1"/>
        <pt x="505" y="399" on="1"/>
        <pt x="498" y="393" on="0"/>
        <pt x="485" y="373" on="1"/>
        <pt x="533" y="398" on="0"/>
        <pt x="608" y="398" on="0"/>
        <pt x="643" y="363" on="0"/>
        <pt x="643" y="342" on="1"/>
        <pt x="643" y="268" on="0"/>
        <pt x="534" y="191" on="0"/>
        <pt x="427" y="191" on="0"/>
        <pt x="403" y="204" on="1"/>
        <pt x="393" y="176" on="1"/>
        <pt x="385" y="155" on="0"/>
        <pt x="383" y="76" on="0"/>
        <pt x="419" y="31" on="0"/>
        <pt x="497" y="31" on="0"/>
        <pt x="586" y="96" on="0"/>
        <pt x="649" y="177" on="0"/>
        <pt x="689" y="253" on="1"/>
        <pt x="693" y="260" on="0"/>
        <pt x="696" y="260" on="1"/>
        <pt x="702" y="260" on="0"/>
        <pt x="702" y="221" on="0"/>
        <pt x="670" y="167" on="0"/>
        <pt x="639" y="119" on="0"/>
        <pt x="587" y="55" on="0"/>
        <pt x="562" y="36" on="1"/>
        <pt x="499" y="-10" on="0"/>
        <pt x="373" y="-10" on="0"/>
        <pt x="294" y="54" on="0"/>
        <pt x="294" y="118" on="1"/>
        <pt x="294" y="152" on="0"/>
        <pt x="310" y="192" on="1"/>
        <pt x="245" y="95" on="0"/>
        <pt x="145" y="-3" on="0"/>
        <pt x="95" y="-3" on="1"/>
        <pt x="28" y="-3" on="0"/>
        <pt x="28" y="89" on="1"/>
        <pt x="28" y="159" on="0"/>
        <pt x="89" y="303" on="0"/>
        <pt x="203" y="404" on="0"/>
        <pt x="271" y="404" on="1"/>
        <pt x="303" y="404" on="0"/>
        <pt x="359" y="375" on="0"/>
        <pt x="368" y="343" on="1"/>
        <pt x="378" y="364" on="0"/>
        <pt x="423" y="400" on="0"/>
      </contour>
      <contour>
        <pt x="362" y="334" on="1"/>
        <pt x="352" y="366" on="0"/>
        <pt x="315" y="366" on="1"/>
        <pt x="249" y="366" on="0"/>
        <pt x="125" y="183" on="0"/>
        <pt x="125" y="111" on="1"/>
        <pt x="125" y="80" on="0"/>
        <pt x="149" y="80" on="1"/>
        <pt x="175" y="80" on="0"/>
        <pt x="245" y="145" on="0"/>
        <pt x="273" y="189" on="1"/>
        <pt x="335" y="287" on="0"/>
      </contour>
      <contour>
        <pt x="590" y="339" on="1"/>
        <pt x="590" y="368" on="0"/>
        <pt x="562" y="368" on="1"/>
        <pt x="523" y="368" on="0"/>
        <pt x="427" y="272" on="0"/>
        <pt x="427" y="242" on="1"/>
        <pt x="427" y="222" on="0"/>
        <pt x="503" y="222" on="0"/>
        <pt x="586" y="296" on="0"/>
      </contour>
    </TTGlyph>
    <TTGlyph name="agrave" xMin="28" yMin="-6" xMax="555" yMax="618">
      <contour>
        <pt x="445" y="400" on="1"/>
        <pt x="495" y="399" on="1"/>
        <pt x="505" y="399" on="1"/>
        <pt x="472" y="372" on="0"/>
        <pt x="376" y="153" on="0"/>
        <pt x="376" y="103" on="1"/>
        <pt x="376" y="77" on="0"/>
        <pt x="394" y="77" on="1"/>
        <pt x="452" y="77" on="0"/>
        <pt x="542" y="248" on="1"/>
        <pt x="546" y="255" on="0"/>
        <pt x="549" y="255" on="1"/>
        <pt x="555" y="255" on="0"/>
        <pt x="555" y="218" on="0"/>
        <pt x="545" y="201" on="1"/>
        <pt x="422" y="-6" on="0"/>
        <pt x="339" y="-6" on="1"/>
        <pt x="285" y="-6" on="0"/>
        <pt x="285" y="77" on="1"/>
        <pt x="285" y="139" on="0"/>
        <pt x="306" y="199" on="1"/>
        <pt x="192" y="-3" on="0"/>
        <pt x="95" y="-3" on="1"/>
        <pt x="28" y="-3" on="0"/>
        <pt x="28" y="89" on="1"/>
        <pt x="28" y="159" on="0"/>
        <pt x="89" y="303" on="0"/>
        <pt x="203" y="404" on="0"/>
        <pt x="271" y="404" on="1"/>
        <pt x="303" y="404" on="0"/>
        <pt x="359" y="375" on="0"/>
        <pt x="368" y="343" on="1"/>
        <pt x="379" y="366" on="0"/>
        <pt x="425" y="400" on="0"/>
      </contour>
      <contour>
        <pt x="362" y="334" on="1"/>
        <pt x="352" y="366" on="0"/>
        <pt x="315" y="366" on="1"/>
        <pt x="249" y="366" on="0"/>
        <pt x="125" y="183" on="0"/>
        <pt x="125" y="111" on="1"/>
        <pt x="125" y="80" on="0"/>
        <pt x="149" y="80" on="1"/>
        <pt x="175" y="80" on="0"/>
        <pt x="245" y="145" on="0"/>
        <pt x="273" y="189" on="1"/>
        <pt x="335" y="287" on="0"/>
      </contour>
      <contour>
        <pt x="324" y="552" on="1"/>
        <pt x="281" y="574" on="0"/>
        <pt x="248" y="588" on="0"/>
        <pt x="248" y="590" on="1"/>
        <pt x="248" y="596" on="0"/>
        <pt x="288" y="618" on="0"/>
        <pt x="304" y="618" on="0"/>
        <pt x="308" y="616" on="1"/>
        <pt x="326" y="603" on="0"/>
        <pt x="360" y="578" on="1"/>
        <pt x="418" y="535" on="1"/>
        <pt x="441" y="518" on="0"/>
        <pt x="448" y="515" on="1"/>
        <pt x="448" y="512" on="0"/>
        <pt x="428" y="503" on="0"/>
        <pt x="423" y="503" on="0"/>
        <pt x="395" y="517" on="1"/>
      </contour>
    </TTGlyph>
    <TTGlyph name="ampersand" xMin="13" yMin="-32" xMax="748" yMax="675">
      <contour>
        <pt x="387" y="339" on="1"/>
        <pt x="343" y="346" on="1"/>
        <pt x="252" y="346" on="0"/>
        <pt x="124" y="207" on="0"/>
        <pt x="124" y="137" on="1"/>
        <pt x="124" y="82" on="0"/>
        <pt x="196" y="8" on="0"/>
        <pt x="261" y="8" on="1"/>
        <pt x="368" y="8" on="0"/>
        <pt x="496" y="122" on="0"/>
        <pt x="496" y="246" on="0"/>
        <pt x="441" y="246" on="1"/>
        <pt x="424" y="246" on="0"/>
        <pt x="398" y="204" on="0"/>
        <pt x="397" y="188" on="1"/>
        <pt x="381" y="207" on="0"/>
        <pt x="381" y="256" on="0"/>
        <pt x="436" y="306" on="0"/>
        <pt x="480" y="320" on="1"/>
        <pt x="631" y="366" on="1"/>
        <pt x="732" y="396" on="0"/>
        <pt x="745" y="427" on="1"/>
        <pt x="748" y="421" on="0"/>
        <pt x="748" y="408" on="1"/>
        <pt x="748" y="364" on="0"/>
        <pt x="688" y="316" on="0"/>
        <pt x="648" y="309" on="1"/>
        <pt x="505" y="284" on="0"/>
        <pt x="458" y="260" on="1"/>
        <pt x="480" y="266" on="0"/>
        <pt x="492" y="266" on="1"/>
        <pt x="527" y="266" on="0"/>
        <pt x="566" y="222" on="0"/>
        <pt x="566" y="191" on="1"/>
        <pt x="566" y="123" on="0"/>
        <pt x="451" y="16" on="0"/>
        <pt x="306" y="-32" on="0"/>
        <pt x="204" y="-32" on="0"/>
        <pt x="129" y="-18" on="0"/>
        <pt x="57" y="14" on="0"/>
        <pt x="13" y="75" on="0"/>
        <pt x="13" y="117" on="1"/>
        <pt x="13" y="219" on="0"/>
        <pt x="181" y="363" on="0"/>
        <pt x="289" y="368" on="1"/>
        <pt x="253" y="386" on="0"/>
        <pt x="212" y="446" on="0"/>
        <pt x="212" y="480" on="1"/>
        <pt x="212" y="541" on="0"/>
        <pt x="300" y="634" on="0"/>
        <pt x="419" y="675" on="0"/>
        <pt x="535" y="675" on="0"/>
        <pt x="612" y="618" on="0"/>
        <pt x="612" y="539" on="0"/>
        <pt x="560" y="488" on="0"/>
        <pt x="529" y="488" on="1"/>
        <pt x="516" y="488" on="0"/>
        <pt x="510" y="493" on="1"/>
        <pt x="555" y="518" on="0"/>
        <pt x="555" y="565" on="1"/>
        <pt x="555" y="624" on="0"/>
        <pt x="397" y="624" on="0"/>
        <pt x="287" y="522" on="0"/>
        <pt x="287" y="465" on="1"/>
        <pt x="287" y="423" on="0"/>
        <pt x="339" y="379" on="0"/>
        <pt x="371" y="377" on="1"/>
        <pt x="391" y="377" on="1"/>
        <pt x="418" y="377" on="0"/>
        <pt x="418" y="366" on="1"/>
        <pt x="418" y="358" on="0"/>
        <pt x="397" y="339" on="0"/>
      </contour>
    </TTGlyph>
    <TTGlyph name="aring" xMin="28" yMin="-6" xMax="555" yMax="667">
      <contour>
        <pt x="445" y="400" on="1"/>
        <pt x="495" y="399" on="1"/>
        <pt x="505" y="399" on="1"/>
        <pt x="472" y="372" on="0"/>
        <pt x="376" y="153" on="0"/>
        <pt x="376" y="103" on="1"/>
        <pt x="376" y="77" on="0"/>
        <pt x="394" y="77" on="1"/>
        <pt x="452" y="77" on="0"/>
        <pt x="542" y="248" on="1"/>
        <pt x="546" y="255" on="0"/>
        <pt x="549" y="255" on="1"/>
        <pt x="555" y="255" on="0"/>
        <pt x="555" y="218" on="0"/>
        <pt x="545" y="201" on="1"/>
        <pt x="422" y="-6" on="0"/>
        <pt x="339" y="-6" on="1"/>
        <pt x="285" y="-6" on="0"/>
        <pt x="285" y="77" on="1"/>
        <pt x="285" y="139" on="0"/>
        <pt x="306" y="199" on="1"/>
        <pt x="192" y="-3" on="0"/>
        <pt x="95" y="-3" on="1"/>
        <pt x="28" y="-3" on="0"/>
        <pt x="28" y="89" on="1"/>
        <pt x="28" y="159" on="0"/>
        <pt x="89" y="303" on="0"/>
        <pt x="203" y="404" on="0"/>
        <pt x="271" y="404" on="1"/>
        <pt x="303" y="404" on="0"/>
        <pt x="359" y="375" on="0"/>
        <pt x="368" y="343" on="1"/>
        <pt x="379" y="366" on="0"/>
        <pt x="425" y="400" on="0"/>
      </contour>
      <contour>
        <pt x="362" y="334" on="1"/>
        <pt x="352" y="366" on="0"/>
        <pt x="315" y="366" on="1"/>
        <pt x="249" y="366" on="0"/>
        <pt x="125" y="183" on="0"/>
        <pt x="125" y="111" on="1"/>
        <pt x="125" y="80" on="0"/>
        <pt x="149" y="80" on="1"/>
        <pt x="175" y="80" on="0"/>
        <pt x="245" y="145" on="0"/>
        <pt x="273" y="189" on="1"/>
        <pt x="335" y="287" on="0"/>
      </contour>
      <contour>
        <pt x="488" y="573" on="1"/>
        <pt x="476" y="536" on="0"/>
        <pt x="408" y="484" on="0"/>
        <pt x="325" y="484" on="0"/>
        <pt x="289" y="521" on="0"/>
        <pt x="289" y="550" on="1"/>
        <pt x="289" y="594" on="0"/>
        <pt x="362" y="667" on="0"/>
        <pt x="419" y="667" on="1"/>
        <pt x="455" y="667" on="0"/>
        <pt x="493" y="630" on="0"/>
        <pt x="493" y="602" on="1"/>
        <pt x="493" y="590" on="0"/>
      </contour>
      <contour>
        <pt x="432" y="643" on="1"/>
        <pt x="422" y="644" on="1"/>
        <pt x="390" y="644" on="0"/>
        <pt x="342" y="583" on="0"/>
        <pt x="342" y="551" on="1"/>
        <pt x="342" y="512" on="0"/>
        <pt x="380" y="512" on="1"/>
        <pt x="413" y="512" on="0"/>
        <pt x="462" y="573" on="0"/>
        <pt x="462" y="639" on="0"/>
      </contour>
    </TTGlyph>
    <TTGlyph name="asciicircum" xMin="162" yMin="459" xMax="527" yMax="680">
      <contour>
        <pt x="527" y="491" on="1"/>
        <pt x="527" y="490" on="1"/>
        <pt x="527" y="484" on="0"/>
        <pt x="498" y="461" on="0"/>
        <pt x="488" y="461" on="1"/>
        <pt x="468" y="461" on="0"/>
        <pt x="401" y="574" on="0"/>
        <pt x="378" y="625" on="1"/>
        <pt x="328" y="575" on="0"/>
        <pt x="186" y="459" on="0"/>
        <pt x="168" y="459" on="1"/>
        <pt x="162" y="459" on="0"/>
        <pt x="162" y="462" on="0"/>
        <pt x="163" y="463" on="1"/>
        <pt x="281" y="559" on="0"/>
        <pt x="379" y="665" on="1"/>
        <pt x="392" y="680" on="0"/>
        <pt x="405" y="680" on="0"/>
        <pt x="415" y="662" on="1"/>
        <pt x="450" y="587" on="0"/>
      </contour>
    </TTGlyph>
    <TTGlyph name="asciitilde" xMin="226" yMin="609" xMax="610" yMax="701">
      <contour>
        <pt x="609" y="688" on="1"/>
        <pt x="553" y="609" on="0"/>
        <pt x="498" y="609" on="1"/>
        <pt x="465" y="609" on="0"/>
        <pt x="349" y="652" on="0"/>
        <pt x="317" y="652" on="1"/>
        <pt x="261" y="652" on="0"/>
        <pt x="242" y="623" on="1"/>
        <pt x="239" y="619" on="0"/>
        <pt x="235" y="619" on="1"/>
        <pt x="226" y="619" on="0"/>
        <pt x="226" y="641" on="0"/>
        <pt x="299" y="701" on="0"/>
        <pt x="366" y="701" on="0"/>
        <pt x="482" y="658" on="0"/>
        <pt x="537" y="658" on="0"/>
        <pt x="577" y="680" on="0"/>
        <pt x="600" y="701" on="0"/>
        <pt x="602" y="701" on="1"/>
        <pt x="610" y="701" on="0"/>
        <pt x="610" y="692" on="1"/>
        <pt x="610" y="689" on="0"/>
      </contour>
    </TTGlyph>
    <TTGlyph name="asterisk" xMin="8" yMin="139" xMax="622" yMax="686">
      <contour>
        <pt x="598" y="586" on="1"/>
        <pt x="622" y="512" on="1"/>
        <pt x="353" y="413" on="1"/>
        <pt x="352" y="410" on="1"/>
        <pt x="562" y="314" on="1"/>
        <pt x="493" y="239" on="1"/>
        <pt x="328" y="382" on="1"/>
        <pt x="321" y="379" on="1"/>
        <pt x="278" y="139" on="1"/>
        <pt x="187" y="139" on="1"/>
        <pt x="289" y="379" on="1"/>
        <pt x="285" y="382" on="1"/>
        <pt x="32" y="239" on="1"/>
        <pt x="8" y="313" on="1"/>
        <pt x="277" y="409" on="1"/>
        <pt x="278" y="413" on="1"/>
        <pt x="68" y="511" on="1"/>
        <pt x="137" y="585" on="1"/>
        <pt x="303" y="441" on="1"/>
        <pt x="309" y="443" on="1"/>
        <pt x="353" y="686" on="1"/>
        <pt x="443" y="686" on="1"/>
        <pt x="341" y="443" on="1"/>
        <pt x="345" y="441" on="1"/>
      </contour>
    </TTGlyph>
    <TTGlyph name="at" xMin="88" yMin="-65" xMax="875" yMax="682">
      <contour>
        <pt x="812" y="190" on="1"/>
        <pt x="782" y="144" on="0"/>
        <pt x="667" y="82" on="0"/>
        <pt x="565" y="82" on="0"/>
        <pt x="507" y="136" on="0"/>
        <pt x="507" y="192" on="1"/>
        <pt x="507" y="226" on="0"/>
        <pt x="519" y="271" on="1"/>
        <pt x="425" y="122" on="0"/>
        <pt x="352" y="122" on="1"/>
        <pt x="323" y="122" on="0"/>
        <pt x="282" y="172" on="0"/>
        <pt x="282" y="214" on="1"/>
        <pt x="282" y="323" on="0"/>
        <pt x="418" y="516" on="0"/>
        <pt x="516" y="516" on="1"/>
        <pt x="549" y="516" on="0"/>
        <pt x="586" y="485" on="0"/>
        <pt x="600" y="444" on="1"/>
        <pt x="617" y="478" on="0"/>
        <pt x="646" y="502" on="0"/>
        <pt x="679" y="502" on="1"/>
        <pt x="735" y="502" on="1"/>
        <pt x="682" y="460" on="0"/>
        <pt x="586" y="226" on="0"/>
        <pt x="586" y="172" on="1"/>
        <pt x="586" y="107" on="0"/>
        <pt x="634" y="107" on="1"/>
        <pt x="705" y="107" on="0"/>
        <pt x="805" y="284" on="0"/>
        <pt x="805" y="379" on="1"/>
        <pt x="805" y="497" on="0"/>
        <pt x="663" y="662" on="0"/>
        <pt x="533" y="662" on="1"/>
        <pt x="429" y="662" on="0"/>
        <pt x="258" y="544" on="0"/>
        <pt x="166" y="361" on="0"/>
        <pt x="166" y="185" on="0"/>
        <pt x="216" y="67" on="0"/>
        <pt x="258" y="34" on="1"/>
        <pt x="342" y="-32" on="0"/>
        <pt x="568" y="-32" on="0"/>
        <pt x="789" y="81" on="0"/>
        <pt x="831" y="150" on="1"/>
        <pt x="834" y="156" on="0"/>
        <pt x="842" y="156" on="0"/>
        <pt x="842" y="139" on="1"/>
        <pt x="842" y="95" on="0"/>
        <pt x="783" y="22" on="0"/>
        <pt x="695" y="-22" on="0"/>
        <pt x="639" y="-38" on="1"/>
        <pt x="540" y="-65" on="0"/>
        <pt x="443" y="-65" on="1"/>
        <pt x="285" y="-65" on="0"/>
        <pt x="88" y="88" on="0"/>
        <pt x="88" y="245" on="1"/>
        <pt x="88" y="326" on="0"/>
        <pt x="150" y="481" on="0"/>
        <pt x="261" y="606" on="0"/>
        <pt x="431" y="682" on="0"/>
        <pt x="530" y="682" on="1"/>
        <pt x="687" y="682" on="0"/>
        <pt x="875" y="514" on="0"/>
        <pt x="875" y="389" on="1"/>
        <pt x="875" y="288" on="0"/>
      </contour>
      <contour>
        <pt x="574" y="393" on="1"/>
        <pt x="596" y="436" on="1"/>
        <pt x="593" y="456" on="0"/>
        <pt x="558" y="478" on="0"/>
        <pt x="535" y="478" on="1"/>
        <pt x="463" y="478" on="0"/>
        <pt x="371" y="329" on="0"/>
        <pt x="371" y="255" on="1"/>
        <pt x="371" y="225" on="0"/>
        <pt x="391" y="191" on="0"/>
        <pt x="406" y="191" on="1"/>
        <pt x="438" y="191" on="0"/>
        <pt x="541" y="329" on="0"/>
      </contour>
    </TTGlyph>
    <TTGlyph name="atilde" xMin="28" yMin="-6" xMax="555" yMax="608">
      <contour>
        <pt x="445" y="400" on="1"/>
        <pt x="495" y="399" on="1"/>
        <pt x="505" y="399" on="1"/>
        <pt x="472" y="372" on="0"/>
        <pt x="376" y="153" on="0"/>
        <pt x="376" y="103" on="1"/>
        <pt x="376" y="77" on="0"/>
        <pt x="394" y="77" on="1"/>
        <pt x="452" y="77" on="0"/>
        <pt x="542" y="248" on="1"/>
        <pt x="546" y="255" on="0"/>
        <pt x="549" y="255" on="1"/>
        <pt x="555" y="255" on="0"/>
        <pt x="555" y="218" on="0"/>
        <pt x="545" y="201" on="1"/>
        <pt x="422" y="-6" on="0"/>
        <pt x="339" y="-6" on="1"/>
        <pt x="285" y="-6" on="0"/>
        <pt x="285" y="77" on="1"/>
        <pt x="285" y="139" on="0"/>
        <pt x="306" y="199" on="1"/>
        <pt x="192" y="-3" on="0"/>
        <pt x="95" y="-3" on="1"/>
        <pt x="28" y="-3" on="0"/>
        <pt x="28" y="89" on="1"/>
        <pt x="28" y="159" on="0"/>
        <pt x="89" y="303" on="0"/>
        <pt x="203" y="404" on="0"/>
        <pt x="271" y="404" on="1"/>
        <pt x="303" y="404" on="0"/>
        <pt x="359" y="375" on="0"/>
        <pt x="368" y="343" on="1"/>
        <pt x="379" y="366" on="0"/>
        <pt x="425" y="400" on="0"/>
      </contour>
      <contour>
        <pt x="362" y="334" on="1"/>
        <pt x="352" y="366" on="0"/>
        <pt x="315" y="366" on="1"/>
        <pt x="249" y="366" on="0"/>
        <pt x="125" y="183" on="0"/>
        <pt x="125" y="111" on="1"/>
        <pt x="125" y="80" on="0"/>
        <pt x="149" y="80" on="1"/>
        <pt x="175" y="80" on="0"/>
        <pt x="245" y="145" on="0"/>
        <pt x="273" y="189" on="1"/>
        <pt x="335" y="287" on="0"/>
      </contour>
      <contour>
        <pt x="513" y="593" on="1"/>
        <pt x="471" y="521" on="0"/>
        <pt x="433" y="521" on="1"/>
        <pt x="410" y="521" on="0"/>
        <pt x="326" y="557" on="0"/>
        <pt x="277" y="557" on="0"/>
        <pt x="241" y="527" on="0"/>
        <pt x="240" y="527" on="1"/>
        <pt x="229" y="527" on="0"/>
        <pt x="229" y="546" on="0"/>
        <pt x="281" y="604" on="0"/>
        <pt x="330" y="604" on="0"/>
        <pt x="422" y="567" on="0"/>
        <pt x="463" y="567" on="0"/>
        <pt x="486" y="588" on="0"/>
        <pt x="500" y="608" on="0"/>
        <pt x="506" y="608" on="1"/>
        <pt x="515" y="608" on="0"/>
        <pt x="515" y="600" on="1"/>
        <pt x="515" y="597" on="0"/>
      </contour>
    </TTGlyph>
    <TTGlyph name="b" xMin="24" yMin="-10" xMax="526" yMax="654">
      <contour>
        <pt x="520" y="256" on="1"/>
        <pt x="526" y="256" on="0"/>
        <pt x="526" y="219" on="0"/>
        <pt x="520" y="209" on="1"/>
        <pt x="498" y="172" on="1"/>
        <pt x="449" y="91" on="0"/>
        <pt x="418" y="64" on="1"/>
        <pt x="384" y="33" on="0"/>
        <pt x="352" y="33" on="1"/>
        <pt x="310" y="33" on="0"/>
        <pt x="296" y="72" on="1"/>
        <pt x="255" y="31" on="0"/>
        <pt x="171" y="-10" on="0"/>
        <pt x="67" y="-10" on="0"/>
        <pt x="24" y="23" on="0"/>
        <pt x="24" y="100" on="0"/>
        <pt x="36" y="149" on="1"/>
        <pt x="67" y="281" on="0"/>
        <pt x="213" y="638" on="0"/>
        <pt x="255" y="649" on="1"/>
        <pt x="268" y="652" on="0"/>
        <pt x="337" y="653" on="0"/>
        <pt x="344" y="654" on="1"/>
        <pt x="305" y="625" on="0"/>
        <pt x="172" y="343" on="0"/>
        <pt x="138" y="213" on="1"/>
        <pt x="246" y="404" on="0"/>
        <pt x="342" y="404" on="1"/>
        <pt x="410" y="404" on="0"/>
        <pt x="410" y="209" on="0"/>
        <pt x="328" y="108" on="1"/>
        <pt x="329" y="91" on="0"/>
        <pt x="347" y="71" on="0"/>
        <pt x="375" y="71" on="0"/>
        <pt x="408" y="96" on="0"/>
        <pt x="425" y="115" on="0"/>
        <pt x="453" y="151" on="0"/>
        <pt x="491" y="212" on="0"/>
        <pt x="518" y="256" on="0"/>
      </contour>
      <contour>
        <pt x="298" y="319" on="1"/>
        <pt x="295" y="320" on="0"/>
        <pt x="270" y="320" on="0"/>
        <pt x="201" y="268" on="0"/>
        <pt x="109" y="121" on="0"/>
        <pt x="109" y="26" on="0"/>
        <pt x="138" y="26" on="1"/>
        <pt x="191" y="26" on="0"/>
        <pt x="313" y="231" on="0"/>
        <pt x="313" y="290" on="1"/>
        <pt x="313" y="315" on="0"/>
      </contour>
    </TTGlyph>
    <TTGlyph name="backslash" xMin="86" yMin="-61" xMax="424" yMax="702">
      <contour>
        <pt x="170" y="699" on="1"/>
        <pt x="424" y="-53" on="1"/>
        <pt x="425" y="-56" on="0"/>
        <pt x="385" y="-61" on="0"/>
        <pt x="341" y="-61" on="0"/>
        <pt x="340" y="-58" on="1"/>
        <pt x="86" y="694" on="1"/>
        <pt x="85" y="697" on="0"/>
        <pt x="125" y="702" on="0"/>
        <pt x="168" y="702" on="0"/>
      </contour>
    </TTGlyph>
    <TTGlyph name="bar" xMin="172" yMin="-53" xMax="348" yMax="697">
      <contour>
        <pt x="279" y="697" on="1"/>
        <pt x="348" y="697" on="1"/>
        <pt x="242" y="-53" on="1"/>
        <pt x="172" y="-53" on="1"/>
      </contour>
    </TTGlyph>
    <TTGlyph name="braceleft" xMin="9" yMin="-81" xMax="500" yMax="712">
      <contour>
        <pt x="293" y="-79" on="1"/>
        <pt x="241" y="-81" on="1"/>
        <pt x="141" y="-81" on="0"/>
        <pt x="98" y="-64" on="0"/>
        <pt x="83" y="-55" on="1"/>
        <pt x="55" y="-38" on="0"/>
        <pt x="55" y="44" on="0"/>
        <pt x="112" y="209" on="0"/>
        <pt x="112" y="280" on="0"/>
        <pt x="72" y="319" on="0"/>
        <pt x="31" y="329" on="0"/>
        <pt x="9" y="329" on="1"/>
        <pt x="19" y="360" on="1"/>
        <pt x="100" y="366" on="0"/>
        <pt x="127" y="384" on="0"/>
        <pt x="141" y="395" on="1"/>
        <pt x="177" y="423" on="0"/>
        <pt x="198" y="518" on="1"/>
        <pt x="206" y="555" on="0"/>
        <pt x="220" y="600" on="0"/>
        <pt x="267" y="655" on="0"/>
        <pt x="330" y="687" on="0"/>
        <pt x="346" y="694" on="1"/>
        <pt x="390" y="712" on="0"/>
        <pt x="474" y="712" on="1"/>
        <pt x="500" y="712" on="1"/>
        <pt x="491" y="681" on="1"/>
        <pt x="404" y="681" on="0"/>
        <pt x="360" y="648" on="1"/>
        <pt x="342" y="634" on="0"/>
        <pt x="314" y="586" on="0"/>
        <pt x="303" y="547" on="0"/>
        <pt x="286" y="485" on="0"/>
        <pt x="279" y="467" on="1"/>
        <pt x="259" y="416" on="0"/>
        <pt x="143" y="342" on="0"/>
        <pt x="82" y="340" on="1"/>
        <pt x="128" y="339" on="0"/>
        <pt x="206" y="282" on="0"/>
        <pt x="206" y="202" on="0"/>
        <pt x="160" y="58" on="0"/>
        <pt x="160" y="21" on="1"/>
        <pt x="160" y="-51" on="0"/>
        <pt x="266" y="-51" on="1"/>
        <pt x="273" y="-51" on="0"/>
        <pt x="300" y="-50" on="0"/>
        <pt x="305" y="-50" on="1"/>
      </contour>
    </TTGlyph>
    <TTGlyph name="braceright" xMin="9" yMin="-82" xMax="500" yMax="712">
      <contour>
        <pt x="216" y="710" on="1"/>
        <pt x="268" y="712" on="1"/>
        <pt x="368" y="712" on="0"/>
        <pt x="411" y="695" on="0"/>
        <pt x="426" y="686" on="1"/>
        <pt x="454" y="669" on="0"/>
        <pt x="454" y="587" on="0"/>
        <pt x="397" y="422" on="0"/>
        <pt x="397" y="351" on="0"/>
        <pt x="437" y="312" on="0"/>
        <pt x="478" y="302" on="0"/>
        <pt x="500" y="302" on="1"/>
        <pt x="490" y="271" on="1"/>
        <pt x="409" y="265" on="0"/>
        <pt x="382" y="247" on="0"/>
        <pt x="368" y="236" on="1"/>
        <pt x="332" y="207" on="0"/>
        <pt x="311" y="112" on="1"/>
        <pt x="303" y="75" on="0"/>
        <pt x="289" y="31" on="0"/>
        <pt x="242" y="-24" on="0"/>
        <pt x="176" y="-57" on="0"/>
        <pt x="148" y="-69" on="0"/>
        <pt x="79" y="-82" on="0"/>
        <pt x="31" y="-82" on="0"/>
        <pt x="14" y="-81" on="0"/>
        <pt x="9" y="-81" on="1"/>
        <pt x="19" y="-50" on="1"/>
        <pt x="105" y="-50" on="0"/>
        <pt x="148" y="-17" on="1"/>
        <pt x="167" y="-3" on="0"/>
        <pt x="195" y="45" on="0"/>
        <pt x="206" y="84" on="0"/>
        <pt x="223" y="146" on="0"/>
        <pt x="230" y="164" on="1"/>
        <pt x="249" y="215" on="0"/>
        <pt x="365" y="289" on="0"/>
        <pt x="427" y="291" on="1"/>
        <pt x="380" y="292" on="0"/>
        <pt x="303" y="349" on="0"/>
        <pt x="303" y="428" on="0"/>
        <pt x="349" y="574" on="0"/>
        <pt x="349" y="610" on="1"/>
        <pt x="349" y="682" on="0"/>
        <pt x="243" y="682" on="1"/>
        <pt x="235" y="682" on="0"/>
        <pt x="209" y="681" on="0"/>
        <pt x="204" y="681" on="1"/>
      </contour>
    </TTGlyph>
    <TTGlyph name="bracketleft" xMin="13" yMin="-77" xMax="523" yMax="712">
      <contour>
        <pt x="280" y="712" on="1"/>
        <pt x="523" y="712" on="1"/>
        <pt x="507" y="664" on="1"/>
        <pt x="354" y="664" on="1"/>
        <pt x="119" y="-29" on="1"/>
        <pt x="272" y="-29" on="1"/>
        <pt x="256" y="-77" on="1"/>
        <pt x="13" y="-77" on="1"/>
        <pt x="268" y="677" on="0"/>
      </contour>
    </TTGlyph>
    <TTGlyph name="bracketright" xMin="13" yMin="-77" xMax="523" yMax="712">
      <contour>
        <pt x="280" y="712" on="1"/>
        <pt x="523" y="712" on="1"/>
        <pt x="256" y="-77" on="1"/>
        <pt x="13" y="-77" on="1"/>
        <pt x="29" y="-29" on="1"/>
        <pt x="182" y="-29" on="1"/>
        <pt x="417" y="664" on="1"/>
        <pt x="264" y="664" on="1"/>
      </contour>
    </TTGlyph>
    <TTGlyph name="breve" xMin="290" yMin="602" xMax="564" yMax="703">
      <contour>
        <pt x="564" y="698" on="1"/>
        <pt x="518" y="602" on="0"/>
        <pt x="411" y="602" on="1"/>
        <pt x="365" y="602" on="0"/>
        <pt x="290" y="655" on="0"/>
        <pt x="290" y="693" on="1"/>
        <pt x="290" y="703" on="0"/>
        <pt x="350" y="703" on="0"/>
        <pt x="350" y="699" on="1"/>
        <pt x="350" y="669" on="0"/>
        <pt x="396" y="635" on="0"/>
        <pt x="457" y="635" on="0"/>
        <pt x="509" y="667" on="0"/>
        <pt x="522" y="698" on="1"/>
        <pt x="523" y="702" on="0"/>
        <pt x="564" y="702" on="0"/>
      </contour>
    </TTGlyph>
    <TTGlyph name="brokenbar" xMin="249" yMin="-61" xMax="401" yMax="699">
      <contour>
        <pt x="401" y="691" on="1"/>
        <pt x="355" y="374" on="1"/>
        <pt x="355" y="371" on="0"/>
        <pt x="308" y="371" on="0"/>
        <pt x="310" y="379" on="1"/>
        <pt x="356" y="696" on="1"/>
        <pt x="356" y="699" on="0"/>
        <pt x="403" y="699" on="0"/>
      </contour>
      <contour>
        <pt x="340" y="259" on="1"/>
        <pt x="294" y="-58" on="1"/>
        <pt x="294" y="-61" on="0"/>
        <pt x="247" y="-61" on="0"/>
        <pt x="249" y="-53" on="1"/>
        <pt x="295" y="264" on="1"/>
        <pt x="295" y="267" on="0"/>
        <pt x="342" y="267" on="0"/>
      </contour>
    </TTGlyph>
    <TTGlyph name="bullet" xMin="81" yMin="49" xMax="462" yMax="435">
      <contour>
        <pt x="128" y="358" on="1"/>
        <pt x="191" y="435" on="0"/>
        <pt x="285" y="435" on="1"/>
        <pt x="360" y="435" on="0"/>
        <pt x="462" y="328" on="0"/>
        <pt x="462" y="172" on="0"/>
        <pt x="338" y="49" on="0"/>
        <pt x="183" y="49" on="0"/>
        <pt x="81" y="156" on="0"/>
        <pt x="81" y="299" on="0"/>
      </contour>
    </TTGlyph>
    <TTGlyph name="c" xMin="34" yMin="-10" xMax="440" yMax="398">
      <contour>
        <pt x="434" y="256" on="1"/>
        <pt x="440" y="256" on="0"/>
        <pt x="440" y="218" on="0"/>
        <pt x="407" y="162" on="0"/>
        <pt x="388" y="133" on="0"/>
        <pt x="342" y="69" on="0"/>
        <pt x="308" y="41" on="0"/>
        <pt x="282" y="22" on="1"/>
        <pt x="238" y="-10" on="0"/>
        <pt x="97" y="-10" on="0"/>
        <pt x="34" y="61" on="0"/>
        <pt x="34" y="118" on="1"/>
        <pt x="34" y="223" on="0"/>
        <pt x="183" y="398" on="0"/>
        <pt x="284" y="398" on="1"/>
        <pt x="329" y="398" on="0"/>
        <pt x="383" y="351" on="0"/>
        <pt x="383" y="286" on="0"/>
        <pt x="347" y="238" on="0"/>
        <pt x="324" y="238" on="1"/>
        <pt x="279" y="238" on="0"/>
        <pt x="279" y="275" on="1"/>
        <pt x="279" y="287" on="0"/>
        <pt x="304" y="298" on="1"/>
        <pt x="314" y="302" on="0"/>
        <pt x="330" y="324" on="0"/>
        <pt x="330" y="342" on="1"/>
        <pt x="330" y="368" on="0"/>
        <pt x="302" y="368" on="1"/>
        <pt x="242" y="368" on="0"/>
        <pt x="124" y="194" on="0"/>
        <pt x="124" y="31" on="0"/>
        <pt x="195" y="31" on="1"/>
        <pt x="294" y="31" on="0"/>
        <pt x="388" y="184" on="1"/>
        <pt x="407" y="214" on="0"/>
        <pt x="432" y="256" on="0"/>
      </contour>
    </TTGlyph>
    <TTGlyph name="caron" xMin="245" yMin="478" xMax="503" yMax="626">
      <contour>
        <pt x="282" y="626" on="1"/>
        <pt x="306" y="626" on="0"/>
        <pt x="357" y="527" on="1"/>
        <pt x="458" y="622" on="0"/>
        <pt x="485" y="622" on="1"/>
        <pt x="503" y="622" on="0"/>
        <pt x="503" y="619" on="1"/>
        <pt x="503" y="618" on="1"/>
        <pt x="407" y="540" on="0"/>
        <pt x="357" y="488" on="1"/>
        <pt x="348" y="478" on="0"/>
        <pt x="331" y="478" on="0"/>
        <pt x="300" y="523" on="0"/>
        <pt x="257" y="591" on="0"/>
        <pt x="245" y="606" on="1"/>
        <pt x="245" y="610" on="0"/>
        <pt x="273" y="626" on="0"/>
      </contour>
    </TTGlyph>
    <TTGlyph name="ccedilla" xMin="-10" yMin="-282" xMax="440" yMax="398">
      <contour>
        <pt x="434" y="256" on="1"/>
        <pt x="440" y="256" on="0"/>
        <pt x="440" y="218" on="0"/>
        <pt x="407" y="162" on="0"/>
        <pt x="388" y="133" on="0"/>
        <pt x="342" y="69" on="0"/>
        <pt x="308" y="41" on="0"/>
        <pt x="282" y="22" on="1"/>
        <pt x="238" y="-10" on="0"/>
        <pt x="97" y="-10" on="0"/>
        <pt x="34" y="61" on="0"/>
        <pt x="34" y="118" on="1"/>
        <pt x="34" y="223" on="0"/>
        <pt x="183" y="398" on="0"/>
        <pt x="284" y="398" on="1"/>
        <pt x="329" y="398" on="0"/>
        <pt x="383" y="351" on="0"/>
        <pt x="383" y="286" on="0"/>
        <pt x="347" y="238" on="0"/>
        <pt x="324" y="238" on="1"/>
        <pt x="279" y="238" on="0"/>
        <pt x="279" y="275" on="1"/>
        <pt x="279" y="287" on="0"/>
        <pt x="304" y="298" on="1"/>
        <pt x="314" y="302" on="0"/>
        <pt x="330" y="324" on="0"/>
        <pt x="330" y="342" on="1"/>
        <pt x="330" y="368" on="0"/>
        <pt x="302" y="368" on="1"/>
        <pt x="242" y="368" on="0"/>
        <pt x="124" y="194" on="0"/>
        <pt x="124" y="31" on="0"/>
        <pt x="195" y="31" on="1"/>
        <pt x="294" y="31" on="0"/>
        <pt x="388" y="184" on="1"/>
        <pt x="407" y="214" on="0"/>
        <pt x="432" y="256" on="0"/>
      </contour>
      <contour>
        <pt x="165" y="-72" on="1"/>
        <pt x="164" y="-76" on="0"/>
        <pt x="147" y="-74" on="0"/>
        <pt x="141" y="-74" on="1"/>
        <pt x="106" y="-74" on="0"/>
        <pt x="42" y="-166" on="0"/>
        <pt x="42" y="-258" on="0"/>
        <pt x="82" y="-258" on="1"/>
        <pt x="119" y="-258" on="0"/>
        <pt x="155" y="-220" on="1"/>
        <pt x="157" y="-218" on="0"/>
        <pt x="162" y="-218" on="0"/>
        <pt x="162" y="-225" on="1"/>
        <pt x="162" y="-249" on="0"/>
        <pt x="99" y="-282" on="0"/>
        <pt x="26" y="-282" on="0"/>
        <pt x="-10" y="-241" on="0"/>
        <pt x="-10" y="-208" on="1"/>
        <pt x="-10" y="-143" on="0"/>
        <pt x="75" y="-56" on="0"/>
        <pt x="138" y="-56" on="1"/>
        <pt x="142" y="-56" on="1"/>
        <pt x="162" y="-10" on="1"/>
        <pt x="163" y="-6" on="0"/>
        <pt x="184" y="-6" on="0"/>
        <pt x="184" y="-9" on="1"/>
      </contour>
    </TTGlyph>
    <TTGlyph name="cedilla" xMin="40" yMin="-282" xMax="234" yMax="-6">
      <contour>
        <pt x="215" y="-72" on="1"/>
        <pt x="214" y="-76" on="0"/>
        <pt x="197" y="-74" on="0"/>
        <pt x="191" y="-74" on="1"/>
        <pt x="156" y="-74" on="0"/>
        <pt x="92" y="-166" on="0"/>
        <pt x="92" y="-258" on="0"/>
        <pt x="132" y="-258" on="1"/>
        <pt x="169" y="-258" on="0"/>
        <pt x="205" y="-220" on="1"/>
        <pt x="207" y="-218" on="0"/>
        <pt x="212" y="-218" on="0"/>
        <pt x="212" y="-225" on="1"/>
        <pt x="212" y="-249" on="0"/>
        <pt x="149" y="-282" on="0"/>
        <pt x="76" y="-282" on="0"/>
        <pt x="40" y="-241" on="0"/>
        <pt x="40" y="-208" on="1"/>
        <pt x="40" y="-143" on="0"/>
        <pt x="125" y="-56" on="0"/>
        <pt x="188" y="-56" on="1"/>
        <pt x="192" y="-56" on="1"/>
        <pt x="212" y="-10" on="1"/>
        <pt x="213" y="-6" on="0"/>
        <pt x="234" y="-6" on="0"/>
        <pt x="234" y="-9" on="1"/>
      </contour>
    </TTGlyph>
</ttFont>
